<svg width="744" height="46" viewBox="0 0 744 46" fill="none" xmlns="http://www.w3.org/2000/svg">
<path d="M10.8668 35.9993C21.06 35.9993 26.81 29.6612 26.81 19.2067C26.81 8.81747 21.06 2.54475 11.3242 2.54475H0.542969V35.9993H10.8668ZM4.59411 32.4055V6.1385H11.0629C18.9038 6.1385 22.8896 11.1044 22.8896 19.2067C22.8896 27.3743 18.9038 32.4055 10.6055 32.4055H4.59411Z" fill="#2F5A76"/>
<path d="M43.6026 36.522C48.6992 36.522 52.4237 33.9737 53.5998 30.184L49.8754 29.1385C48.8952 31.7521 46.6246 33.059 43.6026 33.059C39.0778 33.059 35.9577 30.1349 35.7781 24.7607H53.9918V23.1271C53.9918 13.7834 48.4379 10.5817 43.2106 10.5817C36.4151 10.5817 31.9066 15.9396 31.9066 23.6499C31.9066 31.3601 36.3498 36.522 43.6026 36.522ZM35.7781 21.4283C36.0394 17.5242 38.8001 14.0447 43.2106 14.0447C47.3924 14.0447 50.0714 17.1811 50.0714 21.4283H35.7781Z" fill="#2F5A76"/>
<path d="M77.6289 16.5277C76.4201 12.9666 73.7085 10.5817 68.7425 10.5817C63.4499 10.5817 59.5295 13.5874 59.5295 17.8345C59.5295 21.2976 61.5877 23.6172 66.1942 24.6953L70.3761 25.6754C72.908 26.2635 74.1005 27.4723 74.1005 29.2038C74.1005 31.3601 71.8136 33.1243 68.2198 33.1243C65.0671 33.1243 63.0906 31.7685 62.4045 29.0732L58.7454 29.9879C59.6438 34.2514 63.1559 36.522 68.2852 36.522C74.1168 36.522 78.0863 33.3367 78.0863 29.0078C78.0863 25.5121 75.8974 23.3068 71.4215 22.2124L67.6971 21.2976C64.7241 20.5625 63.3846 19.5661 63.3846 17.6385C63.3846 15.4822 65.6715 13.9141 68.7425 13.9141C72.1076 13.9141 73.4961 15.7763 74.1658 17.5078L77.6289 16.5277Z" fill="#2F5A76"/>
<path d="M83.8894 35.9993H87.7445V10.9084H83.8894V35.9993ZM85.8496 6.72657C87.3524 6.72657 88.5939 5.55043 88.5939 4.11293C88.5939 2.67543 87.3524 1.49929 85.8496 1.49929C84.3468 1.49929 83.1053 2.67543 83.1053 4.11293C83.1053 5.55043 84.3468 6.72657 85.8496 6.72657Z" fill="#2F5A76"/>
<path d="M104.933 45.9311C110.945 45.9311 115.78 43.1868 115.78 36.718V10.9084H112.055V14.8942H111.663C110.814 13.5874 109.246 10.5817 104.345 10.5817C98.0071 10.5817 93.6293 15.6129 93.6293 23.3232C93.6293 31.1641 98.2031 35.6072 104.28 35.6072C109.18 35.6072 110.749 32.7322 111.598 31.3601H111.925V36.4567C111.925 40.6385 108.984 42.5334 104.933 42.5334C100.376 42.5334 98.7749 40.1321 97.7457 38.7436L94.6747 40.8999C96.2429 43.5298 99.3303 45.9311 104.933 45.9311ZM104.803 32.1442C99.9673 32.1442 97.4844 28.4851 97.4844 23.2578C97.4844 18.1612 99.902 14.0447 104.803 14.0447C109.507 14.0447 111.99 17.8345 111.99 23.2578C111.99 28.8118 109.442 32.1442 104.803 32.1442Z" fill="#2F5A76"/>
<path d="M126.692 20.9055C126.692 16.5277 129.403 14.0447 133.095 14.0447C136.673 14.0447 138.845 16.3807 138.845 20.3175V35.9993H142.7V20.0561C142.7 13.6527 139.286 10.5817 134.206 10.5817C130.416 10.5817 128.064 12.2805 126.888 14.8288H126.561V10.9084H122.837V35.9993H126.692V20.9055Z" fill="#2F5A76"/>
<path d="M149.745 35.9993H153.6V10.9084H149.745V35.9993ZM151.705 6.72657C153.208 6.72657 154.449 5.55043 154.449 4.11293C154.449 2.67543 153.208 1.49929 151.705 1.49929C150.202 1.49929 148.961 2.67543 148.961 4.11293C148.961 5.55043 150.202 6.72657 151.705 6.72657Z" fill="#2F5A76"/>
<path d="M164.516 20.9055C164.516 16.5277 167.228 14.0447 170.919 14.0447C174.497 14.0447 176.669 16.3807 176.669 20.3175V35.9993H180.525V20.0561C180.525 13.6527 177.11 10.5817 172.03 10.5817C168.24 10.5817 165.888 12.2805 164.712 14.8288H164.385V10.9084H160.661V35.9993H164.516V20.9055Z" fill="#2F5A76"/>
<path d="M197.697 45.9311C203.708 45.9311 208.544 43.1868 208.544 36.718V10.9084H204.819V14.8942H204.427C203.578 13.5874 202.009 10.5817 197.109 10.5817C190.771 10.5817 186.393 15.6129 186.393 23.3232C186.393 31.1641 190.967 35.6072 197.044 35.6072C201.944 35.6072 203.512 32.7322 204.362 31.3601H204.688V36.4567C204.688 40.6385 201.748 42.5334 197.697 42.5334C193.139 42.5334 191.539 40.1321 190.509 38.7436L187.438 40.8999C189.007 43.5298 192.094 45.9311 197.697 45.9311ZM197.566 32.1442C192.731 32.1442 190.248 28.4851 190.248 23.2578C190.248 18.1612 192.666 14.0447 197.566 14.0447C202.271 14.0447 204.754 17.8345 204.754 23.2578C204.754 28.8118 202.205 32.1442 197.566 32.1442Z" fill="#2F5A76"/>
<path d="M235.921 36.5874C240.299 36.5874 242.586 34.2351 243.37 32.6016H243.566V35.9993H247.421V19.468C247.421 11.4964 241.345 10.5817 238.143 10.5817C234.353 10.5817 230.041 11.8885 228.08 16.4624L231.74 17.7692C232.589 15.9396 234.598 13.9794 238.274 13.9794C241.818 13.9794 243.566 15.858 243.566 19.076V19.2067C243.566 21.0689 241.671 20.9055 237.097 21.4936C232.442 22.098 227.362 23.1271 227.362 28.8771C227.362 33.7777 231.151 36.5874 235.921 36.5874ZM236.509 33.1243C233.438 33.1243 231.217 31.7521 231.217 29.0732C231.217 26.1328 233.896 25.218 236.901 24.826C238.535 24.63 242.913 24.1726 243.566 23.3885V26.9169C243.566 30.0533 241.083 33.1243 236.509 33.1243Z" fill="#2F5A76"/>
<path d="M267.395 45.4084H271.25V32.1442H271.577C272.426 33.5163 274.06 36.522 278.895 36.522C285.168 36.522 289.546 31.4908 289.546 23.5192C289.546 15.6129 285.168 10.5817 278.83 10.5817C273.929 10.5817 272.426 13.5874 271.577 14.8942H271.12V10.9084H267.395V45.4084ZM271.185 23.4538C271.185 17.8345 273.668 14.0447 278.372 14.0447C283.273 14.0447 285.691 18.1612 285.691 23.4538C285.691 28.8118 283.208 33.059 278.372 33.059C273.733 33.059 271.185 29.1385 271.185 23.4538Z" fill="#2F5A76"/>
<path d="M299.282 2.54475H295.426V35.9993H299.282V2.54475Z" fill="#2F5A76"/>
<path d="M313.726 36.5874C318.104 36.5874 320.391 34.2351 321.175 32.6016H321.371V35.9993H325.226V19.468C325.226 11.4964 319.149 10.5817 315.948 10.5817C312.158 10.5817 307.845 11.8885 305.885 16.4624L309.544 17.7692C310.394 15.9396 312.403 13.9794 316.078 13.9794C319.623 13.9794 321.371 15.858 321.371 19.076V19.2067C321.371 21.0689 319.476 20.9055 314.902 21.4936C310.247 22.098 305.166 23.1271 305.166 28.8771C305.166 33.7777 308.956 36.5874 313.726 36.5874ZM314.314 33.1243C311.243 33.1243 309.021 31.7521 309.021 29.0732C309.021 26.1328 311.7 25.218 314.706 24.826C316.34 24.63 320.717 24.1726 321.371 23.3885V26.9169C321.371 30.0533 318.888 33.1243 314.314 33.1243Z" fill="#2F5A76"/>
<path d="M343.174 10.9084H337.816V4.89702H333.961V10.9084H330.172V14.1754H333.961V29.8572C333.961 34.2351 337.49 36.326 340.757 36.326C342.194 36.326 343.109 36.0646 343.632 35.8686L342.848 32.4055C342.521 32.4709 341.998 32.6016 341.149 32.6016C339.45 32.6016 337.816 32.0788 337.816 28.8118V14.1754H343.174V10.9084Z" fill="#2F5A76"/>
<path d="M360.147 10.9084H354.527V8.36009C354.527 5.87713 355.573 4.57031 358.121 4.57031C359.232 4.57031 359.885 4.83168 360.277 4.96236L361.388 1.62997C360.8 1.36861 359.624 0.976562 357.729 0.976562C354.135 0.976562 350.672 3.13281 350.672 7.44532V10.9084H346.621V14.1754H350.672V35.9993H354.527V14.1754H360.147V10.9084Z" fill="#2F5A76"/>
<path d="M374.71 36.522C381.505 36.522 386.079 31.3601 386.079 23.5845C386.079 15.7436 381.505 10.5817 374.71 10.5817C367.914 10.5817 363.34 15.7436 363.34 23.5845C363.34 31.3601 367.914 36.522 374.71 36.522ZM374.71 33.059C369.548 33.059 367.195 28.6158 367.195 23.5845C367.195 18.5533 369.548 14.0447 374.71 14.0447C379.871 14.0447 382.224 18.5533 382.224 23.5845C382.224 28.6158 379.871 33.059 374.71 33.059Z" fill="#2F5A76"/>
<path d="M391.964 35.9993H395.819V20.1215C395.819 16.7237 398.498 14.2408 402.157 14.2408C403.186 14.2408 404.248 14.4368 404.509 14.5021V10.5817C404.068 10.549 403.055 10.5163 402.483 10.5163C399.478 10.5163 396.864 12.2152 395.949 14.6982H395.688V10.9084H391.964V35.9993Z" fill="#2F5A76"/>
<path d="M409.079 35.9993H412.934V20.3175C412.934 16.642 415.613 14.0447 418.619 14.0447C421.543 14.0447 423.585 15.956 423.585 18.8146V35.9993H427.505V19.6641C427.505 16.4297 429.531 14.0447 433.059 14.0447C435.803 14.0447 438.156 15.4986 438.156 19.2067V35.9993H442.011V19.2067C442.011 13.3097 438.842 10.5817 434.366 10.5817C430.772 10.5817 428.142 12.2315 426.852 14.8288H426.59C425.349 12.1499 423.16 10.5817 419.86 10.5817C416.593 10.5817 414.175 12.1499 413.13 14.8288H412.803V10.9084H409.079V35.9993Z" fill="#2F5A76"/>
<path d="M473.17 10.9084H467.551V8.36009C467.551 5.87713 468.596 4.57031 471.145 4.57031C472.255 4.57031 472.909 4.83168 473.301 4.96236L474.412 1.62997C473.823 1.36861 472.647 0.976562 470.752 0.976562C467.159 0.976562 463.696 3.13281 463.696 7.44532V10.9084H459.645V14.1754H463.696V35.9993H467.551V14.1754H473.17V10.9084Z" fill="#2F5A76"/>
<path d="M478.573 35.9993H482.428V20.1215C482.428 16.7237 485.107 14.2408 488.766 14.2408C489.795 14.2408 490.857 14.4368 491.118 14.5021V10.5817C490.677 10.549 489.665 10.5163 489.093 10.5163C486.087 10.5163 483.474 12.2152 482.559 14.6982H482.297V10.9084H478.573V35.9993Z" fill="#2F5A76"/>
<path d="M505.118 36.522C511.913 36.522 516.487 31.3601 516.487 23.5845C516.487 15.7436 511.913 10.5817 505.118 10.5817C498.322 10.5817 493.748 15.7436 493.748 23.5845C493.748 31.3601 498.322 36.522 505.118 36.522ZM505.118 33.059C499.956 33.059 497.604 28.6158 497.604 23.5845C497.604 18.5533 499.956 14.0447 505.118 14.0447C510.28 14.0447 512.632 18.5533 512.632 23.5845C512.632 28.6158 510.28 33.059 505.118 33.059Z" fill="#2F5A76"/>
<path d="M522.372 35.9993H526.227V20.3175C526.227 16.642 528.906 14.0447 531.912 14.0447C534.836 14.0447 536.878 15.956 536.878 18.8146V35.9993H540.798V19.6641C540.798 16.4297 542.824 14.0447 546.352 14.0447C549.096 14.0447 551.448 15.4986 551.448 19.2067V35.9993H555.304V19.2067C555.304 13.3097 552.135 10.5817 547.659 10.5817C544.065 10.5817 541.435 12.2315 540.145 14.8288H539.883C538.642 12.1499 536.453 10.5817 533.153 10.5817C529.886 10.5817 527.468 12.1499 526.423 14.8288H526.096V10.9084H522.372V35.9993Z" fill="#2F5A76"/>
<path d="M593.062 16.5277C591.854 12.9666 589.142 10.5817 584.176 10.5817C578.884 10.5817 574.963 13.5874 574.963 17.8345C574.963 21.2976 577.021 23.6172 581.628 24.6953L585.81 25.6754C588.342 26.2635 589.534 27.4723 589.534 29.2038C589.534 31.3601 587.247 33.1243 583.653 33.1243C580.501 33.1243 578.524 31.7685 577.838 29.0732L574.179 29.9879C575.077 34.2514 578.589 36.522 583.719 36.522C589.55 36.522 593.52 33.3367 593.52 29.0078C593.52 25.5121 591.331 23.3068 586.855 22.2124L583.131 21.2976C580.158 20.5625 578.818 19.5661 578.818 17.6385C578.818 15.4822 581.105 13.9141 584.176 13.9141C587.541 13.9141 588.93 15.7763 589.599 17.5078L593.062 16.5277Z" fill="#2F5A76"/>
<path d="M609.516 36.522C615.07 36.522 618.729 33.1243 619.383 28.6811H615.528C614.809 31.4254 612.522 33.059 609.516 33.059C604.942 33.059 602.002 29.2692 602.002 23.4538C602.002 17.7692 605.008 14.0447 609.516 14.0447C612.914 14.0447 614.939 16.1357 615.528 18.4226H619.383C618.729 13.718 614.743 10.5817 609.451 10.5817C602.655 10.5817 598.147 15.9396 598.147 23.5845C598.147 31.0987 602.459 36.522 609.516 36.522Z" fill="#2F5A76"/>
<path d="M625.018 35.9993H628.873V20.1215C628.873 16.7237 631.552 14.2408 635.211 14.2408C636.241 14.2408 637.302 14.4368 637.564 14.5021V10.5817C637.123 10.549 636.11 10.5163 635.538 10.5163C632.532 10.5163 629.919 12.2152 629.004 14.6982H628.743V10.9084H625.018V35.9993Z" fill="#2F5A76"/>
<path d="M649.517 36.5874C653.895 36.5874 656.182 34.2351 656.966 32.6016H657.162V35.9993H661.017V19.468C661.017 11.4964 654.94 10.5817 651.739 10.5817C647.949 10.5817 643.636 11.8885 641.676 16.4624L645.335 17.7692C646.185 15.9396 648.194 13.9794 651.869 13.9794C655.414 13.9794 657.162 15.858 657.162 19.076V19.2067C657.162 21.0689 655.267 20.9055 650.693 21.4936C646.038 22.098 640.957 23.1271 640.957 28.8771C640.957 33.7777 644.747 36.5874 649.517 36.5874ZM650.105 33.1243C647.034 33.1243 644.812 31.7521 644.812 29.0732C644.812 26.1328 647.491 25.218 650.497 24.826C652.131 24.63 656.509 24.1726 657.162 23.3885V26.9169C657.162 30.0533 654.679 33.1243 650.105 33.1243Z" fill="#2F5A76"/>
<path d="M678.965 10.9084H673.607V4.89702H669.752V10.9084H665.963V14.1754H669.752V29.8572C669.752 34.2351 673.281 36.326 676.548 36.326C677.985 36.326 678.9 36.0646 679.423 35.8686L678.639 32.4055C678.312 32.4709 677.789 32.6016 676.94 32.6016C675.241 32.6016 673.607 32.0788 673.607 28.8118V14.1754H678.965V10.9084Z" fill="#2F5A76"/>
<path d="M694.688 36.522C700.242 36.522 703.901 33.1243 704.555 28.6811H700.699C699.981 31.4254 697.694 33.059 694.688 33.059C690.114 33.059 687.174 29.2692 687.174 23.4538C687.174 17.7692 690.18 14.0447 694.688 14.0447C698.086 14.0447 700.111 16.1357 700.699 18.4226H704.555C703.901 13.718 699.915 10.5817 694.623 10.5817C687.827 10.5817 683.319 15.9396 683.319 23.5845C683.319 31.0987 687.631 36.522 694.688 36.522Z" fill="#2F5A76"/>
<path d="M714.045 20.9055C714.045 16.5277 716.839 14.0447 720.645 14.0447C724.271 14.0447 726.46 16.3317 726.46 20.3175V35.9993H730.315V20.0561C730.315 13.6037 726.885 10.5817 721.755 10.5817C717.802 10.5817 715.548 12.2315 714.372 14.8288H714.045V2.54475H710.19V35.9993H714.045V20.9055Z" fill="#2F5A76"/>
<path d="M740.178 36.2607C741.795 36.2607 743.118 34.9375 743.118 33.3203C743.118 31.7031 741.795 30.38 740.178 30.38C738.56 30.38 737.237 31.7031 737.237 33.3203C737.237 34.9375 738.56 36.2607 740.178 36.2607Z" fill="#2F5A76"/>
</svg>
