<svg width="233" height="25" viewBox="0 0 233 25" fill="none" xmlns="http://www.w3.org/2000/svg">
<path d="M13.7568 7.42054H18.4727C18.4046 3.27282 14.9955 0.40918 9.81365 0.40918C4.71138 0.40918 0.972745 3.22736 0.995472 7.45463C0.984109 10.8865 3.40456 12.8524 7.33638 13.7955L9.87047 14.4319C12.4046 15.0455 13.8137 15.7728 13.825 17.341C13.8137 19.0455 12.2 20.2046 9.70002 20.2046C7.1432 20.2046 5.30229 19.0228 5.1432 16.6933H0.381836C0.506836 21.7274 4.10911 24.3296 9.75684 24.3296C15.4387 24.3296 18.7796 21.6137 18.7909 17.3524C18.7796 13.4774 15.8591 11.4205 11.8137 10.5115L9.72275 10.0115C7.70002 9.54554 6.00684 8.79554 6.04093 7.12509C6.04093 5.62509 7.37047 4.52282 9.77956 4.52282C12.1318 4.52282 13.575 5.591 13.7568 7.42054Z" fill="#482475"/>
<path d="M13.7568 7.42054H18.4727C18.4046 3.27282 14.9955 0.40918 9.81365 0.40918C4.71138 0.40918 0.972745 3.22736 0.995472 7.45463C0.984109 10.8865 3.40456 12.8524 7.33638 13.7955L9.87047 14.4319C12.4046 15.0455 13.8137 15.7728 13.825 17.341C13.8137 19.0455 12.2 20.2046 9.70002 20.2046C7.1432 20.2046 5.30229 19.0228 5.1432 16.6933H0.381836C0.506836 21.7274 4.10911 24.3296 9.75684 24.3296C15.4387 24.3296 18.7796 21.6137 18.7909 17.3524C18.7796 13.4774 15.8591 11.4205 11.8137 10.5115L9.72275 10.0115C7.70002 9.54554 6.00684 8.79554 6.04093 7.12509C6.04093 5.62509 7.37047 4.52282 9.77956 4.52282C12.1318 4.52282 13.575 5.591 13.7568 7.42054Z" fill="#2A2B2E"/>
<path d="M29.9642 24.341C34.2824 24.341 37.1915 22.2387 37.8733 19.0001L33.396 18.7046C32.9074 20.0342 31.6574 20.7274 30.0438 20.7274C27.6233 20.7274 26.0892 19.1251 26.0892 16.5228V16.5115H37.9756V15.1819C37.9756 9.25009 34.3847 6.31827 29.771 6.31827C24.6347 6.31827 21.3051 9.966 21.3051 15.3524C21.3051 20.8865 24.5892 24.341 29.9642 24.341ZM26.0892 13.5115C26.1915 11.5228 27.7029 9.93191 29.8506 9.93191C31.9529 9.93191 33.4074 11.4319 33.4188 13.5115H26.0892Z" fill="#482475"/>
<path d="M29.9642 24.341C34.2824 24.341 37.1915 22.2387 37.8733 19.0001L33.396 18.7046C32.9074 20.0342 31.6574 20.7274 30.0438 20.7274C27.6233 20.7274 26.0892 19.1251 26.0892 16.5228V16.5115H37.9756V15.1819C37.9756 9.25009 34.3847 6.31827 29.771 6.31827C24.6347 6.31827 21.3051 9.966 21.3051 15.3524C21.3051 20.8865 24.5892 24.341 29.9642 24.341ZM26.0892 13.5115C26.1915 11.5228 27.7029 9.93191 29.8506 9.93191C31.9529 9.93191 33.4074 11.4319 33.4188 13.5115H26.0892Z" fill="#2A2B2E"/>
<path d="M49.021 24.341C53.6688 24.341 56.5892 21.6137 56.8165 17.6024H52.2483C51.9642 19.466 50.7369 20.5115 49.0779 20.5115C46.8165 20.5115 45.3506 18.6137 45.3506 15.2728C45.3506 11.9774 46.8279 10.091 49.0779 10.091C50.8506 10.091 51.9869 11.2615 52.2483 13.0001H56.8165C56.6119 8.966 53.5551 6.31827 48.9983 6.31827C43.7029 6.31827 40.4301 9.98872 40.4301 15.341C40.4301 20.6478 43.646 24.341 49.021 24.341Z" fill="#482475"/>
<path d="M49.021 24.341C53.6688 24.341 56.5892 21.6137 56.8165 17.6024H52.2483C51.9642 19.466 50.7369 20.5115 49.0779 20.5115C46.8165 20.5115 45.3506 18.6137 45.3506 15.2728C45.3506 11.9774 46.8279 10.091 49.0779 10.091C50.8506 10.091 51.9869 11.2615 52.2483 13.0001H56.8165C56.6119 8.966 53.5551 6.31827 48.9983 6.31827C43.7029 6.31827 40.4301 9.98872 40.4301 15.341C40.4301 20.6478 43.646 24.341 49.021 24.341Z" fill="#2A2B2E"/>
<path d="M59.9159 24.0001H64.7568V14.1251C64.7568 11.9774 66.325 10.5001 68.4614 10.5001C69.1318 10.5001 70.0523 10.6137 70.5068 10.7615V6.466C70.075 6.36373 69.4727 6.29554 68.9841 6.29554C67.0296 6.29554 65.4273 7.43191 64.7909 9.591H64.6091V6.54554H59.9159V24.0001Z" fill="#482475"/>
<path d="M59.9159 24.0001H64.7568V14.1251C64.7568 11.9774 66.325 10.5001 68.4614 10.5001C69.1318 10.5001 70.0523 10.6137 70.5068 10.7615V6.466C70.075 6.36373 69.4727 6.29554 68.9841 6.29554C67.0296 6.29554 65.4273 7.43191 64.7909 9.591H64.6091V6.54554H59.9159V24.0001Z" fill="#2A2B2E"/>
<path d="M80.1517 24.341C84.4699 24.341 87.379 22.2387 88.0608 19.0001L83.5835 18.7046C83.0949 20.0342 81.8449 20.7274 80.2313 20.7274C77.8108 20.7274 76.2767 19.1251 76.2767 16.5228V16.5115H88.1631V15.1819C88.1631 9.25009 84.5722 6.31827 79.9585 6.31827C74.8222 6.31827 71.4926 9.966 71.4926 15.3524C71.4926 20.8865 74.7767 24.341 80.1517 24.341ZM76.2767 13.5115C76.379 11.5228 77.8904 9.93191 80.0381 9.93191C82.1404 9.93191 83.5949 11.4319 83.6063 13.5115H76.2767Z" fill="#482475"/>
<path d="M80.1517 24.341C84.4699 24.341 87.379 22.2387 88.0608 19.0001L83.5835 18.7046C83.0949 20.0342 81.8449 20.7274 80.2313 20.7274C77.8108 20.7274 76.2767 19.1251 76.2767 16.5228V16.5115H88.1631V15.1819C88.1631 9.25009 84.5722 6.31827 79.9585 6.31827C74.8222 6.31827 71.4926 9.966 71.4926 15.3524C71.4926 20.8865 74.7767 24.341 80.1517 24.341ZM76.2767 13.5115C76.379 11.5228 77.8904 9.93191 80.0381 9.93191C82.1404 9.93191 83.5949 11.4319 83.6063 13.5115H76.2767Z" fill="#2A2B2E"/>
<path d="M100.606 6.54554H97.3222V2.36373H92.4813V6.54554H90.0949V10.1819H92.4813V19.2728C92.4585 22.6933 94.7881 24.3865 98.2994 24.2387C99.5494 24.1933 100.436 23.9433 100.924 23.7842L100.163 20.1819C99.9244 20.2274 99.4131 20.341 98.9585 20.341C97.9926 20.341 97.3222 19.9774 97.3222 18.6365V10.1819H100.606V6.54554Z" fill="#482475"/>
<path d="M100.606 6.54554H97.3222V2.36373H92.4813V6.54554H90.0949V10.1819H92.4813V19.2728C92.4585 22.6933 94.7881 24.3865 98.2994 24.2387C99.5494 24.1933 100.436 23.9433 100.924 23.7842L100.163 20.1819C99.9244 20.2274 99.4131 20.341 98.9585 20.341C97.9926 20.341 97.3222 19.9774 97.3222 18.6365V10.1819H100.606V6.54554Z" fill="#2A2B2E"/>
<path d="M126.689 8.25009H131.689C131.052 3.64782 126.995 0.40918 121.734 0.40918C115.586 0.40918 110.848 4.841 110.848 12.3865C110.848 19.7501 115.28 24.3183 121.836 24.3183C127.711 24.3183 131.905 20.6024 131.905 14.4774V11.5455H122.166V15.2501H127.166C127.098 18.1365 125.132 19.966 121.859 19.966C118.166 19.966 115.836 17.2046 115.836 12.341C115.836 7.50009 118.257 4.76145 121.814 4.76145C124.348 4.76145 126.064 6.06827 126.689 8.25009Z" fill="#482475"/>
<path d="M126.689 8.25009H131.689C131.052 3.64782 126.995 0.40918 121.734 0.40918C115.586 0.40918 110.848 4.841 110.848 12.3865C110.848 19.7501 115.28 24.3183 121.836 24.3183C127.711 24.3183 131.905 20.6024 131.905 14.4774V11.5455H122.166V15.2501H127.166C127.098 18.1365 125.132 19.966 121.859 19.966C118.166 19.966 115.836 17.2046 115.836 12.341C115.836 7.50009 118.257 4.76145 121.814 4.76145C124.348 4.76145 126.064 6.06827 126.689 8.25009Z" fill="#2A2B2E"/>
<path d="M140.351 0.727362H135.51V24.0001H140.351V0.727362Z" fill="#482475"/>
<path d="M140.351 0.727362H135.51V24.0001H140.351V0.727362Z" fill="#2A2B2E"/>
<path d="M149.206 24.3296C151.785 24.3296 153.456 23.2046 154.308 21.5796H154.444V24.0001H159.035V12.2274C159.035 8.06827 155.513 6.31827 151.626 6.31827C147.444 6.31827 144.694 8.31827 144.024 11.5001L148.501 11.8637C148.831 10.7046 149.865 9.85236 151.603 9.85236C153.251 9.85236 154.194 10.6819 154.194 12.1137V12.1819C154.194 13.3069 153.001 13.4546 149.967 13.7501C146.513 14.0683 143.41 15.2274 143.41 19.1251C143.41 22.5796 145.876 24.3296 149.206 24.3296ZM150.592 20.9887C149.103 20.9887 148.035 20.2955 148.035 18.966C148.035 17.6024 149.16 16.9319 150.865 16.6933C151.922 16.5455 153.649 16.2955 154.228 15.9092V17.7615C154.228 19.591 152.717 20.9887 150.592 20.9887Z" fill="#482475"/>
<path d="M149.206 24.3296C151.785 24.3296 153.456 23.2046 154.308 21.5796H154.444V24.0001H159.035V12.2274C159.035 8.06827 155.513 6.31827 151.626 6.31827C147.444 6.31827 144.694 8.31827 144.024 11.5001L148.501 11.8637C148.831 10.7046 149.865 9.85236 151.603 9.85236C153.251 9.85236 154.194 10.6819 154.194 12.1137V12.1819C154.194 13.3069 153.001 13.4546 149.967 13.7501C146.513 14.0683 143.41 15.2274 143.41 19.1251C143.41 22.5796 145.876 24.3296 149.206 24.3296ZM150.592 20.9887C149.103 20.9887 148.035 20.2955 148.035 18.966C148.035 17.6024 149.16 16.9319 150.865 16.6933C151.922 16.5455 153.649 16.2955 154.228 15.9092V17.7615C154.228 19.591 152.717 20.9887 150.592 20.9887Z" fill="#2A2B2E"/>
<path d="M177.314 11.5228C176.882 8.30691 174.291 6.31827 169.882 6.31827C165.416 6.31827 162.473 8.38645 162.484 11.7501C162.473 14.3637 164.12 16.0569 167.53 16.7387L170.552 17.341C172.075 17.6478 172.768 18.2046 172.791 19.0796C172.768 20.1137 171.643 20.8524 169.95 20.8524C168.223 20.8524 167.075 20.1137 166.78 18.6933L162.018 18.9433C162.473 22.2842 165.314 24.341 169.939 24.341C174.461 24.341 177.7 22.0342 177.711 18.591C177.7 16.0683 176.052 14.5569 172.666 13.8637L169.507 13.2274C167.882 12.8751 167.28 12.3183 167.291 11.4774C167.28 10.4319 168.461 9.75009 169.961 9.75009C171.643 9.75009 172.643 10.6705 172.882 11.7955L177.314 11.5228Z" fill="#482475"/>
<path d="M177.314 11.5228C176.882 8.30691 174.291 6.31827 169.882 6.31827C165.416 6.31827 162.473 8.38645 162.484 11.7501C162.473 14.3637 164.12 16.0569 167.53 16.7387L170.552 17.341C172.075 17.6478 172.768 18.2046 172.791 19.0796C172.768 20.1137 171.643 20.8524 169.95 20.8524C168.223 20.8524 167.075 20.1137 166.78 18.6933L162.018 18.9433C162.473 22.2842 165.314 24.341 169.939 24.341C174.461 24.341 177.7 22.0342 177.711 18.591C177.7 16.0683 176.052 14.5569 172.666 13.8637L169.507 13.2274C167.882 12.8751 167.28 12.3183 167.291 11.4774C167.28 10.4319 168.461 9.75009 169.961 9.75009C171.643 9.75009 172.643 10.6705 172.882 11.7955L177.314 11.5228Z" fill="#2A2B2E"/>
<path d="M195.282 11.5228C194.851 8.30691 192.26 6.31827 187.851 6.31827C183.385 6.31827 180.442 8.38645 180.453 11.7501C180.442 14.3637 182.089 16.0569 185.498 16.7387L188.521 17.341C190.044 17.6478 190.737 18.2046 190.76 19.0796C190.737 20.1137 189.612 20.8524 187.919 20.8524C186.192 20.8524 185.044 20.1137 184.748 18.6933L179.987 18.9433C180.441 22.2842 183.282 24.341 187.907 24.341C192.43 24.341 195.669 22.0342 195.68 18.591C195.669 16.0683 194.021 14.5569 190.635 13.8637L187.476 13.2274C185.851 12.8751 185.248 12.3183 185.26 11.4774C185.248 10.4319 186.43 9.75009 187.93 9.75009C189.612 9.75009 190.612 10.6705 190.851 11.7955L195.282 11.5228Z" fill="#482475"/>
<path d="M195.282 11.5228C194.851 8.30691 192.26 6.31827 187.851 6.31827C183.385 6.31827 180.442 8.38645 180.453 11.7501C180.442 14.3637 182.089 16.0569 185.498 16.7387L188.521 17.341C190.044 17.6478 190.737 18.2046 190.76 19.0796C190.737 20.1137 189.612 20.8524 187.919 20.8524C186.192 20.8524 185.044 20.1137 184.748 18.6933L179.987 18.9433C180.441 22.2842 183.282 24.341 187.907 24.341C192.43 24.341 195.669 22.0342 195.68 18.591C195.669 16.0683 194.021 14.5569 190.635 13.8637L187.476 13.2274C185.851 12.8751 185.248 12.3183 185.26 11.4774C185.248 10.4319 186.43 9.75009 187.93 9.75009C189.612 9.75009 190.612 10.6705 190.851 11.7955L195.282 11.5228Z" fill="#2A2B2E"/>
<path d="M206.683 24.341C211.001 24.341 213.91 22.2387 214.592 19.0001L210.115 18.7046C209.626 20.0342 208.376 20.7274 206.763 20.7274C204.342 20.7274 202.808 19.1251 202.808 16.5228V16.5115H214.694V15.1819C214.694 9.25009 211.103 6.31827 206.49 6.31827C201.353 6.31827 198.024 9.966 198.024 15.3524C198.024 20.8865 201.308 24.341 206.683 24.341ZM202.808 13.5115C202.91 11.5228 204.422 9.93191 206.569 9.93191C208.672 9.93191 210.126 11.4319 210.138 13.5115H202.808Z" fill="#482475"/>
<path d="M206.683 24.341C211.001 24.341 213.91 22.2387 214.592 19.0001L210.115 18.7046C209.626 20.0342 208.376 20.7274 206.763 20.7274C204.342 20.7274 202.808 19.1251 202.808 16.5228V16.5115H214.694V15.1819C214.694 9.25009 211.103 6.31827 206.49 6.31827C201.353 6.31827 198.024 9.966 198.024 15.3524C198.024 20.8865 201.308 24.341 206.683 24.341ZM202.808 13.5115C202.91 11.5228 204.422 9.93191 206.569 9.93191C208.672 9.93191 210.126 11.4319 210.138 13.5115H202.808Z" fill="#2A2B2E"/>
<path d="M232.376 11.5228C231.944 8.30691 229.353 6.31827 224.944 6.31827C220.478 6.31827 217.535 8.38645 217.547 11.7501C217.535 14.3637 219.183 16.0569 222.592 16.7387L225.615 17.341C227.138 17.6478 227.831 18.2046 227.853 19.0796C227.831 20.1137 226.706 20.8524 225.013 20.8524C223.285 20.8524 222.138 20.1137 221.842 18.6933L217.081 18.9433C217.535 22.2842 220.376 24.341 225.001 24.341C229.524 24.341 232.763 22.0342 232.774 18.591C232.763 16.0683 231.115 14.5569 227.728 13.8637L224.569 13.2274C222.944 12.8751 222.342 12.3183 222.353 11.4774C222.342 10.4319 223.524 9.75009 225.024 9.75009C226.706 9.75009 227.706 10.6705 227.944 11.7955L232.376 11.5228Z" fill="#482475"/>
<path d="M232.376 11.5228C231.944 8.30691 229.353 6.31827 224.944 6.31827C220.478 6.31827 217.535 8.38645 217.547 11.7501C217.535 14.3637 219.183 16.0569 222.592 16.7387L225.615 17.341C227.138 17.6478 227.831 18.2046 227.853 19.0796C227.831 20.1137 226.706 20.8524 225.013 20.8524C223.285 20.8524 222.138 20.1137 221.842 18.6933L217.081 18.9433C217.535 22.2842 220.376 24.341 225.001 24.341C229.524 24.341 232.763 22.0342 232.774 18.591C232.763 16.0683 231.115 14.5569 227.728 13.8637L224.569 13.2274C222.944 12.8751 222.342 12.3183 222.353 11.4774C222.342 10.4319 223.524 9.75009 225.024 9.75009C226.706 9.75009 227.706 10.6705 227.944 11.7955L232.376 11.5228Z" fill="#2A2B2E"/>
</svg>
