<svg width="176" height="39" viewBox="0 0 176 39" fill="none" xmlns="http://www.w3.org/2000/svg">
<path d="M26.2503 11.0941C25.4406 4.37536 20.3554 0.511719 13.6224 0.511719C5.93777 0.511719 0.0712891 5.93786 0.0712891 15.4549C0.0712891 24.9435 5.83833 30.3981 13.6224 30.3981C21.0798 30.3981 25.5827 25.4407 26.2503 20.0856L20.0287 20.0572C19.4463 23.168 17.0031 24.9577 13.7219 24.9577C9.30424 24.9577 6.30708 21.6765 6.30708 15.4549C6.30708 9.40376 9.26163 5.95206 13.7645 5.95206C17.1309 5.95206 19.5599 7.89808 20.0287 11.0941H26.2503Z" fill="#482475"/>
<path d="M26.2503 11.0941C25.4406 4.37536 20.3554 0.511719 13.6224 0.511719C5.93777 0.511719 0.0712891 5.93786 0.0712891 15.4549C0.0712891 24.9435 5.83833 30.3981 13.6224 30.3981C21.0798 30.3981 25.5827 25.4407 26.2503 20.0856L20.0287 20.0572C19.4463 23.168 17.0031 24.9577 13.7219 24.9577C9.30424 24.9577 6.30708 21.6765 6.30708 15.4549C6.30708 9.40376 9.26163 5.95206 13.7645 5.95206C17.1309 5.95206 19.5599 7.89808 20.0287 11.0941H26.2503Z" fill="#1C3C52"/>
<path d="M40.4091 30.4265C47.0284 30.4265 51.1477 25.8952 51.1477 19.1765C51.1477 12.4151 47.0284 7.89808 40.4091 7.89808C33.7898 7.89808 29.6705 12.4151 29.6705 19.1765C29.6705 25.8952 33.7898 30.4265 40.4091 30.4265ZM40.4375 25.739C37.3835 25.739 35.821 22.9407 35.821 19.1339C35.821 15.3271 37.3835 12.5146 40.4375 12.5146C43.4347 12.5146 44.9972 15.3271 44.9972 19.1339C44.9972 22.9407 43.4347 25.739 40.4375 25.739Z" fill="#482475"/>
<path d="M40.4091 30.4265C47.0284 30.4265 51.1477 25.8952 51.1477 19.1765C51.1477 12.4151 47.0284 7.89808 40.4091 7.89808C33.7898 7.89808 29.6705 12.4151 29.6705 19.1765C29.6705 25.8952 33.7898 30.4265 40.4091 30.4265ZM40.4375 25.739C37.3835 25.739 35.821 22.9407 35.821 19.1339C35.821 15.3271 37.3835 12.5146 40.4375 12.5146C43.4347 12.5146 44.9972 15.3271 44.9972 19.1339C44.9972 22.9407 43.4347 25.739 40.4375 25.739Z" fill="#1C3C52"/>
<path d="M55.0864 30.0004H61.1375V16.9038C61.1375 14.489 62.6716 12.8839 64.6887 12.8839C66.6773 12.8839 68.0125 14.2475 68.0125 16.3924V30.0004H73.879V16.6765C73.879 14.418 75.1716 12.8839 77.3733 12.8839C79.3051 12.8839 80.754 14.0913 80.754 16.5202V30.0004H86.7909V15.3271C86.7909 10.5969 83.9784 7.89808 79.9159 7.89808C76.7199 7.89808 74.2341 9.53161 73.3392 12.0316H73.112C72.4159 9.5032 70.1858 7.89808 67.1887 7.89808C64.2483 7.89808 62.0182 9.46058 61.1091 12.0316H60.8534V8.18217H55.0864V30.0004Z" fill="#482475"/>
<path d="M55.0864 30.0004H61.1375V16.9038C61.1375 14.489 62.6716 12.8839 64.6887 12.8839C66.6773 12.8839 68.0125 14.2475 68.0125 16.3924V30.0004H73.879V16.6765C73.879 14.418 75.1716 12.8839 77.3733 12.8839C79.3051 12.8839 80.754 14.0913 80.754 16.5202V30.0004H86.7909V15.3271C86.7909 10.5969 83.9784 7.89808 79.9159 7.89808C76.7199 7.89808 74.2341 9.53161 73.3392 12.0316H73.112C72.4159 9.5032 70.1858 7.89808 67.1887 7.89808C64.2483 7.89808 62.0182 9.46058 61.1091 12.0316H60.8534V8.18217H55.0864V30.0004Z" fill="#1C3C52"/>
<path d="M91.5748 38.1822H97.6259V26.506H97.8106C98.6486 28.3242 100.481 30.3555 104.004 30.3555C108.975 30.3555 112.853 26.4208 112.853 19.1197C112.853 11.6197 108.805 7.89808 104.018 7.89808C100.367 7.89808 98.6202 10.0714 97.8106 11.8469H97.5407V8.18217H91.5748V38.1822ZM97.4981 19.0913C97.4981 15.1992 99.1458 12.7134 102.086 12.7134C105.083 12.7134 106.674 15.3129 106.674 19.0913C106.674 22.8981 105.055 25.5401 102.086 25.5401C99.1742 25.5401 97.4981 22.9833 97.4981 19.0913Z" fill="#482475"/>
<path d="M91.5748 38.1822H97.6259V26.506H97.8106C98.6486 28.3242 100.481 30.3555 104.004 30.3555C108.975 30.3555 112.853 26.4208 112.853 19.1197C112.853 11.6197 108.805 7.89808 104.018 7.89808C100.367 7.89808 98.6202 10.0714 97.8106 11.8469H97.5407V8.18217H91.5748V38.1822ZM97.4981 19.0913C97.4981 15.1992 99.1458 12.7134 102.086 12.7134C105.083 12.7134 106.674 15.3129 106.674 19.0913C106.674 22.8981 105.055 25.5401 102.086 25.5401C99.1742 25.5401 97.4981 22.9833 97.4981 19.0913Z" fill="#1C3C52"/>
<path d="M123.113 30.4123C126.337 30.4123 128.425 29.006 129.491 26.9748H129.661V30.0004H135.4V15.2844C135.4 10.0856 130.996 7.89808 126.138 7.89808C120.911 7.89808 117.474 10.3981 116.636 14.3754L122.232 14.8299C122.644 13.381 123.937 12.3157 126.11 12.3157C128.17 12.3157 129.349 13.3526 129.349 15.1424V15.2276C129.349 16.6339 127.857 16.8185 124.065 17.1879C119.746 17.5856 115.869 19.0344 115.869 23.9066C115.869 28.2248 118.951 30.4123 123.113 30.4123ZM124.846 26.2362C122.985 26.2362 121.65 25.3697 121.65 23.7077C121.65 22.0032 123.056 21.1651 125.187 20.8668C126.508 20.6822 128.667 20.3697 129.391 19.8867V22.2021C129.391 24.489 127.502 26.2362 124.846 26.2362Z" fill="#482475"/>
<path d="M123.113 30.4123C126.337 30.4123 128.425 29.006 129.491 26.9748H129.661V30.0004H135.4V15.2844C135.4 10.0856 130.996 7.89808 126.138 7.89808C120.911 7.89808 117.474 10.3981 116.636 14.3754L122.232 14.8299C122.644 13.381 123.937 12.3157 126.11 12.3157C128.17 12.3157 129.349 13.3526 129.349 15.1424V15.2276C129.349 16.6339 127.857 16.8185 124.065 17.1879C119.746 17.5856 115.869 19.0344 115.869 23.9066C115.869 28.2248 118.951 30.4123 123.113 30.4123ZM124.846 26.2362C122.985 26.2362 121.65 25.3697 121.65 23.7077C121.65 22.0032 123.056 21.1651 125.187 20.8668C126.508 20.6822 128.667 20.3697 129.391 19.8867V22.2021C129.391 24.489 127.502 26.2362 124.846 26.2362Z" fill="#1C3C52"/>
<path d="M140.098 30.0004H146.15V17.6566C146.15 14.9719 148.11 13.1254 150.78 13.1254C151.618 13.1254 152.769 13.2674 153.337 13.4521V8.08274C152.797 7.9549 152.044 7.86967 151.434 7.86967C148.99 7.86967 146.988 9.29013 146.192 11.989H145.965V8.18217H140.098V30.0004Z" fill="#482475"/>
<path d="M140.098 30.0004H146.15V17.6566C146.15 14.9719 148.11 13.1254 150.78 13.1254C151.618 13.1254 152.769 13.2674 153.337 13.4521V8.08274C152.797 7.9549 152.044 7.86967 151.434 7.86967C148.99 7.86967 146.988 9.29013 146.192 11.989H145.965V8.18217H140.098V30.0004Z" fill="#1C3C52"/>
<path d="M165.397 30.4265C170.795 30.4265 174.431 27.7987 175.283 23.7504L169.687 23.381C169.076 25.043 167.514 25.9094 165.497 25.9094C162.471 25.9094 160.553 23.9066 160.553 20.6538V20.6396H175.411V18.9776C175.411 11.5629 170.923 7.89808 165.156 7.89808C158.735 7.89808 154.573 12.4577 154.573 19.1907C154.573 26.1083 158.678 30.4265 165.397 30.4265ZM160.553 16.8896C160.681 14.4038 162.57 12.4151 165.255 12.4151C167.883 12.4151 169.701 14.2901 169.715 16.8896H160.553Z" fill="#482475"/>
<path d="M165.397 30.4265C170.795 30.4265 174.431 27.7987 175.283 23.7504L169.687 23.381C169.076 25.043 167.514 25.9094 165.497 25.9094C162.471 25.9094 160.553 23.9066 160.553 20.6538V20.6396H175.411V18.9776C175.411 11.5629 170.923 7.89808 165.156 7.89808C158.735 7.89808 154.573 12.4577 154.573 19.1907C154.573 26.1083 158.678 30.4265 165.397 30.4265ZM160.553 16.8896C160.681 14.4038 162.57 12.4151 165.255 12.4151C167.883 12.4151 169.701 14.2901 169.715 16.8896H160.553Z" fill="#1C3C52"/>
</svg>
