<svg width="356" height="76" viewBox="0 0 356 76" fill="none" xmlns="http://www.w3.org/2000/svg">
<path d="M53.6611 21.8984C52.2407 7.97798 41.8714 0.0234375 27.8089 0.0234375C12.2975 0.0234375 0.223633 10.6768 0.223633 29.9098C0.223633 49.0575 12.0134 59.7962 27.8089 59.7962C43.7748 59.7962 52.61 48.9439 53.6611 38.6314L39.4566 38.5462C38.4623 44.1428 34.2577 47.4666 28.093 47.4666C19.7975 47.4666 14.5702 41.4723 14.5702 29.9098C14.5702 18.8018 19.6839 12.353 28.1782 12.353C34.5702 12.353 38.7464 16.0746 39.4566 21.8984H53.6611Z" fill="#1C3C52"/>
<path d="M82.0773 59.8246C95.7989 59.8246 104.123 50.7621 104.123 37.3246C104.123 23.8587 95.7989 14.7962 82.0773 14.7962C68.3557 14.7962 60.0319 23.8587 60.0319 37.3246C60.0319 50.7621 68.3557 59.8246 82.0773 59.8246ZM82.1626 49.3416C77.0205 49.3416 74.1796 44.4553 74.1796 37.2393C74.1796 29.995 77.0205 25.0803 82.1626 25.0803C87.1341 25.0803 89.9751 29.995 89.9751 37.2393C89.9751 44.4553 87.1341 49.3416 82.1626 49.3416Z" fill="#1C3C52"/>
<path d="M111.239 59.0007H125.131V33.1768C125.131 28.8587 127.66 26.103 131.296 26.103C134.904 26.103 137.29 28.6314 137.29 32.6655V59.0007H150.643V32.9496C150.643 28.7734 152.944 26.103 156.779 26.103C160.302 26.103 162.802 28.4609 162.802 32.8075V59.0007H176.694V29.6257C176.694 20.3928 171.012 14.7962 162.773 14.7962C156.324 14.7962 151.239 18.1768 149.62 23.3757H149.165C148.001 18.1484 143.313 14.7962 137.262 14.7962C131.296 14.7962 126.751 18.0632 124.932 23.3757H124.449V15.3643H111.239V59.0007Z" fill="#1C3C52"/>
<path d="M185.302 75.3643H199.194V51.9269H199.478C201.239 55.9609 205.16 59.6257 211.751 59.6257C221.41 59.6257 229.194 52.0689 229.194 37.2109C229.194 21.8132 220.955 14.7962 211.836 14.7962C204.932 14.7962 201.154 18.8303 199.478 22.8359H199.052V15.3643H185.302V75.3643ZM198.91 37.1825C198.91 30.0518 201.864 25.6484 206.949 25.6484C212.092 25.6484 214.932 30.1655 214.932 37.1825C214.932 44.228 212.092 48.8019 206.949 48.8019C201.864 48.8019 198.91 44.2564 198.91 37.1825Z" fill="#1C3C52"/>
<path d="M248.775 59.7394C254.854 59.7394 259.059 57.3814 261.445 52.9212H261.786V59.0007H274.854V29.3416C274.854 20.1087 266.644 14.7962 255.536 14.7962C243.803 14.7962 237.155 20.7053 236.048 28.6598L248.86 29.1143C249.457 26.3303 251.758 24.6257 255.422 24.6257C258.832 24.6257 260.991 26.2734 260.991 29.1996V29.3416C260.991 32.0121 258.093 32.5803 250.65 33.2337C241.815 33.9723 234.428 37.2393 234.428 46.8984C234.428 55.5348 240.422 59.7394 248.775 59.7394ZM253.065 50.6484C249.854 50.6484 247.582 49.1144 247.582 46.2166C247.582 43.4041 249.798 41.6996 253.746 41.103C256.332 40.7337 259.513 40.1655 261.076 39.3416V43.4894C261.076 47.7507 257.496 50.6484 253.065 50.6484Z" fill="#1C3C52"/>
<path d="M283.349 59.0007H297.241V35.3075C297.241 30.1087 300.934 26.6143 305.905 26.6143C307.553 26.6143 310.025 26.8984 311.36 27.353V15.2791C310.195 14.9666 308.746 14.7678 307.468 14.7678C302.695 14.7678 298.888 17.5518 297.297 23.3189H296.843V15.3643H283.349V59.0007Z" fill="#1C3C52"/>
<path d="M335.153 59.8246C346.601 59.8246 354.13 54.2848 355.721 45.7053L342.965 45.3359C341.886 48.2337 339.045 49.7962 335.408 49.7962C330.067 49.7962 326.772 46.245 326.772 40.9041V40.5348H355.863V37.0689C355.863 22.6939 347.113 14.7962 334.726 14.7962C321.545 14.7962 313.079 23.8303 313.079 37.353C313.079 51.3303 321.431 59.8246 335.153 59.8246ZM326.772 32.4666C326.971 28.12 330.408 24.8246 335.011 24.8246C339.584 24.8246 342.88 28.0064 342.937 32.4666H326.772Z" fill="#1C3C52"/>
</svg>
