<svg width="191" height="58" viewBox="0 0 191 58" fill="none" xmlns="http://www.w3.org/2000/svg">
<path d="M12.9727 0H11.0664V12.5938H10.9102L2.16016 0H0.285156V16H2.22266V3.4375H2.37891L11.0977 16H12.9727V0Z" fill="#482475"/>
<path d="M12.9727 0H11.0664V12.5938H10.9102L2.16016 0H0.285156V16H2.22266V3.4375H2.37891L11.0977 16H12.9727V0Z" fill="#2D53A5"/>
<path d="M21.6309 16.25C24.0684 16.25 25.8496 15.0312 26.4121 13.2188L24.6309 12.7188C24.1621 13.9688 23.0762 14.5938 21.6309 14.5938C19.4668 14.5938 17.9746 13.1953 17.8887 10.625H26.5996V9.84375C26.5996 5.375 23.9434 3.84375 21.4434 3.84375C18.1934 3.84375 16.0371 6.40625 16.0371 10.0938C16.0371 13.7812 18.1621 16.25 21.6309 16.25ZM17.8887 9.03125C18.0137 7.16406 19.334 5.5 21.4434 5.5C23.4434 5.5 24.7246 7 24.7246 9.03125H17.8887Z" fill="#482475"/>
<path d="M21.6309 16.25C24.0684 16.25 25.8496 15.0312 26.4121 13.2188L24.6309 12.7188C24.1621 13.9688 23.0762 14.5938 21.6309 14.5938C19.4668 14.5938 17.9746 13.1953 17.8887 10.625H26.5996V9.84375C26.5996 5.375 23.9434 3.84375 21.4434 3.84375C18.1934 3.84375 16.0371 6.40625 16.0371 10.0938C16.0371 13.7812 18.1621 16.25 21.6309 16.25ZM17.8887 9.03125C18.0137 7.16406 19.334 5.5 21.4434 5.5C23.4434 5.5 24.7246 7 24.7246 9.03125H17.8887Z" fill="#2D53A5"/>
<path d="M32.123 16H33.9355L36.5605 6.78125H36.748L39.373 16H41.1855L44.8418 4H42.9043L40.3105 13.1562H40.1855L37.6543 4H35.6855L33.123 13.1875H32.998L30.4043 4H28.4668L32.123 16Z" fill="#482475"/>
<path d="M32.123 16H33.9355L36.5605 6.78125H36.748L39.373 16H41.1855L44.8418 4H42.9043L40.3105 13.1562H40.1855L37.6543 4H35.6855L33.123 13.1875H32.998L30.4043 4H28.4668L32.123 16Z" fill="#2D53A5"/>
<path d="M58.3418 16.25C60.998 16.25 62.748 14.625 63.0605 12.5H61.2168C60.873 13.8125 59.7793 14.5938 58.3418 14.5938C56.1543 14.5938 54.748 12.7812 54.748 10C54.748 7.28125 56.1855 5.5 58.3418 5.5C59.9668 5.5 60.9355 6.5 61.2168 7.59375H63.0605C62.748 5.34375 60.8418 3.84375 58.3105 3.84375C55.0605 3.84375 52.9043 6.40625 52.9043 10.0625C52.9043 13.6562 54.9668 16.25 58.3418 16.25Z" fill="#482475"/>
<path d="M58.3418 16.25C60.998 16.25 62.748 14.625 63.0605 12.5H61.2168C60.873 13.8125 59.7793 14.5938 58.3418 14.5938C56.1543 14.5938 54.748 12.7812 54.748 10C54.748 7.28125 56.1855 5.5 58.3418 5.5C59.9668 5.5 60.9355 6.5 61.2168 7.59375H63.0605C62.748 5.34375 60.8418 3.84375 58.3105 3.84375C55.0605 3.84375 52.9043 6.40625 52.9043 10.0625C52.9043 13.6562 54.9668 16.25 58.3418 16.25Z" fill="#2D53A5"/>
<path d="M67.5996 8.78125C67.5996 6.6875 68.9355 5.5 70.7559 5.5C72.4902 5.5 73.5371 6.59375 73.5371 8.5V16H75.3809V8.375C75.3809 5.28906 73.7402 3.84375 71.2871 3.84375C69.3965 3.84375 68.3184 4.63281 67.7559 5.875H67.5996V0H65.7559V16H67.5996V8.78125Z" fill="#482475"/>
<path d="M67.5996 8.78125C67.5996 6.6875 68.9355 5.5 70.7559 5.5C72.4902 5.5 73.5371 6.59375 73.5371 8.5V16H75.3809V8.375C75.3809 5.28906 73.7402 3.84375 71.2871 3.84375C69.3965 3.84375 68.3184 4.63281 67.7559 5.875H67.5996V0H65.7559V16H67.5996V8.78125Z" fill="#2D53A5"/>
<path d="M83.7852 16.25C86.2227 16.25 88.0039 15.0312 88.5664 13.2188L86.7852 12.7188C86.3164 13.9688 85.2305 14.5938 83.7852 14.5938C81.6211 14.5938 80.1289 13.1953 80.043 10.625H88.7539V9.84375C88.7539 5.375 86.0977 3.84375 83.5977 3.84375C80.3477 3.84375 78.1914 6.40625 78.1914 10.0938C78.1914 13.7812 80.3164 16.25 83.7852 16.25ZM80.043 9.03125C80.168 7.16406 81.4883 5.5 83.5977 5.5C85.5977 5.5 86.8789 7 86.8789 9.03125H80.043Z" fill="#482475"/>
<path d="M83.7852 16.25C86.2227 16.25 88.0039 15.0312 88.5664 13.2188L86.7852 12.7188C86.3164 13.9688 85.2305 14.5938 83.7852 14.5938C81.6211 14.5938 80.1289 13.1953 80.043 10.625H88.7539V9.84375C88.7539 5.375 86.0977 3.84375 83.5977 3.84375C80.3477 3.84375 78.1914 6.40625 78.1914 10.0938C78.1914 13.7812 80.3164 16.25 83.7852 16.25ZM80.043 9.03125C80.168 7.16406 81.4883 5.5 83.5977 5.5C85.5977 5.5 86.8789 7 86.8789 9.03125H80.043Z" fill="#2D53A5"/>
<path d="M96.4336 16.25C99.0898 16.25 100.84 14.625 101.152 12.5H99.3086C98.9648 13.8125 97.8711 14.5938 96.4336 14.5938C94.2461 14.5938 92.8398 12.7812 92.8398 10C92.8398 7.28125 94.2773 5.5 96.4336 5.5C98.0586 5.5 99.0273 6.5 99.3086 7.59375H101.152C100.84 5.34375 98.9336 3.84375 96.4023 3.84375C93.1523 3.84375 90.9961 6.40625 90.9961 10.0625C90.9961 13.6562 93.0586 16.25 96.4336 16.25Z" fill="#482475"/>
<path d="M96.4336 16.25C99.0898 16.25 100.84 14.625 101.152 12.5H99.3086C98.9648 13.8125 97.8711 14.5938 96.4336 14.5938C94.2461 14.5938 92.8398 12.7812 92.8398 10C92.8398 7.28125 94.2773 5.5 96.4336 5.5C98.0586 5.5 99.0273 6.5 99.3086 7.59375H101.152C100.84 5.34375 98.9336 3.84375 96.4023 3.84375C93.1523 3.84375 90.9961 6.40625 90.9961 10.0625C90.9961 13.6562 93.0586 16.25 96.4336 16.25Z" fill="#2D53A5"/>
<path d="M103.848 16H105.691V11.5078L106.98 10.3125L111.473 16H113.816L108.371 9.125L113.441 4H111.16L105.91 9.34375H105.691V0H103.848V16Z" fill="#482475"/>
<path d="M103.848 16H105.691V11.5078L106.98 10.3125L111.473 16H113.816L108.371 9.125L113.441 4H111.16L105.91 9.34375H105.691V0H103.848V16Z" fill="#2D53A5"/>
<path d="M120.195 16.25C123.445 16.25 125.633 13.7812 125.633 10.0625C125.633 6.3125 123.445 3.84375 120.195 3.84375C116.945 3.84375 114.758 6.3125 114.758 10.0625C114.758 13.7812 116.945 16.25 120.195 16.25ZM120.195 14.5938C117.727 14.5938 116.602 12.4688 116.602 10.0625C116.602 7.65625 117.727 5.5 120.195 5.5C122.664 5.5 123.789 7.65625 123.789 10.0625C123.789 12.4688 122.664 14.5938 120.195 14.5938Z" fill="#482475"/>
<path d="M120.195 16.25C123.445 16.25 125.633 13.7812 125.633 10.0625C125.633 6.3125 123.445 3.84375 120.195 3.84375C116.945 3.84375 114.758 6.3125 114.758 10.0625C114.758 13.7812 116.945 16.25 120.195 16.25ZM120.195 14.5938C117.727 14.5938 116.602 12.4688 116.602 10.0625C116.602 7.65625 117.727 5.5 120.195 5.5C122.664 5.5 123.789 7.65625 123.789 10.0625C123.789 12.4688 122.664 14.5938 120.195 14.5938Z" fill="#2D53A5"/>
<path d="M136.01 11.0938C136.01 13.3438 134.291 14.375 132.916 14.375C131.385 14.375 130.291 13.25 130.291 11.5V4H128.447V11.625C128.447 14.6875 130.072 16.1562 132.322 16.1562C134.135 16.1562 135.322 15.1875 135.885 13.9688H136.01V16H137.854V4H136.01V11.0938Z" fill="#482475"/>
<path d="M136.01 11.0938C136.01 13.3438 134.291 14.375 132.916 14.375C131.385 14.375 130.291 13.25 130.291 11.5V4H128.447V11.625C128.447 14.6875 130.072 16.1562 132.322 16.1562C134.135 16.1562 135.322 15.1875 135.885 13.9688H136.01V16H137.854V4H136.01V11.0938Z" fill="#2D53A5"/>
<path d="M146.449 4H143.887V1.125H142.043V4H140.23V5.5625H142.043V13.0625C142.043 15.1562 143.73 16.1562 145.293 16.1562C145.98 16.1562 146.418 16.0312 146.668 15.9375L146.293 14.2812C146.137 14.3125 145.887 14.375 145.48 14.375C144.668 14.375 143.887 14.125 143.887 12.5625V5.5625H146.449V4Z" fill="#482475"/>
<path d="M146.449 4H143.887V1.125H142.043V4H140.23V5.5625H142.043V13.0625C142.043 15.1562 143.73 16.1562 145.293 16.1562C145.98 16.1562 146.418 16.0312 146.668 15.9375L146.293 14.2812C146.137 14.3125 145.887 14.375 145.48 14.375C144.668 14.375 143.887 14.125 143.887 12.5625V5.5625H146.449V4Z" fill="#2D53A5"/>
<path d="M158.941 16.2812C161.035 16.2812 162.129 15.1562 162.504 14.375H162.598V16H164.441V8.09375C164.441 4.28125 161.535 3.84375 160.004 3.84375C158.191 3.84375 156.129 4.46875 155.191 6.65625L156.941 7.28125C157.348 6.40625 158.309 5.46875 160.066 5.46875C161.762 5.46875 162.598 6.36719 162.598 7.90625V7.96875C162.598 8.85938 161.691 8.78125 159.504 9.0625C157.277 9.35156 154.848 9.84375 154.848 12.5938C154.848 14.9375 156.66 16.2812 158.941 16.2812ZM159.223 14.625C157.754 14.625 156.691 13.9688 156.691 12.6875C156.691 11.2812 157.973 10.8438 159.41 10.6562C160.191 10.5625 162.285 10.3438 162.598 9.96875V11.6562C162.598 13.1562 161.41 14.625 159.223 14.625Z" fill="#482475"/>
<path d="M158.941 16.2812C161.035 16.2812 162.129 15.1562 162.504 14.375H162.598V16H164.441V8.09375C164.441 4.28125 161.535 3.84375 160.004 3.84375C158.191 3.84375 156.129 4.46875 155.191 6.65625L156.941 7.28125C157.348 6.40625 158.309 5.46875 160.066 5.46875C161.762 5.46875 162.598 6.36719 162.598 7.90625V7.96875C162.598 8.85938 161.691 8.78125 159.504 9.0625C157.277 9.35156 154.848 9.84375 154.848 12.5938C154.848 14.9375 156.66 16.2812 158.941 16.2812ZM159.223 14.625C157.754 14.625 156.691 13.9688 156.691 12.6875C156.691 11.2812 157.973 10.8438 159.41 10.6562C160.191 10.5625 162.285 10.3438 162.598 9.96875V11.6562C162.598 13.1562 161.41 14.625 159.223 14.625Z" fill="#2D53A5"/>
<path d="M169.65 8.78125C169.65 6.6875 170.947 5.5 172.713 5.5C174.424 5.5 175.463 6.61719 175.463 8.5V16H177.307V8.375C177.307 5.3125 175.674 3.84375 173.244 3.84375C171.432 3.84375 170.307 4.65625 169.744 5.875H169.588V4H167.807V16H169.65V8.78125Z" fill="#482475"/>
<path d="M169.65 8.78125C169.65 6.6875 170.947 5.5 172.713 5.5C174.424 5.5 175.463 6.61719 175.463 8.5V16H177.307V8.375C177.307 5.3125 175.674 3.84375 173.244 3.84375C171.432 3.84375 170.307 4.65625 169.744 5.875H169.588V4H167.807V16H169.65V8.78125Z" fill="#2D53A5"/>
<path d="M185.207 16.25C187.52 16.25 188.301 14.8125 188.707 14.1562H188.926V16H190.707V0H188.863V5.90625H188.707C188.301 5.28125 187.582 3.84375 185.238 3.84375C182.207 3.84375 180.113 6.25 180.113 10.0312C180.113 13.8438 182.207 16.25 185.207 16.25ZM185.457 14.5938C183.145 14.5938 181.957 12.5625 181.957 10C181.957 7.46875 183.113 5.5 185.457 5.5C187.707 5.5 188.895 7.3125 188.895 10C188.895 12.7188 187.676 14.5938 185.457 14.5938Z" fill="#482475"/>
<path d="M185.207 16.25C187.52 16.25 188.301 14.8125 188.707 14.1562H188.926V16H190.707V0H188.863V5.90625H188.707C188.301 5.28125 187.582 3.84375 185.238 3.84375C182.207 3.84375 180.113 6.25 180.113 10.0312C180.113 13.8438 182.207 16.25 185.207 16.25ZM185.457 14.5938C183.145 14.5938 181.957 12.5625 181.957 10C181.957 7.46875 183.113 5.5 185.457 5.5C187.707 5.5 188.895 7.3125 188.895 10C188.895 12.7188 187.676 14.5938 185.457 14.5938Z" fill="#2D53A5"/>
<path d="M13.2246 53.25C15.5371 53.25 16.3184 51.8125 16.7246 51.1562H16.9434V53H18.7246V37H16.8809V42.9062H16.7246C16.3184 42.2812 15.5996 40.8438 13.2559 40.8438C10.2246 40.8438 8.13086 43.25 8.13086 47.0312C8.13086 50.8438 10.2246 53.25 13.2246 53.25ZM13.4746 51.5938C11.1621 51.5938 9.97461 49.5625 9.97461 47C9.97461 44.4688 11.1309 42.5 13.4746 42.5C15.7246 42.5 16.9121 44.3125 16.9121 47C16.9121 49.7188 15.6934 51.5938 13.4746 51.5938Z" fill="#482475"/>
<path d="M13.2246 53.25C15.5371 53.25 16.3184 51.8125 16.7246 51.1562H16.9434V53H18.7246V37H16.8809V42.9062H16.7246C16.3184 42.2812 15.5996 40.8438 13.2559 40.8438C10.2246 40.8438 8.13086 43.25 8.13086 47.0312C8.13086 50.8438 10.2246 53.25 13.2246 53.25ZM13.4746 51.5938C11.1621 51.5938 9.97461 49.5625 9.97461 47C9.97461 44.4688 11.1309 42.5 13.4746 42.5C15.7246 42.5 16.9121 44.3125 16.9121 47C16.9121 49.7188 15.6934 51.5938 13.4746 51.5938Z" fill="#2D53A5"/>
<path d="M27.3887 53.25C29.8262 53.25 31.6074 52.0312 32.1699 50.2188L30.3887 49.7188C29.9199 50.9688 28.834 51.5938 27.3887 51.5938C25.2246 51.5938 23.7324 50.1953 23.6465 47.625H32.3574V46.8438C32.3574 42.375 29.7012 40.8438 27.2012 40.8438C23.9512 40.8438 21.7949 43.4062 21.7949 47.0938C21.7949 50.7812 23.9199 53.25 27.3887 53.25ZM23.6465 46.0312C23.7715 44.1641 25.0918 42.5 27.2012 42.5C29.2012 42.5 30.4824 44 30.4824 46.0312H23.6465Z" fill="#482475"/>
<path d="M27.3887 53.25C29.8262 53.25 31.6074 52.0312 32.1699 50.2188L30.3887 49.7188C29.9199 50.9688 28.834 51.5938 27.3887 51.5938C25.2246 51.5938 23.7324 50.1953 23.6465 47.625H32.3574V46.8438C32.3574 42.375 29.7012 40.8438 27.2012 40.8438C23.9512 40.8438 21.7949 43.4062 21.7949 47.0938C21.7949 50.7812 23.9199 53.25 27.3887 53.25ZM23.6465 46.0312C23.7715 44.1641 25.0918 42.5 27.2012 42.5C29.2012 42.5 30.4824 44 30.4824 46.0312H23.6465Z" fill="#2D53A5"/>
<path d="M43.6621 43.6875C43.084 41.9844 41.7871 40.8438 39.4121 40.8438C36.8809 40.8438 35.0059 42.2812 35.0059 44.3125C35.0059 45.9688 35.9902 47.0781 38.1934 47.5938L40.1934 48.0625C41.4043 48.3438 41.9746 48.9219 41.9746 49.75C41.9746 50.7812 40.8809 51.625 39.1621 51.625C37.6543 51.625 36.709 50.9766 36.3809 49.6875L34.6309 50.125C35.0605 52.1641 36.7402 53.25 39.1934 53.25C41.9824 53.25 43.8809 51.7266 43.8809 49.6562C43.8809 47.9844 42.834 46.9297 40.6934 46.4062L38.9121 45.9688C37.4902 45.6172 36.8496 45.1406 36.8496 44.2188C36.8496 43.1875 37.9434 42.4375 39.4121 42.4375C41.0215 42.4375 41.6855 43.3281 42.0059 44.1562L43.6621 43.6875Z" fill="#482475"/>
<path d="M43.6621 43.6875C43.084 41.9844 41.7871 40.8438 39.4121 40.8438C36.8809 40.8438 35.0059 42.2812 35.0059 44.3125C35.0059 45.9688 35.9902 47.0781 38.1934 47.5938L40.1934 48.0625C41.4043 48.3438 41.9746 48.9219 41.9746 49.75C41.9746 50.7812 40.8809 51.625 39.1621 51.625C37.6543 51.625 36.709 50.9766 36.3809 49.6875L34.6309 50.125C35.0605 52.1641 36.7402 53.25 39.1934 53.25C41.9824 53.25 43.8809 51.7266 43.8809 49.6562C43.8809 47.9844 42.834 46.9297 40.6934 46.4062L38.9121 45.9688C37.4902 45.6172 36.8496 45.1406 36.8496 44.2188C36.8496 43.1875 37.9434 42.4375 39.4121 42.4375C41.0215 42.4375 41.6855 43.3281 42.0059 44.1562L43.6621 43.6875Z" fill="#2D53A5"/>
<path d="M46.6562 53H48.5V41H46.6562V53ZM47.5938 39C48.3125 39 48.9062 38.4375 48.9062 37.75C48.9062 37.0625 48.3125 36.5 47.5938 36.5C46.875 36.5 46.2812 37.0625 46.2812 37.75C46.2812 38.4375 46.875 39 47.5938 39Z" fill="#482475"/>
<path d="M46.6562 53H48.5V41H46.6562V53ZM47.5938 39C48.3125 39 48.9062 38.4375 48.9062 37.75C48.9062 37.0625 48.3125 36.5 47.5938 36.5C46.875 36.5 46.2812 37.0625 46.2812 37.75C46.2812 38.4375 46.875 39 47.5938 39Z" fill="#2D53A5"/>
<path d="M56.7207 57.75C59.5957 57.75 61.9082 56.4375 61.9082 53.3438V41H60.127V42.9062H59.9395C59.5332 42.2812 58.7832 40.8438 56.4395 40.8438C53.4082 40.8438 51.3145 43.25 51.3145 46.9375C51.3145 50.6875 53.502 52.8125 56.4082 52.8125C58.752 52.8125 59.502 51.4375 59.9082 50.7812H60.0645V53.2188C60.0645 55.2188 58.6582 56.125 56.7207 56.125C54.541 56.125 53.7754 54.9766 53.2832 54.3125L51.8145 55.3438C52.5645 56.6016 54.041 57.75 56.7207 57.75ZM56.6582 51.1562C54.3457 51.1562 53.1582 49.4062 53.1582 46.9062C53.1582 44.4688 54.3145 42.5 56.6582 42.5C58.9082 42.5 60.0957 44.3125 60.0957 46.9062C60.0957 49.5625 58.877 51.1562 56.6582 51.1562Z" fill="#482475"/>
<path d="M56.7207 57.75C59.5957 57.75 61.9082 56.4375 61.9082 53.3438V41H60.127V42.9062H59.9395C59.5332 42.2812 58.7832 40.8438 56.4395 40.8438C53.4082 40.8438 51.3145 43.25 51.3145 46.9375C51.3145 50.6875 53.502 52.8125 56.4082 52.8125C58.752 52.8125 59.502 51.4375 59.9082 50.7812H60.0645V53.2188C60.0645 55.2188 58.6582 56.125 56.7207 56.125C54.541 56.125 53.7754 54.9766 53.2832 54.3125L51.8145 55.3438C52.5645 56.6016 54.041 57.75 56.7207 57.75ZM56.6582 51.1562C54.3457 51.1562 53.1582 49.4062 53.1582 46.9062C53.1582 44.4688 54.3145 42.5 56.6582 42.5C58.9082 42.5 60.0957 44.3125 60.0957 46.9062C60.0957 49.5625 58.877 51.1562 56.6582 51.1562Z" fill="#2D53A5"/>
<path d="M67.127 45.7812C67.127 43.6875 68.4238 42.5 70.1895 42.5C71.9004 42.5 72.9395 43.6172 72.9395 45.5V53H74.7832V45.375C74.7832 42.3125 73.1504 40.8438 70.7207 40.8438C68.9082 40.8438 67.7832 41.6562 67.2207 42.875H67.0645V41H65.2832V53H67.127V45.7812Z" fill="#482475"/>
<path d="M67.127 45.7812C67.127 43.6875 68.4238 42.5 70.1895 42.5C71.9004 42.5 72.9395 43.6172 72.9395 45.5V53H74.7832V45.375C74.7832 42.3125 73.1504 40.8438 70.7207 40.8438C68.9082 40.8438 67.7832 41.6562 67.2207 42.875H67.0645V41H65.2832V53H67.127V45.7812Z" fill="#2D53A5"/>
<path d="M86.1836 37H84.3398V53H86.1836V37Z" fill="#482475"/>
<path d="M86.1836 37H84.3398V53H86.1836V37Z" fill="#2D53A5"/>
<path d="M93.0918 53.2812C95.1855 53.2812 96.2793 52.1562 96.6543 51.375H96.748V53H98.5918V45.0938C98.5918 41.2812 95.6855 40.8438 94.1543 40.8438C92.3418 40.8438 90.2793 41.4688 89.3418 43.6562L91.0918 44.2812C91.498 43.4062 92.459 42.4688 94.2168 42.4688C95.9121 42.4688 96.748 43.3672 96.748 44.9062V44.9688C96.748 45.8594 95.8418 45.7812 93.6543 46.0625C91.4277 46.3516 88.998 46.8438 88.998 49.5938C88.998 51.9375 90.8105 53.2812 93.0918 53.2812ZM93.373 51.625C91.9043 51.625 90.8418 50.9688 90.8418 49.6875C90.8418 48.2812 92.123 47.8438 93.5605 47.6562C94.3418 47.5625 96.4355 47.3438 96.748 46.9688V48.6562C96.748 50.1562 95.5605 51.625 93.373 51.625Z" fill="#482475"/>
<path d="M93.0918 53.2812C95.1855 53.2812 96.2793 52.1562 96.6543 51.375H96.748V53H98.5918V45.0938C98.5918 41.2812 95.6855 40.8438 94.1543 40.8438C92.3418 40.8438 90.2793 41.4688 89.3418 43.6562L91.0918 44.2812C91.498 43.4062 92.459 42.4688 94.2168 42.4688C95.9121 42.4688 96.748 43.3672 96.748 44.9062V44.9688C96.748 45.8594 95.8418 45.7812 93.6543 46.0625C91.4277 46.3516 88.998 46.8438 88.998 49.5938C88.998 51.9375 90.8105 53.2812 93.0918 53.2812ZM93.373 51.625C91.9043 51.625 90.8418 50.9688 90.8418 49.6875C90.8418 48.2812 92.123 47.8438 93.5605 47.6562C94.3418 47.5625 96.4355 47.3438 96.748 46.9688V48.6562C96.748 50.1562 95.5605 51.625 93.373 51.625Z" fill="#2D53A5"/>
<path d="M103.801 45.7812C103.801 43.6875 105.098 42.5 106.863 42.5C108.574 42.5 109.613 43.6172 109.613 45.5V53H111.457V45.375C111.457 42.3125 109.824 40.8438 107.395 40.8438C105.582 40.8438 104.457 41.6562 103.895 42.875H103.738V41H101.957V53H103.801V45.7812Z" fill="#482475"/>
<path d="M103.801 45.7812C103.801 43.6875 105.098 42.5 106.863 42.5C108.574 42.5 109.613 43.6172 109.613 45.5V53H111.457V45.375C111.457 42.3125 109.824 40.8438 107.395 40.8438C105.582 40.8438 104.457 41.6562 103.895 42.875H103.738V41H101.957V53H103.801V45.7812Z" fill="#2D53A5"/>
<path d="M119.67 57.75C122.545 57.75 124.857 56.4375 124.857 53.3438V41H123.076V42.9062H122.889C122.482 42.2812 121.732 40.8438 119.389 40.8438C116.357 40.8438 114.264 43.25 114.264 46.9375C114.264 50.6875 116.451 52.8125 119.357 52.8125C121.701 52.8125 122.451 51.4375 122.857 50.7812H123.014V53.2188C123.014 55.2188 121.607 56.125 119.67 56.125C117.49 56.125 116.725 54.9766 116.232 54.3125L114.764 55.3438C115.514 56.6016 116.99 57.75 119.67 57.75ZM119.607 51.1562C117.295 51.1562 116.107 49.4062 116.107 46.9062C116.107 44.4688 117.264 42.5 119.607 42.5C121.857 42.5 123.045 44.3125 123.045 46.9062C123.045 49.5625 121.826 51.1562 119.607 51.1562Z" fill="#482475"/>
<path d="M119.67 57.75C122.545 57.75 124.857 56.4375 124.857 53.3438V41H123.076V42.9062H122.889C122.482 42.2812 121.732 40.8438 119.389 40.8438C116.357 40.8438 114.264 43.25 114.264 46.9375C114.264 50.6875 116.451 52.8125 119.357 52.8125C121.701 52.8125 122.451 51.4375 122.857 50.7812H123.014V53.2188C123.014 55.2188 121.607 56.125 119.67 56.125C117.49 56.125 116.725 54.9766 116.232 54.3125L114.764 55.3438C115.514 56.6016 116.99 57.75 119.67 57.75ZM119.607 51.1562C117.295 51.1562 116.107 49.4062 116.107 46.9062C116.107 44.4688 117.264 42.5 119.607 42.5C121.857 42.5 123.045 44.3125 123.045 46.9062C123.045 49.5625 121.826 51.1562 119.607 51.1562Z" fill="#2D53A5"/>
<path d="M135.795 48.0938C135.795 50.3438 134.076 51.375 132.701 51.375C131.17 51.375 130.076 50.25 130.076 48.5V41H128.232V48.625C128.232 51.6875 129.857 53.1562 132.107 53.1562C133.92 53.1562 135.107 52.1875 135.67 50.9688H135.795V53H137.639V41H135.795V48.0938Z" fill="#482475"/>
<path d="M135.795 48.0938C135.795 50.3438 134.076 51.375 132.701 51.375C131.17 51.375 130.076 50.25 130.076 48.5V41H128.232V48.625C128.232 51.6875 129.857 53.1562 132.107 53.1562C133.92 53.1562 135.107 52.1875 135.67 50.9688H135.795V53H137.639V41H135.795V48.0938Z" fill="#2D53A5"/>
<path d="M144.547 53.2812C146.641 53.2812 147.734 52.1562 148.109 51.375H148.203V53H150.047V45.0938C150.047 41.2812 147.141 40.8438 145.609 40.8438C143.797 40.8438 141.734 41.4688 140.797 43.6562L142.547 44.2812C142.953 43.4062 143.914 42.4688 145.672 42.4688C147.367 42.4688 148.203 43.3672 148.203 44.9062V44.9688C148.203 45.8594 147.297 45.7812 145.109 46.0625C142.883 46.3516 140.453 46.8438 140.453 49.5938C140.453 51.9375 142.266 53.2812 144.547 53.2812ZM144.828 51.625C143.359 51.625 142.297 50.9688 142.297 49.6875C142.297 48.2812 143.578 47.8438 145.016 47.6562C145.797 47.5625 147.891 47.3438 148.203 46.9688V48.6562C148.203 50.1562 147.016 51.625 144.828 51.625Z" fill="#482475"/>
<path d="M144.547 53.2812C146.641 53.2812 147.734 52.1562 148.109 51.375H148.203V53H150.047V45.0938C150.047 41.2812 147.141 40.8438 145.609 40.8438C143.797 40.8438 141.734 41.4688 140.797 43.6562L142.547 44.2812C142.953 43.4062 143.914 42.4688 145.672 42.4688C147.367 42.4688 148.203 43.3672 148.203 44.9062V44.9688C148.203 45.8594 147.297 45.7812 145.109 46.0625C142.883 46.3516 140.453 46.8438 140.453 49.5938C140.453 51.9375 142.266 53.2812 144.547 53.2812ZM144.828 51.625C143.359 51.625 142.297 50.9688 142.297 49.6875C142.297 48.2812 143.578 47.8438 145.016 47.6562C145.797 47.5625 147.891 47.3438 148.203 46.9688V48.6562C148.203 50.1562 147.016 51.625 144.828 51.625Z" fill="#2D53A5"/>
<path d="M158.256 57.75C161.131 57.75 163.443 56.4375 163.443 53.3438V41H161.662V42.9062H161.475C161.068 42.2812 160.318 40.8438 157.975 40.8438C154.943 40.8438 152.85 43.25 152.85 46.9375C152.85 50.6875 155.037 52.8125 157.943 52.8125C160.287 52.8125 161.037 51.4375 161.443 50.7812H161.6V53.2188C161.6 55.2188 160.193 56.125 158.256 56.125C156.076 56.125 155.311 54.9766 154.818 54.3125L153.35 55.3438C154.1 56.6016 155.576 57.75 158.256 57.75ZM158.193 51.1562C155.881 51.1562 154.693 49.4062 154.693 46.9062C154.693 44.4688 155.85 42.5 158.193 42.5C160.443 42.5 161.631 44.3125 161.631 46.9062C161.631 49.5625 160.412 51.1562 158.193 51.1562Z" fill="#482475"/>
<path d="M158.256 57.75C161.131 57.75 163.443 56.4375 163.443 53.3438V41H161.662V42.9062H161.475C161.068 42.2812 160.318 40.8438 157.975 40.8438C154.943 40.8438 152.85 43.25 152.85 46.9375C152.85 50.6875 155.037 52.8125 157.943 52.8125C160.287 52.8125 161.037 51.4375 161.443 50.7812H161.6V53.2188C161.6 55.2188 160.193 56.125 158.256 56.125C156.076 56.125 155.311 54.9766 154.818 54.3125L153.35 55.3438C154.1 56.6016 155.576 57.75 158.256 57.75ZM158.193 51.1562C155.881 51.1562 154.693 49.4062 154.693 46.9062C154.693 44.4688 155.85 42.5 158.193 42.5C160.443 42.5 161.631 44.3125 161.631 46.9062C161.631 49.5625 160.412 51.1562 158.193 51.1562Z" fill="#2D53A5"/>
<path d="M171.85 53.25C174.287 53.25 176.068 52.0312 176.631 50.2188L174.85 49.7188C174.381 50.9688 173.295 51.5938 171.85 51.5938C169.686 51.5938 168.193 50.1953 168.107 47.625H176.818V46.8438C176.818 42.375 174.162 40.8438 171.662 40.8438C168.412 40.8438 166.256 43.4062 166.256 47.0938C166.256 50.7812 168.381 53.25 171.85 53.25ZM168.107 46.0312C168.232 44.1641 169.553 42.5 171.662 42.5C173.662 42.5 174.943 44 174.943 46.0312H168.107Z" fill="#482475"/>
<path d="M171.85 53.25C174.287 53.25 176.068 52.0312 176.631 50.2188L174.85 49.7188C174.381 50.9688 173.295 51.5938 171.85 51.5938C169.686 51.5938 168.193 50.1953 168.107 47.625H176.818V46.8438C176.818 42.375 174.162 40.8438 171.662 40.8438C168.412 40.8438 166.256 43.4062 166.256 47.0938C166.256 50.7812 168.381 53.25 171.85 53.25ZM168.107 46.0312C168.232 44.1641 169.553 42.5 171.662 42.5C173.662 42.5 174.943 44 174.943 46.0312H168.107Z" fill="#2D53A5"/>
<path d="M180.967 53.125C181.74 53.125 182.373 52.4922 182.373 51.7188C182.373 50.9453 181.74 50.3125 180.967 50.3125C180.193 50.3125 179.561 50.9453 179.561 51.7188C179.561 52.4922 180.193 53.125 180.967 53.125Z" fill="#482475"/>
<path d="M180.967 53.125C181.74 53.125 182.373 52.4922 182.373 51.7188C182.373 50.9453 181.74 50.3125 180.967 50.3125C180.193 50.3125 179.561 50.9453 179.561 51.7188C179.561 52.4922 180.193 53.125 180.967 53.125Z" fill="#2D53A5"/>
</svg>
