<svg width="803" height="40" viewBox="0 0 803 40" fill="none" xmlns="http://www.w3.org/2000/svg">
<path d="M25.0108 10.9999C24.0591 5.6448 19.6841 1.51127 13.4909 1.51127C6.14719 1.51127 0.919922 7.34934 0.919922 16.4545C0.919922 25.5596 6.14719 31.3976 13.4909 31.3976C19.6841 31.3976 24.0591 27.2499 25.0108 21.909H22.3404C21.5307 25.9005 18.0506 28.8976 13.4909 28.8976C7.97958 28.8976 3.49094 24.5368 3.49094 16.4545C3.49094 8.40048 7.97958 4.01127 13.4909 4.01127C18.0506 4.01127 21.5307 7.02264 22.3404 10.9999H25.0108Z" fill="#516261"/>
<path d="M25.0108 10.9999C24.0591 5.6448 19.6841 1.51127 13.4909 1.51127C6.14719 1.51127 0.919922 7.34934 0.919922 16.4545C0.919922 25.5596 6.14719 31.3976 13.4909 31.3976C19.6841 31.3976 24.0591 27.2499 25.0108 21.909H22.3404C21.5307 25.9005 18.0506 28.8976 13.4909 28.8976C7.97958 28.8976 3.49094 24.5368 3.49094 16.4545C3.49094 8.40048 7.97958 4.01127 13.4909 4.01127C18.0506 4.01127 21.5307 7.02264 22.3404 10.9999H25.0108Z" fill="#325542"/>
<path d="M25.0108 10.9999C24.0591 5.6448 19.6841 1.51127 13.4909 1.51127C6.14719 1.51127 0.919922 7.34934 0.919922 16.4545C0.919922 25.5596 6.14719 31.3976 13.4909 31.3976C19.6841 31.3976 24.0591 27.2499 25.0108 21.909H22.3404C21.5307 25.9005 18.0506 28.8976 13.4909 28.8976C7.97958 28.8976 3.49094 24.5368 3.49094 16.4545C3.49094 8.40048 7.97958 4.01127 13.4909 4.01127C18.0506 4.01127 21.5307 7.02264 22.3404 10.9999H25.0108Z" fill="#32601D"/>
<path d="M25.0108 10.9999C24.0591 5.6448 19.6841 1.51127 13.4909 1.51127C6.14719 1.51127 0.919922 7.34934 0.919922 16.4545C0.919922 25.5596 6.14719 31.3976 13.4909 31.3976C19.6841 31.3976 24.0591 27.2499 25.0108 21.909H22.3404C21.5307 25.9005 18.0506 28.8976 13.4909 28.8976C7.97958 28.8976 3.49094 24.5368 3.49094 16.4545C3.49094 8.40048 7.97958 4.01127 13.4909 4.01127C18.0506 4.01127 21.5307 7.02264 22.3404 10.9999H25.0108Z" fill="#03582F"/>
<path d="M25.0108 10.9999C24.0591 5.6448 19.6841 1.51127 13.4909 1.51127C6.14719 1.51127 0.919922 7.34934 0.919922 16.4545C0.919922 25.5596 6.14719 31.3976 13.4909 31.3976C19.6841 31.3976 24.0591 27.2499 25.0108 21.909H22.3404C21.5307 25.9005 18.0506 28.8976 13.4909 28.8976C7.97958 28.8976 3.49094 24.5368 3.49094 16.4545C3.49094 8.40048 7.97958 4.01127 13.4909 4.01127C18.0506 4.01127 21.5307 7.02264 22.3404 10.9999H25.0108Z" fill="#2A2B2E"/>
<path d="M36.4184 31.4971C40.0547 31.4971 42.2706 29.48 43.1797 27.5482H43.336V30.9999H45.8644V16.1846C45.8644 10.3323 41.461 8.88343 38.1229 8.88343C34.7848 8.88343 31.3473 10.2045 29.8701 13.7698L32.2706 14.6363C33.0661 12.7613 35.0405 11.1562 38.1939 11.1562C41.5036 11.1562 43.336 12.9743 43.336 15.9573V16.4687C43.336 18.1164 41.2905 18.1448 37.6257 18.5993C32.6968 19.2101 29.2451 20.588 29.2451 24.9062C29.2451 29.1107 32.4553 31.4971 36.4184 31.4971ZM36.7593 29.1817C33.9042 29.1817 31.7735 27.6618 31.7735 25.0198C31.7735 22.3778 33.9326 21.2698 37.6257 20.8153C39.4155 20.6022 42.5973 20.2045 43.336 19.48V22.6334C43.336 26.213 40.7934 29.1817 36.7593 29.1817Z" fill="#516261"/>
<path d="M36.4184 31.4971C40.0547 31.4971 42.2706 29.48 43.1797 27.5482H43.336V30.9999H45.8644V16.1846C45.8644 10.3323 41.461 8.88343 38.1229 8.88343C34.7848 8.88343 31.3473 10.2045 29.8701 13.7698L32.2706 14.6363C33.0661 12.7613 35.0405 11.1562 38.1939 11.1562C41.5036 11.1562 43.336 12.9743 43.336 15.9573V16.4687C43.336 18.1164 41.2905 18.1448 37.6257 18.5993C32.6968 19.2101 29.2451 20.588 29.2451 24.9062C29.2451 29.1107 32.4553 31.4971 36.4184 31.4971ZM36.7593 29.1817C33.9042 29.1817 31.7735 27.6618 31.7735 25.0198C31.7735 22.3778 33.9326 21.2698 37.6257 20.8153C39.4155 20.6022 42.5973 20.2045 43.336 19.48V22.6334C43.336 26.213 40.7934 29.1817 36.7593 29.1817Z" fill="#325542"/>
<path d="M36.4184 31.4971C40.0547 31.4971 42.2706 29.48 43.1797 27.5482H43.336V30.9999H45.8644V16.1846C45.8644 10.3323 41.461 8.88343 38.1229 8.88343C34.7848 8.88343 31.3473 10.2045 29.8701 13.7698L32.2706 14.6363C33.0661 12.7613 35.0405 11.1562 38.1939 11.1562C41.5036 11.1562 43.336 12.9743 43.336 15.9573V16.4687C43.336 18.1164 41.2905 18.1448 37.6257 18.5993C32.6968 19.2101 29.2451 20.588 29.2451 24.9062C29.2451 29.1107 32.4553 31.4971 36.4184 31.4971ZM36.7593 29.1817C33.9042 29.1817 31.7735 27.6618 31.7735 25.0198C31.7735 22.3778 33.9326 21.2698 37.6257 20.8153C39.4155 20.6022 42.5973 20.2045 43.336 19.48V22.6334C43.336 26.213 40.7934 29.1817 36.7593 29.1817Z" fill="#32601D"/>
<path d="M36.4184 31.4971C40.0547 31.4971 42.2706 29.48 43.1797 27.5482H43.336V30.9999H45.8644V16.1846C45.8644 10.3323 41.461 8.88343 38.1229 8.88343C34.7848 8.88343 31.3473 10.2045 29.8701 13.7698L32.2706 14.6363C33.0661 12.7613 35.0405 11.1562 38.1939 11.1562C41.5036 11.1562 43.336 12.9743 43.336 15.9573V16.4687C43.336 18.1164 41.2905 18.1448 37.6257 18.5993C32.6968 19.2101 29.2451 20.588 29.2451 24.9062C29.2451 29.1107 32.4553 31.4971 36.4184 31.4971ZM36.7593 29.1817C33.9042 29.1817 31.7735 27.6618 31.7735 25.0198C31.7735 22.3778 33.9326 21.2698 37.6257 20.8153C39.4155 20.6022 42.5973 20.2045 43.336 19.48V22.6334C43.336 26.213 40.7934 29.1817 36.7593 29.1817Z" fill="#03582F"/>
<path d="M36.4184 31.4971C40.0547 31.4971 42.2706 29.48 43.1797 27.5482H43.336V30.9999H45.8644V16.1846C45.8644 10.3323 41.461 8.88343 38.1229 8.88343C34.7848 8.88343 31.3473 10.2045 29.8701 13.7698L32.2706 14.6363C33.0661 12.7613 35.0405 11.1562 38.1939 11.1562C41.5036 11.1562 43.336 12.9743 43.336 15.9573V16.4687C43.336 18.1164 41.2905 18.1448 37.6257 18.5993C32.6968 19.2101 29.2451 20.588 29.2451 24.9062C29.2451 29.1107 32.4553 31.4971 36.4184 31.4971ZM36.7593 29.1817C33.9042 29.1817 31.7735 27.6618 31.7735 25.0198C31.7735 22.3778 33.9326 21.2698 37.6257 20.8153C39.4155 20.6022 42.5973 20.2045 43.336 19.48V22.6334C43.336 26.213 40.7934 29.1817 36.7593 29.1817Z" fill="#2A2B2E"/>
<path d="M60.784 9.18173H56.1675V3.95446H53.6249V9.18173H50.3721V11.3834H53.6249V25.9005C53.6249 29.4658 56.4374 31.3266 59.2357 31.3266C60.2868 31.3266 60.9971 31.1278 61.48 30.9431L60.9402 28.6562C60.5851 28.7556 60.1306 28.855 59.463 28.855C57.7442 28.855 56.1675 28.0454 56.1675 25.3039V11.3834H60.784V9.18173Z" fill="#516261"/>
<path d="M60.784 9.18173H56.1675V3.95446H53.6249V9.18173H50.3721V11.3834H53.6249V25.9005C53.6249 29.4658 56.4374 31.3266 59.2357 31.3266C60.2868 31.3266 60.9971 31.1278 61.48 30.9431L60.9402 28.6562C60.5851 28.7556 60.1306 28.855 59.463 28.855C57.7442 28.855 56.1675 28.0454 56.1675 25.3039V11.3834H60.784V9.18173Z" fill="#325542"/>
<path d="M60.784 9.18173H56.1675V3.95446H53.6249V9.18173H50.3721V11.3834H53.6249V25.9005C53.6249 29.4658 56.4374 31.3266 59.2357 31.3266C60.2868 31.3266 60.9971 31.1278 61.48 30.9431L60.9402 28.6562C60.5851 28.7556 60.1306 28.855 59.463 28.855C57.7442 28.855 56.1675 28.0454 56.1675 25.3039V11.3834H60.784V9.18173Z" fill="#32601D"/>
<path d="M60.784 9.18173H56.1675V3.95446H53.6249V9.18173H50.3721V11.3834H53.6249V25.9005C53.6249 29.4658 56.4374 31.3266 59.2357 31.3266C60.2868 31.3266 60.9971 31.1278 61.48 30.9431L60.9402 28.6562C60.5851 28.7556 60.1306 28.855 59.463 28.855C57.7442 28.855 56.1675 28.0454 56.1675 25.3039V11.3834H60.784V9.18173Z" fill="#03582F"/>
<path d="M60.784 9.18173H56.1675V3.95446H53.6249V9.18173H50.3721V11.3834H53.6249V25.9005C53.6249 29.4658 56.4374 31.3266 59.2357 31.3266C60.2868 31.3266 60.9971 31.1278 61.48 30.9431L60.9402 28.6562C60.5851 28.7556 60.1306 28.855 59.463 28.855C57.7442 28.855 56.1675 28.0454 56.1675 25.3039V11.3834H60.784V9.18173Z" fill="#2A2B2E"/>
<path d="M74.7128 31.4545C79.0878 31.4545 82.0282 29.0823 83.0225 26.3408L80.6219 25.5596C79.7839 27.5198 77.8094 29.1391 74.7128 29.1391C70.2526 29.1391 67.4259 25.8863 67.3123 20.8437H83.5623V19.5937C83.5623 12.3067 79.0594 8.88343 74.3293 8.88343C68.6759 8.88343 64.7696 13.6135 64.7696 20.2187C64.7696 26.838 68.6049 31.4545 74.7128 31.4545ZM67.3265 18.6135C67.5964 14.551 70.3378 11.1846 74.3293 11.1846C78.2355 11.1846 80.977 14.409 80.977 18.6135H67.3265Z" fill="#516261"/>
<path d="M74.7128 31.4545C79.0878 31.4545 82.0282 29.0823 83.0225 26.3408L80.6219 25.5596C79.7839 27.5198 77.8094 29.1391 74.7128 29.1391C70.2526 29.1391 67.4259 25.8863 67.3123 20.8437H83.5623V19.5937C83.5623 12.3067 79.0594 8.88343 74.3293 8.88343C68.6759 8.88343 64.7696 13.6135 64.7696 20.2187C64.7696 26.838 68.6049 31.4545 74.7128 31.4545ZM67.3265 18.6135C67.5964 14.551 70.3378 11.1846 74.3293 11.1846C78.2355 11.1846 80.977 14.409 80.977 18.6135H67.3265Z" fill="#325542"/>
<path d="M74.7128 31.4545C79.0878 31.4545 82.0282 29.0823 83.0225 26.3408L80.6219 25.5596C79.7839 27.5198 77.8094 29.1391 74.7128 29.1391C70.2526 29.1391 67.4259 25.8863 67.3123 20.8437H83.5623V19.5937C83.5623 12.3067 79.0594 8.88343 74.3293 8.88343C68.6759 8.88343 64.7696 13.6135 64.7696 20.2187C64.7696 26.838 68.6049 31.4545 74.7128 31.4545ZM67.3265 18.6135C67.5964 14.551 70.3378 11.1846 74.3293 11.1846C78.2355 11.1846 80.977 14.409 80.977 18.6135H67.3265Z" fill="#32601D"/>
<path d="M74.7128 31.4545C79.0878 31.4545 82.0282 29.0823 83.0225 26.3408L80.6219 25.5596C79.7839 27.5198 77.8094 29.1391 74.7128 29.1391C70.2526 29.1391 67.4259 25.8863 67.3123 20.8437H83.5623V19.5937C83.5623 12.3067 79.0594 8.88343 74.3293 8.88343C68.6759 8.88343 64.7696 13.6135 64.7696 20.2187C64.7696 26.838 68.6049 31.4545 74.7128 31.4545ZM67.3265 18.6135C67.5964 14.551 70.3378 11.1846 74.3293 11.1846C78.2355 11.1846 80.977 14.409 80.977 18.6135H67.3265Z" fill="#03582F"/>
<path d="M74.7128 31.4545C79.0878 31.4545 82.0282 29.0823 83.0225 26.3408L80.6219 25.5596C79.7839 27.5198 77.8094 29.1391 74.7128 29.1391C70.2526 29.1391 67.4259 25.8863 67.3123 20.8437H83.5623V19.5937C83.5623 12.3067 79.0594 8.88343 74.3293 8.88343C68.6759 8.88343 64.7696 13.6135 64.7696 20.2187C64.7696 26.838 68.6049 31.4545 74.7128 31.4545ZM67.3265 18.6135C67.5964 14.551 70.3378 11.1846 74.3293 11.1846C78.2355 11.1846 80.977 14.409 80.977 18.6135H67.3265Z" fill="#2A2B2E"/>
<path d="M97.0579 39.6363C102.228 39.6363 106.064 37.1079 106.064 31.5681V9.18173H103.592V13.3437H103.336C102.441 11.3834 100.637 8.88343 96.6317 8.88343C91.234 8.88343 87.6118 13.4005 87.6118 20.034C87.6118 26.7243 91.3618 30.7726 96.5891 30.7726C100.51 30.7726 102.427 28.4999 103.294 26.4971H103.521V31.4118C103.521 35.4743 100.921 37.3635 97.0579 37.3635C93.3221 37.3635 91.5323 35.5596 90.609 33.8976L88.5351 35.2613C89.8135 37.7613 92.5976 39.6363 97.0579 39.6363ZM96.8874 28.4573C92.555 28.4573 90.1544 24.9914 90.1544 19.9914C90.1544 15.0766 92.5124 11.1846 96.8874 11.1846C101.163 11.1846 103.564 14.8778 103.564 19.9914C103.564 25.2613 101.092 28.4573 96.8874 28.4573Z" fill="#516261"/>
<path d="M97.0579 39.6363C102.228 39.6363 106.064 37.1079 106.064 31.5681V9.18173H103.592V13.3437H103.336C102.441 11.3834 100.637 8.88343 96.6317 8.88343C91.234 8.88343 87.6118 13.4005 87.6118 20.034C87.6118 26.7243 91.3618 30.7726 96.5891 30.7726C100.51 30.7726 102.427 28.4999 103.294 26.4971H103.521V31.4118C103.521 35.4743 100.921 37.3635 97.0579 37.3635C93.3221 37.3635 91.5323 35.5596 90.609 33.8976L88.5351 35.2613C89.8135 37.7613 92.5976 39.6363 97.0579 39.6363ZM96.8874 28.4573C92.555 28.4573 90.1544 24.9914 90.1544 19.9914C90.1544 15.0766 92.5124 11.1846 96.8874 11.1846C101.163 11.1846 103.564 14.8778 103.564 19.9914C103.564 25.2613 101.092 28.4573 96.8874 28.4573Z" fill="#325542"/>
<path d="M97.0579 39.6363C102.228 39.6363 106.064 37.1079 106.064 31.5681V9.18173H103.592V13.3437H103.336C102.441 11.3834 100.637 8.88343 96.6317 8.88343C91.234 8.88343 87.6118 13.4005 87.6118 20.034C87.6118 26.7243 91.3618 30.7726 96.5891 30.7726C100.51 30.7726 102.427 28.4999 103.294 26.4971H103.521V31.4118C103.521 35.4743 100.921 37.3635 97.0579 37.3635C93.3221 37.3635 91.5323 35.5596 90.609 33.8976L88.5351 35.2613C89.8135 37.7613 92.5976 39.6363 97.0579 39.6363ZM96.8874 28.4573C92.555 28.4573 90.1544 24.9914 90.1544 19.9914C90.1544 15.0766 92.5124 11.1846 96.8874 11.1846C101.163 11.1846 103.564 14.8778 103.564 19.9914C103.564 25.2613 101.092 28.4573 96.8874 28.4573Z" fill="#32601D"/>
<path d="M97.0579 39.6363C102.228 39.6363 106.064 37.1079 106.064 31.5681V9.18173H103.592V13.3437H103.336C102.441 11.3834 100.637 8.88343 96.6317 8.88343C91.234 8.88343 87.6118 13.4005 87.6118 20.034C87.6118 26.7243 91.3618 30.7726 96.5891 30.7726C100.51 30.7726 102.427 28.4999 103.294 26.4971H103.521V31.4118C103.521 35.4743 100.921 37.3635 97.0579 37.3635C93.3221 37.3635 91.5323 35.5596 90.609 33.8976L88.5351 35.2613C89.8135 37.7613 92.5976 39.6363 97.0579 39.6363ZM96.8874 28.4573C92.555 28.4573 90.1544 24.9914 90.1544 19.9914C90.1544 15.0766 92.5124 11.1846 96.8874 11.1846C101.163 11.1846 103.564 14.8778 103.564 19.9914C103.564 25.2613 101.092 28.4573 96.8874 28.4573Z" fill="#03582F"/>
<path d="M97.0579 39.6363C102.228 39.6363 106.064 37.1079 106.064 31.5681V9.18173H103.592V13.3437H103.336C102.441 11.3834 100.637 8.88343 96.6317 8.88343C91.234 8.88343 87.6118 13.4005 87.6118 20.034C87.6118 26.7243 91.3618 30.7726 96.5891 30.7726C100.51 30.7726 102.427 28.4999 103.294 26.4971H103.521V31.4118C103.521 35.4743 100.921 37.3635 97.0579 37.3635C93.3221 37.3635 91.5323 35.5596 90.609 33.8976L88.5351 35.2613C89.8135 37.7613 92.5976 39.6363 97.0579 39.6363ZM96.8874 28.4573C92.555 28.4573 90.1544 24.9914 90.1544 19.9914C90.1544 15.0766 92.5124 11.1846 96.8874 11.1846C101.163 11.1846 103.564 14.8778 103.564 19.9914C103.564 25.2613 101.092 28.4573 96.8874 28.4573Z" fill="#2A2B2E"/>
<path d="M120.838 31.4545C126.491 31.4545 130.44 26.838 130.44 20.1903C130.44 13.4999 126.491 8.88343 120.838 8.88343C115.184 8.88343 111.235 13.4999 111.235 20.1903C111.235 26.838 115.184 31.4545 120.838 31.4545ZM120.838 29.1391C116.306 29.1391 113.778 25.0766 113.778 20.1903C113.778 15.3039 116.306 11.1846 120.838 11.1846C125.369 11.1846 127.897 15.3039 127.897 20.1903C127.897 25.0766 125.369 29.1391 120.838 29.1391Z" fill="#516261"/>
<path d="M120.838 31.4545C126.491 31.4545 130.44 26.838 130.44 20.1903C130.44 13.4999 126.491 8.88343 120.838 8.88343C115.184 8.88343 111.235 13.4999 111.235 20.1903C111.235 26.838 115.184 31.4545 120.838 31.4545ZM120.838 29.1391C116.306 29.1391 113.778 25.0766 113.778 20.1903C113.778 15.3039 116.306 11.1846 120.838 11.1846C125.369 11.1846 127.897 15.3039 127.897 20.1903C127.897 25.0766 125.369 29.1391 120.838 29.1391Z" fill="#325542"/>
<path d="M120.838 31.4545C126.491 31.4545 130.44 26.838 130.44 20.1903C130.44 13.4999 126.491 8.88343 120.838 8.88343C115.184 8.88343 111.235 13.4999 111.235 20.1903C111.235 26.838 115.184 31.4545 120.838 31.4545ZM120.838 29.1391C116.306 29.1391 113.778 25.0766 113.778 20.1903C113.778 15.3039 116.306 11.1846 120.838 11.1846C125.369 11.1846 127.897 15.3039 127.897 20.1903C127.897 25.0766 125.369 29.1391 120.838 29.1391Z" fill="#32601D"/>
<path d="M120.838 31.4545C126.491 31.4545 130.44 26.838 130.44 20.1903C130.44 13.4999 126.491 8.88343 120.838 8.88343C115.184 8.88343 111.235 13.4999 111.235 20.1903C111.235 26.838 115.184 31.4545 120.838 31.4545ZM120.838 29.1391C116.306 29.1391 113.778 25.0766 113.778 20.1903C113.778 15.3039 116.306 11.1846 120.838 11.1846C125.369 11.1846 127.897 15.3039 127.897 20.1903C127.897 25.0766 125.369 29.1391 120.838 29.1391Z" fill="#03582F"/>
<path d="M120.838 31.4545C126.491 31.4545 130.44 26.838 130.44 20.1903C130.44 13.4999 126.491 8.88343 120.838 8.88343C115.184 8.88343 111.235 13.4999 111.235 20.1903C111.235 26.838 115.184 31.4545 120.838 31.4545ZM120.838 29.1391C116.306 29.1391 113.778 25.0766 113.778 20.1903C113.778 15.3039 116.306 11.1846 120.838 11.1846C125.369 11.1846 127.897 15.3039 127.897 20.1903C127.897 25.0766 125.369 29.1391 120.838 29.1391Z" fill="#2A2B2E"/>
<path d="M135.59 30.9999H138.119V16.909C138.119 13.6704 140.604 11.3266 144.014 11.3266C144.681 11.3266 145.306 11.4403 145.533 11.4687V8.89764C145.193 8.88344 144.61 8.85502 144.198 8.85502C141.457 8.85502 139.113 10.3323 138.232 12.534H138.048V9.18173H135.59V30.9999Z" fill="#516261"/>
<path d="M135.59 30.9999H138.119V16.909C138.119 13.6704 140.604 11.3266 144.014 11.3266C144.681 11.3266 145.306 11.4403 145.533 11.4687V8.89764C145.193 8.88344 144.61 8.85502 144.198 8.85502C141.457 8.85502 139.113 10.3323 138.232 12.534H138.048V9.18173H135.59V30.9999Z" fill="#325542"/>
<path d="M135.59 30.9999H138.119V16.909C138.119 13.6704 140.604 11.3266 144.014 11.3266C144.681 11.3266 145.306 11.4403 145.533 11.4687V8.89764C145.193 8.88344 144.61 8.85502 144.198 8.85502C141.457 8.85502 139.113 10.3323 138.232 12.534H138.048V9.18173H135.59V30.9999Z" fill="#32601D"/>
<path d="M135.59 30.9999H138.119V16.909C138.119 13.6704 140.604 11.3266 144.014 11.3266C144.681 11.3266 145.306 11.4403 145.533 11.4687V8.89764C145.193 8.88344 144.61 8.85502 144.198 8.85502C141.457 8.85502 139.113 10.3323 138.232 12.534H138.048V9.18173H135.59V30.9999Z" fill="#03582F"/>
<path d="M135.59 30.9999H138.119V16.909C138.119 13.6704 140.604 11.3266 144.014 11.3266C144.681 11.3266 145.306 11.4403 145.533 11.4687V8.89764C145.193 8.88344 144.61 8.85502 144.198 8.85502C141.457 8.85502 139.113 10.3323 138.232 12.534H138.048V9.18173H135.59V30.9999Z" fill="#2A2B2E"/>
<path d="M151.873 39.1817C154.601 39.1817 156.604 37.6192 157.768 34.4516L167.016 9.22434L164.26 9.18173L157.783 27.6618H157.584L151.106 9.18173H148.365L156.391 31.213L155.595 33.4289C154.388 36.7243 152.683 37.3067 150.112 36.4971L149.43 38.7272C149.942 38.9687 150.879 39.1817 151.873 39.1817Z" fill="#516261"/>
<path d="M151.873 39.1817C154.601 39.1817 156.604 37.6192 157.768 34.4516L167.016 9.22434L164.26 9.18173L157.783 27.6618H157.584L151.106 9.18173H148.365L156.391 31.213L155.595 33.4289C154.388 36.7243 152.683 37.3067 150.112 36.4971L149.43 38.7272C149.942 38.9687 150.879 39.1817 151.873 39.1817Z" fill="#325542"/>
<path d="M151.873 39.1817C154.601 39.1817 156.604 37.6192 157.768 34.4516L167.016 9.22434L164.26 9.18173L157.783 27.6618H157.584L151.106 9.18173H148.365L156.391 31.213L155.595 33.4289C154.388 36.7243 152.683 37.3067 150.112 36.4971L149.43 38.7272C149.942 38.9687 150.879 39.1817 151.873 39.1817Z" fill="#32601D"/>
<path d="M151.873 39.1817C154.601 39.1817 156.604 37.6192 157.768 34.4516L167.016 9.22434L164.26 9.18173L157.783 27.6618H157.584L151.106 9.18173H148.365L156.391 31.213L155.595 33.4289C154.388 36.7243 152.683 37.3067 150.112 36.4971L149.43 38.7272C149.942 38.9687 150.879 39.1817 151.873 39.1817Z" fill="#03582F"/>
<path d="M151.873 39.1817C154.601 39.1817 156.604 37.6192 157.768 34.4516L167.016 9.22434L164.26 9.18173L157.783 27.6618H157.584L151.106 9.18173H148.365L156.391 31.213L155.595 33.4289C154.388 36.7243 152.683 37.3067 150.112 36.4971L149.43 38.7272C149.942 38.9687 150.879 39.1817 151.873 39.1817Z" fill="#2A2B2E"/>
<path d="M190.878 31.4545C196.532 31.4545 200.48 26.838 200.48 20.1903C200.48 13.4999 196.532 8.88343 190.878 8.88343C185.225 8.88343 181.276 13.4999 181.276 20.1903C181.276 26.838 185.225 31.4545 190.878 31.4545ZM190.878 29.1391C186.347 29.1391 183.818 25.0766 183.818 20.1903C183.818 15.3039 186.347 11.1846 190.878 11.1846C195.409 11.1846 197.938 15.3039 197.938 20.1903C197.938 25.0766 195.409 29.1391 190.878 29.1391Z" fill="#516261"/>
<path d="M190.878 31.4545C196.532 31.4545 200.48 26.838 200.48 20.1903C200.48 13.4999 196.532 8.88343 190.878 8.88343C185.225 8.88343 181.276 13.4999 181.276 20.1903C181.276 26.838 185.225 31.4545 190.878 31.4545ZM190.878 29.1391C186.347 29.1391 183.818 25.0766 183.818 20.1903C183.818 15.3039 186.347 11.1846 190.878 11.1846C195.409 11.1846 197.938 15.3039 197.938 20.1903C197.938 25.0766 195.409 29.1391 190.878 29.1391Z" fill="#325542"/>
<path d="M190.878 31.4545C196.532 31.4545 200.48 26.838 200.48 20.1903C200.48 13.4999 196.532 8.88343 190.878 8.88343C185.225 8.88343 181.276 13.4999 181.276 20.1903C181.276 26.838 185.225 31.4545 190.878 31.4545ZM190.878 29.1391C186.347 29.1391 183.818 25.0766 183.818 20.1903C183.818 15.3039 186.347 11.1846 190.878 11.1846C195.409 11.1846 197.938 15.3039 197.938 20.1903C197.938 25.0766 195.409 29.1391 190.878 29.1391Z" fill="#32601D"/>
<path d="M190.878 31.4545C196.532 31.4545 200.48 26.838 200.48 20.1903C200.48 13.4999 196.532 8.88343 190.878 8.88343C185.225 8.88343 181.276 13.4999 181.276 20.1903C181.276 26.838 185.225 31.4545 190.878 31.4545ZM190.878 29.1391C186.347 29.1391 183.818 25.0766 183.818 20.1903C183.818 15.3039 186.347 11.1846 190.878 11.1846C195.409 11.1846 197.938 15.3039 197.938 20.1903C197.938 25.0766 195.409 29.1391 190.878 29.1391Z" fill="#03582F"/>
<path d="M190.878 31.4545C196.532 31.4545 200.48 26.838 200.48 20.1903C200.48 13.4999 196.532 8.88343 190.878 8.88343C185.225 8.88343 181.276 13.4999 181.276 20.1903C181.276 26.838 185.225 31.4545 190.878 31.4545ZM190.878 29.1391C186.347 29.1391 183.818 25.0766 183.818 20.1903C183.818 15.3039 186.347 11.1846 190.878 11.1846C195.409 11.1846 197.938 15.3039 197.938 20.1903C197.938 25.0766 195.409 29.1391 190.878 29.1391Z" fill="#2A2B2E"/>
<path d="M205.588 39.1817H208.131V26.9516H208.358C209.225 28.9545 211.1 31.4545 215.063 31.4545C220.404 31.4545 224.04 26.909 224.04 20.1476C224.04 13.4147 220.418 8.88343 215.02 8.88343C211.014 8.88343 209.239 11.3834 208.358 13.3437H208.046V9.18173H205.588V39.1817ZM208.088 20.105C208.088 14.8778 210.489 11.1846 214.75 11.1846C219.139 11.1846 221.497 15.0766 221.497 20.105C221.497 25.1903 219.097 29.1391 214.75 29.1391C210.531 29.1391 208.088 25.3749 208.088 20.105Z" fill="#516261"/>
<path d="M205.588 39.1817H208.131V26.9516H208.358C209.225 28.9545 211.1 31.4545 215.063 31.4545C220.404 31.4545 224.04 26.909 224.04 20.1476C224.04 13.4147 220.418 8.88343 215.02 8.88343C211.014 8.88343 209.239 11.3834 208.358 13.3437H208.046V9.18173H205.588V39.1817ZM208.088 20.105C208.088 14.8778 210.489 11.1846 214.75 11.1846C219.139 11.1846 221.497 15.0766 221.497 20.105C221.497 25.1903 219.097 29.1391 214.75 29.1391C210.531 29.1391 208.088 25.3749 208.088 20.105Z" fill="#325542"/>
<path d="M205.588 39.1817H208.131V26.9516H208.358C209.225 28.9545 211.1 31.4545 215.063 31.4545C220.404 31.4545 224.04 26.909 224.04 20.1476C224.04 13.4147 220.418 8.88343 215.02 8.88343C211.014 8.88343 209.239 11.3834 208.358 13.3437H208.046V9.18173H205.588V39.1817ZM208.088 20.105C208.088 14.8778 210.489 11.1846 214.75 11.1846C219.139 11.1846 221.497 15.0766 221.497 20.105C221.497 25.1903 219.097 29.1391 214.75 29.1391C210.531 29.1391 208.088 25.3749 208.088 20.105Z" fill="#32601D"/>
<path d="M205.588 39.1817H208.131V26.9516H208.358C209.225 28.9545 211.1 31.4545 215.063 31.4545C220.404 31.4545 224.04 26.909 224.04 20.1476C224.04 13.4147 220.418 8.88343 215.02 8.88343C211.014 8.88343 209.239 11.3834 208.358 13.3437H208.046V9.18173H205.588V39.1817ZM208.088 20.105C208.088 14.8778 210.489 11.1846 214.75 11.1846C219.139 11.1846 221.497 15.0766 221.497 20.105C221.497 25.1903 219.097 29.1391 214.75 29.1391C210.531 29.1391 208.088 25.3749 208.088 20.105Z" fill="#03582F"/>
<path d="M205.588 39.1817H208.131V26.9516H208.358C209.225 28.9545 211.1 31.4545 215.063 31.4545C220.404 31.4545 224.04 26.909 224.04 20.1476C224.04 13.4147 220.418 8.88343 215.02 8.88343C211.014 8.88343 209.239 11.3834 208.358 13.3437H208.046V9.18173H205.588V39.1817ZM208.088 20.105C208.088 14.8778 210.489 11.1846 214.75 11.1846C219.139 11.1846 221.497 15.0766 221.497 20.105C221.497 25.1903 219.097 29.1391 214.75 29.1391C210.531 29.1391 208.088 25.3749 208.088 20.105Z" fill="#2A2B2E"/>
<path d="M237.77 9.18173H233.153V3.95446H230.611V9.18173H227.358V11.3834H230.611V25.9005C230.611 29.4658 233.423 31.3266 236.222 31.3266C237.273 31.3266 237.983 31.1278 238.466 30.9431L237.926 28.6562C237.571 28.7556 237.117 28.855 236.449 28.855C234.73 28.855 233.153 28.0454 233.153 25.3039V11.3834H237.77V9.18173Z" fill="#516261"/>
<path d="M237.77 9.18173H233.153V3.95446H230.611V9.18173H227.358V11.3834H230.611V25.9005C230.611 29.4658 233.423 31.3266 236.222 31.3266C237.273 31.3266 237.983 31.1278 238.466 30.9431L237.926 28.6562C237.571 28.7556 237.117 28.855 236.449 28.855C234.73 28.855 233.153 28.0454 233.153 25.3039V11.3834H237.77V9.18173Z" fill="#325542"/>
<path d="M237.77 9.18173H233.153V3.95446H230.611V9.18173H227.358V11.3834H230.611V25.9005C230.611 29.4658 233.423 31.3266 236.222 31.3266C237.273 31.3266 237.983 31.1278 238.466 30.9431L237.926 28.6562C237.571 28.7556 237.117 28.855 236.449 28.855C234.73 28.855 233.153 28.0454 233.153 25.3039V11.3834H237.77V9.18173Z" fill="#32601D"/>
<path d="M237.77 9.18173H233.153V3.95446H230.611V9.18173H227.358V11.3834H230.611V25.9005C230.611 29.4658 233.423 31.3266 236.222 31.3266C237.273 31.3266 237.983 31.1278 238.466 30.9431L237.926 28.6562C237.571 28.7556 237.117 28.855 236.449 28.855C234.73 28.855 233.153 28.0454 233.153 25.3039V11.3834H237.77V9.18173Z" fill="#03582F"/>
<path d="M237.77 9.18173H233.153V3.95446H230.611V9.18173H227.358V11.3834H230.611V25.9005C230.611 29.4658 233.423 31.3266 236.222 31.3266C237.273 31.3266 237.983 31.1278 238.466 30.9431L237.926 28.6562C237.571 28.7556 237.117 28.855 236.449 28.855C234.73 28.855 233.153 28.0454 233.153 25.3039V11.3834H237.77V9.18173Z" fill="#2A2B2E"/>
<path d="M243.141 30.9999H245.683V9.18173H243.141V30.9999ZM244.433 5.43173C245.47 5.43173 246.337 4.60787 246.337 3.61355C246.337 2.61923 245.47 1.79536 244.433 1.79536C243.396 1.79536 242.544 2.61923 242.544 3.61355C242.544 4.60787 243.396 5.43173 244.433 5.43173Z" fill="#516261"/>
<path d="M243.141 30.9999H245.683V9.18173H243.141V30.9999ZM244.433 5.43173C245.47 5.43173 246.337 4.60787 246.337 3.61355C246.337 2.61923 245.47 1.79536 244.433 1.79536C243.396 1.79536 242.544 2.61923 242.544 3.61355C242.544 4.60787 243.396 5.43173 244.433 5.43173Z" fill="#325542"/>
<path d="M243.141 30.9999H245.683V9.18173H243.141V30.9999ZM244.433 5.43173C245.47 5.43173 246.337 4.60787 246.337 3.61355C246.337 2.61923 245.47 1.79536 244.433 1.79536C243.396 1.79536 242.544 2.61923 242.544 3.61355C242.544 4.60787 243.396 5.43173 244.433 5.43173Z" fill="#32601D"/>
<path d="M243.141 30.9999H245.683V9.18173H243.141V30.9999ZM244.433 5.43173C245.47 5.43173 246.337 4.60787 246.337 3.61355C246.337 2.61923 245.47 1.79536 244.433 1.79536C243.396 1.79536 242.544 2.61923 242.544 3.61355C242.544 4.60787 243.396 5.43173 244.433 5.43173Z" fill="#03582F"/>
<path d="M243.141 30.9999H245.683V9.18173H243.141V30.9999ZM244.433 5.43173C245.47 5.43173 246.337 4.60787 246.337 3.61355C246.337 2.61923 245.47 1.79536 244.433 1.79536C243.396 1.79536 242.544 2.61923 242.544 3.61355C242.544 4.60787 243.396 5.43173 244.433 5.43173Z" fill="#2A2B2E"/>
<path d="M251.97 30.9999H254.498V17.0226C254.498 13.6278 256.757 11.213 259.782 11.213C262.765 11.213 264.498 13.2016 264.498 16.1562V30.9999H267.084V16.6391C267.084 13.4999 268.959 11.213 272.282 11.213C275.166 11.213 277.084 12.9459 277.084 16.3834V30.9999H279.612V16.3834C279.612 11.4971 277.098 8.89764 273.049 8.89764C269.868 8.89764 267.566 10.4459 266.586 12.8607H266.402C265.436 10.3891 263.518 8.89764 260.507 8.89764C257.652 8.89764 255.521 10.2755 254.655 12.534H254.427V9.18173H251.97V30.9999Z" fill="#516261"/>
<path d="M251.97 30.9999H254.498V17.0226C254.498 13.6278 256.757 11.213 259.782 11.213C262.765 11.213 264.498 13.2016 264.498 16.1562V30.9999H267.084V16.6391C267.084 13.4999 268.959 11.213 272.282 11.213C275.166 11.213 277.084 12.9459 277.084 16.3834V30.9999H279.612V16.3834C279.612 11.4971 277.098 8.89764 273.049 8.89764C269.868 8.89764 267.566 10.4459 266.586 12.8607H266.402C265.436 10.3891 263.518 8.89764 260.507 8.89764C257.652 8.89764 255.521 10.2755 254.655 12.534H254.427V9.18173H251.97V30.9999Z" fill="#325542"/>
<path d="M251.97 30.9999H254.498V17.0226C254.498 13.6278 256.757 11.213 259.782 11.213C262.765 11.213 264.498 13.2016 264.498 16.1562V30.9999H267.084V16.6391C267.084 13.4999 268.959 11.213 272.282 11.213C275.166 11.213 277.084 12.9459 277.084 16.3834V30.9999H279.612V16.3834C279.612 11.4971 277.098 8.89764 273.049 8.89764C269.868 8.89764 267.566 10.4459 266.586 12.8607H266.402C265.436 10.3891 263.518 8.89764 260.507 8.89764C257.652 8.89764 255.521 10.2755 254.655 12.534H254.427V9.18173H251.97V30.9999Z" fill="#32601D"/>
<path d="M251.97 30.9999H254.498V17.0226C254.498 13.6278 256.757 11.213 259.782 11.213C262.765 11.213 264.498 13.2016 264.498 16.1562V30.9999H267.084V16.6391C267.084 13.4999 268.959 11.213 272.282 11.213C275.166 11.213 277.084 12.9459 277.084 16.3834V30.9999H279.612V16.3834C279.612 11.4971 277.098 8.89764 273.049 8.89764C269.868 8.89764 267.566 10.4459 266.586 12.8607H266.402C265.436 10.3891 263.518 8.89764 260.507 8.89764C257.652 8.89764 255.521 10.2755 254.655 12.534H254.427V9.18173H251.97V30.9999Z" fill="#03582F"/>
<path d="M251.97 30.9999H254.498V17.0226C254.498 13.6278 256.757 11.213 259.782 11.213C262.765 11.213 264.498 13.2016 264.498 16.1562V30.9999H267.084V16.6391C267.084 13.4999 268.959 11.213 272.282 11.213C275.166 11.213 277.084 12.9459 277.084 16.3834V30.9999H279.612V16.3834C279.612 11.4971 277.098 8.89764 273.049 8.89764C269.868 8.89764 267.566 10.4459 266.586 12.8607H266.402C265.436 10.3891 263.518 8.89764 260.507 8.89764C257.652 8.89764 255.521 10.2755 254.655 12.534H254.427V9.18173H251.97V30.9999Z" fill="#2A2B2E"/>
<path d="M285.934 30.9999H288.477V9.18173H285.934V30.9999ZM287.227 5.43173C288.264 5.43173 289.13 4.60787 289.13 3.61355C289.13 2.61923 288.264 1.79536 287.227 1.79536C286.19 1.79536 285.338 2.61923 285.338 3.61355C285.338 4.60787 286.19 5.43173 287.227 5.43173Z" fill="#516261"/>
<path d="M285.934 30.9999H288.477V9.18173H285.934V30.9999ZM287.227 5.43173C288.264 5.43173 289.13 4.60787 289.13 3.61355C289.13 2.61923 288.264 1.79536 287.227 1.79536C286.19 1.79536 285.338 2.61923 285.338 3.61355C285.338 4.60787 286.19 5.43173 287.227 5.43173Z" fill="#325542"/>
<path d="M285.934 30.9999H288.477V9.18173H285.934V30.9999ZM287.227 5.43173C288.264 5.43173 289.13 4.60787 289.13 3.61355C289.13 2.61923 288.264 1.79536 287.227 1.79536C286.19 1.79536 285.338 2.61923 285.338 3.61355C285.338 4.60787 286.19 5.43173 287.227 5.43173Z" fill="#32601D"/>
<path d="M285.934 30.9999H288.477V9.18173H285.934V30.9999ZM287.227 5.43173C288.264 5.43173 289.13 4.60787 289.13 3.61355C289.13 2.61923 288.264 1.79536 287.227 1.79536C286.19 1.79536 285.338 2.61923 285.338 3.61355C285.338 4.60787 286.19 5.43173 287.227 5.43173Z" fill="#03582F"/>
<path d="M285.934 30.9999H288.477V9.18173H285.934V30.9999ZM287.227 5.43173C288.264 5.43173 289.13 4.60787 289.13 3.61355C289.13 2.61923 288.264 1.79536 287.227 1.79536C286.19 1.79536 285.338 2.61923 285.338 3.61355C285.338 4.60787 286.19 5.43173 287.227 5.43173Z" fill="#2A2B2E"/>
<path d="M294.082 30.9999H310.403V28.6135H297.562V28.4289L309.948 11.2698V9.18173H294.622V11.5681H306.695V11.7528L294.082 28.9971V30.9999Z" fill="#516261"/>
<path d="M294.082 30.9999H310.403V28.6135H297.562V28.4289L309.948 11.2698V9.18173H294.622V11.5681H306.695V11.7528L294.082 28.9971V30.9999Z" fill="#325542"/>
<path d="M294.082 30.9999H310.403V28.6135H297.562V28.4289L309.948 11.2698V9.18173H294.622V11.5681H306.695V11.7528L294.082 28.9971V30.9999Z" fill="#32601D"/>
<path d="M294.082 30.9999H310.403V28.6135H297.562V28.4289L309.948 11.2698V9.18173H294.622V11.5681H306.695V11.7528L294.082 28.9971V30.9999Z" fill="#03582F"/>
<path d="M294.082 30.9999H310.403V28.6135H297.562V28.4289L309.948 11.2698V9.18173H294.622V11.5681H306.695V11.7528L294.082 28.9971V30.9999Z" fill="#2A2B2E"/>
<path d="M321.668 31.4971C325.305 31.4971 327.521 29.48 328.43 27.5482H328.586V30.9999H331.114V16.1846C331.114 10.3323 326.711 8.88343 323.373 8.88343C320.035 8.88343 316.597 10.2045 315.12 13.7698L317.521 14.6363C318.316 12.7613 320.291 11.1562 323.444 11.1562C326.754 11.1562 328.586 12.9743 328.586 15.9573V16.4687C328.586 18.1164 326.54 18.1448 322.876 18.5993C317.947 19.2101 314.495 20.588 314.495 24.9062C314.495 29.1107 317.705 31.4971 321.668 31.4971ZM322.009 29.1817C319.154 29.1817 317.023 27.6618 317.023 25.0198C317.023 22.3778 319.183 21.2698 322.876 20.8153C324.665 20.6022 327.847 20.2045 328.586 19.48V22.6334C328.586 26.213 326.043 29.1817 322.009 29.1817Z" fill="#516261"/>
<path d="M321.668 31.4971C325.305 31.4971 327.521 29.48 328.43 27.5482H328.586V30.9999H331.114V16.1846C331.114 10.3323 326.711 8.88343 323.373 8.88343C320.035 8.88343 316.597 10.2045 315.12 13.7698L317.521 14.6363C318.316 12.7613 320.291 11.1562 323.444 11.1562C326.754 11.1562 328.586 12.9743 328.586 15.9573V16.4687C328.586 18.1164 326.54 18.1448 322.876 18.5993C317.947 19.2101 314.495 20.588 314.495 24.9062C314.495 29.1107 317.705 31.4971 321.668 31.4971ZM322.009 29.1817C319.154 29.1817 317.023 27.6618 317.023 25.0198C317.023 22.3778 319.183 21.2698 322.876 20.8153C324.665 20.6022 327.847 20.2045 328.586 19.48V22.6334C328.586 26.213 326.043 29.1817 322.009 29.1817Z" fill="#325542"/>
<path d="M321.668 31.4971C325.305 31.4971 327.521 29.48 328.43 27.5482H328.586V30.9999H331.114V16.1846C331.114 10.3323 326.711 8.88343 323.373 8.88343C320.035 8.88343 316.597 10.2045 315.12 13.7698L317.521 14.6363C318.316 12.7613 320.291 11.1562 323.444 11.1562C326.754 11.1562 328.586 12.9743 328.586 15.9573V16.4687C328.586 18.1164 326.54 18.1448 322.876 18.5993C317.947 19.2101 314.495 20.588 314.495 24.9062C314.495 29.1107 317.705 31.4971 321.668 31.4971ZM322.009 29.1817C319.154 29.1817 317.023 27.6618 317.023 25.0198C317.023 22.3778 319.183 21.2698 322.876 20.8153C324.665 20.6022 327.847 20.2045 328.586 19.48V22.6334C328.586 26.213 326.043 29.1817 322.009 29.1817Z" fill="#32601D"/>
<path d="M321.668 31.4971C325.305 31.4971 327.521 29.48 328.43 27.5482H328.586V30.9999H331.114V16.1846C331.114 10.3323 326.711 8.88343 323.373 8.88343C320.035 8.88343 316.597 10.2045 315.12 13.7698L317.521 14.6363C318.316 12.7613 320.291 11.1562 323.444 11.1562C326.754 11.1562 328.586 12.9743 328.586 15.9573V16.4687C328.586 18.1164 326.54 18.1448 322.876 18.5993C317.947 19.2101 314.495 20.588 314.495 24.9062C314.495 29.1107 317.705 31.4971 321.668 31.4971ZM322.009 29.1817C319.154 29.1817 317.023 27.6618 317.023 25.0198C317.023 22.3778 319.183 21.2698 322.876 20.8153C324.665 20.6022 327.847 20.2045 328.586 19.48V22.6334C328.586 26.213 326.043 29.1817 322.009 29.1817Z" fill="#03582F"/>
<path d="M321.668 31.4971C325.305 31.4971 327.521 29.48 328.43 27.5482H328.586V30.9999H331.114V16.1846C331.114 10.3323 326.711 8.88343 323.373 8.88343C320.035 8.88343 316.597 10.2045 315.12 13.7698L317.521 14.6363C318.316 12.7613 320.291 11.1562 323.444 11.1562C326.754 11.1562 328.586 12.9743 328.586 15.9573V16.4687C328.586 18.1164 326.54 18.1448 322.876 18.5993C317.947 19.2101 314.495 20.588 314.495 24.9062C314.495 29.1107 317.705 31.4971 321.668 31.4971ZM322.009 29.1817C319.154 29.1817 317.023 27.6618 317.023 25.0198C317.023 22.3778 319.183 21.2698 322.876 20.8153C324.665 20.6022 327.847 20.2045 328.586 19.48V22.6334C328.586 26.213 326.043 29.1817 322.009 29.1817Z" fill="#2A2B2E"/>
<path d="M346.034 9.18173H341.418V3.95446H338.875V9.18173H335.622V11.3834H338.875V25.9005C338.875 29.4658 341.687 31.3266 344.486 31.3266C345.537 31.3266 346.247 31.1278 346.73 30.9431L346.19 28.6562C345.835 28.7556 345.381 28.855 344.713 28.855C342.994 28.855 341.418 28.0454 341.418 25.3039V11.3834H346.034V9.18173Z" fill="#516261"/>
<path d="M346.034 9.18173H341.418V3.95446H338.875V9.18173H335.622V11.3834H338.875V25.9005C338.875 29.4658 341.687 31.3266 344.486 31.3266C345.537 31.3266 346.247 31.1278 346.73 30.9431L346.19 28.6562C345.835 28.7556 345.381 28.855 344.713 28.855C342.994 28.855 341.418 28.0454 341.418 25.3039V11.3834H346.034V9.18173Z" fill="#325542"/>
<path d="M346.034 9.18173H341.418V3.95446H338.875V9.18173H335.622V11.3834H338.875V25.9005C338.875 29.4658 341.687 31.3266 344.486 31.3266C345.537 31.3266 346.247 31.1278 346.73 30.9431L346.19 28.6562C345.835 28.7556 345.381 28.855 344.713 28.855C342.994 28.855 341.418 28.0454 341.418 25.3039V11.3834H346.034V9.18173Z" fill="#32601D"/>
<path d="M346.034 9.18173H341.418V3.95446H338.875V9.18173H335.622V11.3834H338.875V25.9005C338.875 29.4658 341.687 31.3266 344.486 31.3266C345.537 31.3266 346.247 31.1278 346.73 30.9431L346.19 28.6562C345.835 28.7556 345.381 28.855 344.713 28.855C342.994 28.855 341.418 28.0454 341.418 25.3039V11.3834H346.034V9.18173Z" fill="#03582F"/>
<path d="M346.034 9.18173H341.418V3.95446H338.875V9.18173H335.622V11.3834H338.875V25.9005C338.875 29.4658 341.687 31.3266 344.486 31.3266C345.537 31.3266 346.247 31.1278 346.73 30.9431L346.19 28.6562C345.835 28.7556 345.381 28.855 344.713 28.855C342.994 28.855 341.418 28.0454 341.418 25.3039V11.3834H346.034V9.18173Z" fill="#2A2B2E"/>
<path d="M351.405 30.9999H353.947V9.18173H351.405V30.9999ZM352.697 5.43173C353.734 5.43173 354.601 4.60787 354.601 3.61355C354.601 2.61923 353.734 1.79536 352.697 1.79536C351.66 1.79536 350.808 2.61923 350.808 3.61355C350.808 4.60787 351.66 5.43173 352.697 5.43173Z" fill="#516261"/>
<path d="M351.405 30.9999H353.947V9.18173H351.405V30.9999ZM352.697 5.43173C353.734 5.43173 354.601 4.60787 354.601 3.61355C354.601 2.61923 353.734 1.79536 352.697 1.79536C351.66 1.79536 350.808 2.61923 350.808 3.61355C350.808 4.60787 351.66 5.43173 352.697 5.43173Z" fill="#325542"/>
<path d="M351.405 30.9999H353.947V9.18173H351.405V30.9999ZM352.697 5.43173C353.734 5.43173 354.601 4.60787 354.601 3.61355C354.601 2.61923 353.734 1.79536 352.697 1.79536C351.66 1.79536 350.808 2.61923 350.808 3.61355C350.808 4.60787 351.66 5.43173 352.697 5.43173Z" fill="#32601D"/>
<path d="M351.405 30.9999H353.947V9.18173H351.405V30.9999ZM352.697 5.43173C353.734 5.43173 354.601 4.60787 354.601 3.61355C354.601 2.61923 353.734 1.79536 352.697 1.79536C351.66 1.79536 350.808 2.61923 350.808 3.61355C350.808 4.60787 351.66 5.43173 352.697 5.43173Z" fill="#03582F"/>
<path d="M351.405 30.9999H353.947V9.18173H351.405V30.9999ZM352.697 5.43173C353.734 5.43173 354.601 4.60787 354.601 3.61355C354.601 2.61923 353.734 1.79536 352.697 1.79536C351.66 1.79536 350.808 2.61923 350.808 3.61355C350.808 4.60787 351.66 5.43173 352.697 5.43173Z" fill="#2A2B2E"/>
<path d="M368.714 31.4545C374.367 31.4545 378.316 26.838 378.316 20.1903C378.316 13.4999 374.367 8.88343 368.714 8.88343C363.061 8.88343 359.112 13.4999 359.112 20.1903C359.112 26.838 363.061 31.4545 368.714 31.4545ZM368.714 29.1391C364.183 29.1391 361.654 25.0766 361.654 20.1903C361.654 15.3039 364.183 11.1846 368.714 11.1846C373.245 11.1846 375.774 15.3039 375.774 20.1903C375.774 25.0766 373.245 29.1391 368.714 29.1391Z" fill="#516261"/>
<path d="M368.714 31.4545C374.367 31.4545 378.316 26.838 378.316 20.1903C378.316 13.4999 374.367 8.88343 368.714 8.88343C363.061 8.88343 359.112 13.4999 359.112 20.1903C359.112 26.838 363.061 31.4545 368.714 31.4545ZM368.714 29.1391C364.183 29.1391 361.654 25.0766 361.654 20.1903C361.654 15.3039 364.183 11.1846 368.714 11.1846C373.245 11.1846 375.774 15.3039 375.774 20.1903C375.774 25.0766 373.245 29.1391 368.714 29.1391Z" fill="#325542"/>
<path d="M368.714 31.4545C374.367 31.4545 378.316 26.838 378.316 20.1903C378.316 13.4999 374.367 8.88343 368.714 8.88343C363.061 8.88343 359.112 13.4999 359.112 20.1903C359.112 26.838 363.061 31.4545 368.714 31.4545ZM368.714 29.1391C364.183 29.1391 361.654 25.0766 361.654 20.1903C361.654 15.3039 364.183 11.1846 368.714 11.1846C373.245 11.1846 375.774 15.3039 375.774 20.1903C375.774 25.0766 373.245 29.1391 368.714 29.1391Z" fill="#32601D"/>
<path d="M368.714 31.4545C374.367 31.4545 378.316 26.838 378.316 20.1903C378.316 13.4999 374.367 8.88343 368.714 8.88343C363.061 8.88343 359.112 13.4999 359.112 20.1903C359.112 26.838 363.061 31.4545 368.714 31.4545ZM368.714 29.1391C364.183 29.1391 361.654 25.0766 361.654 20.1903C361.654 15.3039 364.183 11.1846 368.714 11.1846C373.245 11.1846 375.774 15.3039 375.774 20.1903C375.774 25.0766 373.245 29.1391 368.714 29.1391Z" fill="#03582F"/>
<path d="M368.714 31.4545C374.367 31.4545 378.316 26.838 378.316 20.1903C378.316 13.4999 374.367 8.88343 368.714 8.88343C363.061 8.88343 359.112 13.4999 359.112 20.1903C359.112 26.838 363.061 31.4545 368.714 31.4545ZM368.714 29.1391C364.183 29.1391 361.654 25.0766 361.654 20.1903C361.654 15.3039 364.183 11.1846 368.714 11.1846C373.245 11.1846 375.774 15.3039 375.774 20.1903C375.774 25.0766 373.245 29.1391 368.714 29.1391Z" fill="#2A2B2E"/>
<path d="M385.995 17.3635C385.995 13.5567 388.495 11.213 391.933 11.213C395.285 11.213 397.444 13.4573 397.444 17.0226V30.9999H399.972V16.8664C399.972 11.6959 396.975 8.89764 392.572 8.89764C389.376 8.89764 387.174 10.3749 386.151 12.605H385.924V9.18173H383.467V30.9999H385.995V17.3635Z" fill="#516261"/>
<path d="M385.995 17.3635C385.995 13.5567 388.495 11.213 391.933 11.213C395.285 11.213 397.444 13.4573 397.444 17.0226V30.9999H399.972V16.8664C399.972 11.6959 396.975 8.89764 392.572 8.89764C389.376 8.89764 387.174 10.3749 386.151 12.605H385.924V9.18173H383.467V30.9999H385.995V17.3635Z" fill="#325542"/>
<path d="M385.995 17.3635C385.995 13.5567 388.495 11.213 391.933 11.213C395.285 11.213 397.444 13.4573 397.444 17.0226V30.9999H399.972V16.8664C399.972 11.6959 396.975 8.89764 392.572 8.89764C389.376 8.89764 387.174 10.3749 386.151 12.605H385.924V9.18173H383.467V30.9999H385.995V17.3635Z" fill="#32601D"/>
<path d="M385.995 17.3635C385.995 13.5567 388.495 11.213 391.933 11.213C395.285 11.213 397.444 13.4573 397.444 17.0226V30.9999H399.972V16.8664C399.972 11.6959 396.975 8.89764 392.572 8.89764C389.376 8.89764 387.174 10.3749 386.151 12.605H385.924V9.18173H383.467V30.9999H385.995V17.3635Z" fill="#03582F"/>
<path d="M385.995 17.3635C385.995 13.5567 388.495 11.213 391.933 11.213C395.285 11.213 397.444 13.4573 397.444 17.0226V30.9999H399.972V16.8664C399.972 11.6959 396.975 8.89764 392.572 8.89764C389.376 8.89764 387.174 10.3749 386.151 12.605H385.924V9.18173H383.467V30.9999H385.995V17.3635Z" fill="#2A2B2E"/>
<path d="M421.925 30.9999H424.538L429.709 13.1164H429.979L435.149 30.9999H437.763L444.354 9.18173H441.683L436.513 27.1363H436.314L431.2 9.18173H428.516L423.359 27.1789H423.175L418.004 9.18173H415.334L421.925 30.9999Z" fill="#516261"/>
<path d="M421.925 30.9999H424.538L429.709 13.1164H429.979L435.149 30.9999H437.763L444.354 9.18173H441.683L436.513 27.1363H436.314L431.2 9.18173H428.516L423.359 27.1789H423.175L418.004 9.18173H415.334L421.925 30.9999Z" fill="#325542"/>
<path d="M421.925 30.9999H424.538L429.709 13.1164H429.979L435.149 30.9999H437.763L444.354 9.18173H441.683L436.513 27.1363H436.314L431.2 9.18173H428.516L423.359 27.1789H423.175L418.004 9.18173H415.334L421.925 30.9999Z" fill="#32601D"/>
<path d="M421.925 30.9999H424.538L429.709 13.1164H429.979L435.149 30.9999H437.763L444.354 9.18173H441.683L436.513 27.1363H436.314L431.2 9.18173H428.516L423.359 27.1789H423.175L418.004 9.18173H415.334L421.925 30.9999Z" fill="#03582F"/>
<path d="M421.925 30.9999H424.538L429.709 13.1164H429.979L435.149 30.9999H437.763L444.354 9.18173H441.683L436.513 27.1363H436.314L431.2 9.18173H428.516L423.359 27.1789H423.175L418.004 9.18173H415.334L421.925 30.9999Z" fill="#2A2B2E"/>
<path d="M448.897 30.9999H451.439V9.18173H448.897V30.9999ZM450.189 5.43173C451.226 5.43173 452.093 4.60787 452.093 3.61355C452.093 2.61923 451.226 1.79536 450.189 1.79536C449.152 1.79536 448.3 2.61923 448.3 3.61355C448.3 4.60787 449.152 5.43173 450.189 5.43173Z" fill="#516261"/>
<path d="M448.897 30.9999H451.439V9.18173H448.897V30.9999ZM450.189 5.43173C451.226 5.43173 452.093 4.60787 452.093 3.61355C452.093 2.61923 451.226 1.79536 450.189 1.79536C449.152 1.79536 448.3 2.61923 448.3 3.61355C448.3 4.60787 449.152 5.43173 450.189 5.43173Z" fill="#325542"/>
<path d="M448.897 30.9999H451.439V9.18173H448.897V30.9999ZM450.189 5.43173C451.226 5.43173 452.093 4.60787 452.093 3.61355C452.093 2.61923 451.226 1.79536 450.189 1.79536C449.152 1.79536 448.3 2.61923 448.3 3.61355C448.3 4.60787 449.152 5.43173 450.189 5.43173Z" fill="#32601D"/>
<path d="M448.897 30.9999H451.439V9.18173H448.897V30.9999ZM450.189 5.43173C451.226 5.43173 452.093 4.60787 452.093 3.61355C452.093 2.61923 451.226 1.79536 450.189 1.79536C449.152 1.79536 448.3 2.61923 448.3 3.61355C448.3 4.60787 449.152 5.43173 450.189 5.43173Z" fill="#03582F"/>
<path d="M448.897 30.9999H451.439V9.18173H448.897V30.9999ZM450.189 5.43173C451.226 5.43173 452.093 4.60787 452.093 3.61355C452.093 2.61923 451.226 1.79536 450.189 1.79536C449.152 1.79536 448.3 2.61923 448.3 3.61355C448.3 4.60787 449.152 5.43173 450.189 5.43173Z" fill="#2A2B2E"/>
<path d="M466.32 9.18173H461.703V3.95446H459.161V9.18173H455.908V11.3834H459.161V25.9005C459.161 29.4658 461.973 31.3266 464.772 31.3266C465.823 31.3266 466.533 31.1278 467.016 30.9431L466.476 28.6562C466.121 28.7556 465.667 28.855 464.999 28.855C463.28 28.855 461.703 28.0454 461.703 25.3039V11.3834H466.32V9.18173Z" fill="#516261"/>
<path d="M466.32 9.18173H461.703V3.95446H459.161V9.18173H455.908V11.3834H459.161V25.9005C459.161 29.4658 461.973 31.3266 464.772 31.3266C465.823 31.3266 466.533 31.1278 467.016 30.9431L466.476 28.6562C466.121 28.7556 465.667 28.855 464.999 28.855C463.28 28.855 461.703 28.0454 461.703 25.3039V11.3834H466.32V9.18173Z" fill="#325542"/>
<path d="M466.32 9.18173H461.703V3.95446H459.161V9.18173H455.908V11.3834H459.161V25.9005C459.161 29.4658 461.973 31.3266 464.772 31.3266C465.823 31.3266 466.533 31.1278 467.016 30.9431L466.476 28.6562C466.121 28.7556 465.667 28.855 464.999 28.855C463.28 28.855 461.703 28.0454 461.703 25.3039V11.3834H466.32V9.18173Z" fill="#32601D"/>
<path d="M466.32 9.18173H461.703V3.95446H459.161V9.18173H455.908V11.3834H459.161V25.9005C459.161 29.4658 461.973 31.3266 464.772 31.3266C465.823 31.3266 466.533 31.1278 467.016 30.9431L466.476 28.6562C466.121 28.7556 465.667 28.855 464.999 28.855C463.28 28.855 461.703 28.0454 461.703 25.3039V11.3834H466.32V9.18173Z" fill="#03582F"/>
<path d="M466.32 9.18173H461.703V3.95446H459.161V9.18173H455.908V11.3834H459.161V25.9005C459.161 29.4658 461.973 31.3266 464.772 31.3266C465.823 31.3266 466.533 31.1278 467.016 30.9431L466.476 28.6562C466.121 28.7556 465.667 28.855 464.999 28.855C463.28 28.855 461.703 28.0454 461.703 25.3039V11.3834H466.32V9.18173Z" fill="#2A2B2E"/>
<path d="M474.659 17.3635C474.659 13.5567 477.216 11.213 480.71 11.213C484.091 11.213 486.25 13.4289 486.25 17.0226V30.9999H488.793V16.8664C488.793 11.6675 485.781 8.89764 481.35 8.89764C478.054 8.89764 475.909 10.3465 474.887 12.605H474.659V1.909H472.131V30.9999H474.659V17.3635Z" fill="#516261"/>
<path d="M474.659 17.3635C474.659 13.5567 477.216 11.213 480.71 11.213C484.091 11.213 486.25 13.4289 486.25 17.0226V30.9999H488.793V16.8664C488.793 11.6675 485.781 8.89764 481.35 8.89764C478.054 8.89764 475.909 10.3465 474.887 12.605H474.659V1.909H472.131V30.9999H474.659V17.3635Z" fill="#325542"/>
<path d="M474.659 17.3635C474.659 13.5567 477.216 11.213 480.71 11.213C484.091 11.213 486.25 13.4289 486.25 17.0226V30.9999H488.793V16.8664C488.793 11.6675 485.781 8.89764 481.35 8.89764C478.054 8.89764 475.909 10.3465 474.887 12.605H474.659V1.909H472.131V30.9999H474.659V17.3635Z" fill="#32601D"/>
<path d="M474.659 17.3635C474.659 13.5567 477.216 11.213 480.71 11.213C484.091 11.213 486.25 13.4289 486.25 17.0226V30.9999H488.793V16.8664C488.793 11.6675 485.781 8.89764 481.35 8.89764C478.054 8.89764 475.909 10.3465 474.887 12.605H474.659V1.909H472.131V30.9999H474.659V17.3635Z" fill="#03582F"/>
<path d="M474.659 17.3635C474.659 13.5567 477.216 11.213 480.71 11.213C484.091 11.213 486.25 13.4289 486.25 17.0226V30.9999H488.793V16.8664C488.793 11.6675 485.781 8.89764 481.35 8.89764C478.054 8.89764 475.909 10.3465 474.887 12.605H474.659V1.909H472.131V30.9999H474.659V17.3635Z" fill="#2A2B2E"/>
<path d="M508.43 17.3635C508.43 13.5567 510.986 11.213 514.481 11.213C517.861 11.213 520.021 13.4289 520.021 17.0226V30.9999H522.563V16.8664C522.563 11.6675 519.552 8.89764 515.12 8.89764C511.824 8.89764 509.68 10.3465 508.657 12.605H508.43V1.909H505.901V30.9999H508.43V17.3635Z" fill="#516261"/>
<path d="M508.43 17.3635C508.43 13.5567 510.986 11.213 514.481 11.213C517.861 11.213 520.021 13.4289 520.021 17.0226V30.9999H522.563V16.8664C522.563 11.6675 519.552 8.89764 515.12 8.89764C511.824 8.89764 509.68 10.3465 508.657 12.605H508.43V1.909H505.901V30.9999H508.43V17.3635Z" fill="#325542"/>
<path d="M508.43 17.3635C508.43 13.5567 510.986 11.213 514.481 11.213C517.861 11.213 520.021 13.4289 520.021 17.0226V30.9999H522.563V16.8664C522.563 11.6675 519.552 8.89764 515.12 8.89764C511.824 8.89764 509.68 10.3465 508.657 12.605H508.43V1.909H505.901V30.9999H508.43V17.3635Z" fill="#32601D"/>
<path d="M508.43 17.3635C508.43 13.5567 510.986 11.213 514.481 11.213C517.861 11.213 520.021 13.4289 520.021 17.0226V30.9999H522.563V16.8664C522.563 11.6675 519.552 8.89764 515.12 8.89764C511.824 8.89764 509.68 10.3465 508.657 12.605H508.43V1.909H505.901V30.9999H508.43V17.3635Z" fill="#03582F"/>
<path d="M508.43 17.3635C508.43 13.5567 510.986 11.213 514.481 11.213C517.861 11.213 520.021 13.4289 520.021 17.0226V30.9999H522.563V16.8664C522.563 11.6675 519.552 8.89764 515.12 8.89764C511.824 8.89764 509.68 10.3465 508.657 12.605H508.43V1.909H505.901V30.9999H508.43V17.3635Z" fill="#2A2B2E"/>
<path d="M537.302 31.4545C542.955 31.4545 546.904 26.838 546.904 20.1903C546.904 13.4999 542.955 8.88343 537.302 8.88343C531.648 8.88343 527.699 13.4999 527.699 20.1903C527.699 26.838 531.648 31.4545 537.302 31.4545ZM537.302 29.1391C532.77 29.1391 530.242 25.0766 530.242 20.1903C530.242 15.3039 532.77 11.1846 537.302 11.1846C541.833 11.1846 544.361 15.3039 544.361 20.1903C544.361 25.0766 541.833 29.1391 537.302 29.1391Z" fill="#516261"/>
<path d="M537.302 31.4545C542.955 31.4545 546.904 26.838 546.904 20.1903C546.904 13.4999 542.955 8.88343 537.302 8.88343C531.648 8.88343 527.699 13.4999 527.699 20.1903C527.699 26.838 531.648 31.4545 537.302 31.4545ZM537.302 29.1391C532.77 29.1391 530.242 25.0766 530.242 20.1903C530.242 15.3039 532.77 11.1846 537.302 11.1846C541.833 11.1846 544.361 15.3039 544.361 20.1903C544.361 25.0766 541.833 29.1391 537.302 29.1391Z" fill="#325542"/>
<path d="M537.302 31.4545C542.955 31.4545 546.904 26.838 546.904 20.1903C546.904 13.4999 542.955 8.88343 537.302 8.88343C531.648 8.88343 527.699 13.4999 527.699 20.1903C527.699 26.838 531.648 31.4545 537.302 31.4545ZM537.302 29.1391C532.77 29.1391 530.242 25.0766 530.242 20.1903C530.242 15.3039 532.77 11.1846 537.302 11.1846C541.833 11.1846 544.361 15.3039 544.361 20.1903C544.361 25.0766 541.833 29.1391 537.302 29.1391Z" fill="#32601D"/>
<path d="M537.302 31.4545C542.955 31.4545 546.904 26.838 546.904 20.1903C546.904 13.4999 542.955 8.88343 537.302 8.88343C531.648 8.88343 527.699 13.4999 527.699 20.1903C527.699 26.838 531.648 31.4545 537.302 31.4545ZM537.302 29.1391C532.77 29.1391 530.242 25.0766 530.242 20.1903C530.242 15.3039 532.77 11.1846 537.302 11.1846C541.833 11.1846 544.361 15.3039 544.361 20.1903C544.361 25.0766 541.833 29.1391 537.302 29.1391Z" fill="#03582F"/>
<path d="M537.302 31.4545C542.955 31.4545 546.904 26.838 546.904 20.1903C546.904 13.4999 542.955 8.88343 537.302 8.88343C531.648 8.88343 527.699 13.4999 527.699 20.1903C527.699 26.838 531.648 31.4545 537.302 31.4545ZM537.302 29.1391C532.77 29.1391 530.242 25.0766 530.242 20.1903C530.242 15.3039 532.77 11.1846 537.302 11.1846C541.833 11.1846 544.361 15.3039 544.361 20.1903C544.361 25.0766 541.833 29.1391 537.302 29.1391Z" fill="#2A2B2E"/>
<path d="M552.054 30.9999H554.583V16.909C554.583 13.6704 557.068 11.3266 560.478 11.3266C561.145 11.3266 561.77 11.4403 561.997 11.4687V8.89764C561.657 8.88344 561.074 8.85502 560.662 8.85502C557.921 8.85502 555.577 10.3323 554.696 12.534H554.512V9.18173H552.054V30.9999Z" fill="#516261"/>
<path d="M552.054 30.9999H554.583V16.909C554.583 13.6704 557.068 11.3266 560.478 11.3266C561.145 11.3266 561.77 11.4403 561.997 11.4687V8.89764C561.657 8.88344 561.074 8.85502 560.662 8.85502C557.921 8.85502 555.577 10.3323 554.696 12.534H554.512V9.18173H552.054V30.9999Z" fill="#325542"/>
<path d="M552.054 30.9999H554.583V16.909C554.583 13.6704 557.068 11.3266 560.478 11.3266C561.145 11.3266 561.77 11.4403 561.997 11.4687V8.89764C561.657 8.88344 561.074 8.85502 560.662 8.85502C557.921 8.85502 555.577 10.3323 554.696 12.534H554.512V9.18173H552.054V30.9999Z" fill="#32601D"/>
<path d="M552.054 30.9999H554.583V16.909C554.583 13.6704 557.068 11.3266 560.478 11.3266C561.145 11.3266 561.77 11.4403 561.997 11.4687V8.89764C561.657 8.88344 561.074 8.85502 560.662 8.85502C557.921 8.85502 555.577 10.3323 554.696 12.534H554.512V9.18173H552.054V30.9999Z" fill="#03582F"/>
<path d="M552.054 30.9999H554.583V16.909C554.583 13.6704 557.068 11.3266 560.478 11.3266C561.145 11.3266 561.77 11.4403 561.997 11.4687V8.89764C561.657 8.88344 561.074 8.85502 560.662 8.85502C557.921 8.85502 555.577 10.3323 554.696 12.534H554.512V9.18173H552.054V30.9999Z" fill="#2A2B2E"/>
<path d="M565.94 30.9999H568.483V9.18173H565.94V30.9999ZM567.233 5.43173C568.27 5.43173 569.137 4.60787 569.137 3.61355C569.137 2.61923 568.27 1.79536 567.233 1.79536C566.196 1.79536 565.344 2.61923 565.344 3.61355C565.344 4.60787 566.196 5.43173 567.233 5.43173Z" fill="#516261"/>
<path d="M565.94 30.9999H568.483V9.18173H565.94V30.9999ZM567.233 5.43173C568.27 5.43173 569.137 4.60787 569.137 3.61355C569.137 2.61923 568.27 1.79536 567.233 1.79536C566.196 1.79536 565.344 2.61923 565.344 3.61355C565.344 4.60787 566.196 5.43173 567.233 5.43173Z" fill="#325542"/>
<path d="M565.94 30.9999H568.483V9.18173H565.94V30.9999ZM567.233 5.43173C568.27 5.43173 569.137 4.60787 569.137 3.61355C569.137 2.61923 568.27 1.79536 567.233 1.79536C566.196 1.79536 565.344 2.61923 565.344 3.61355C565.344 4.60787 566.196 5.43173 567.233 5.43173Z" fill="#32601D"/>
<path d="M565.94 30.9999H568.483V9.18173H565.94V30.9999ZM567.233 5.43173C568.27 5.43173 569.137 4.60787 569.137 3.61355C569.137 2.61923 568.27 1.79536 567.233 1.79536C566.196 1.79536 565.344 2.61923 565.344 3.61355C565.344 4.60787 566.196 5.43173 567.233 5.43173Z" fill="#03582F"/>
<path d="M565.94 30.9999H568.483V9.18173H565.94V30.9999ZM567.233 5.43173C568.27 5.43173 569.137 4.60787 569.137 3.61355C569.137 2.61923 568.27 1.79536 567.233 1.79536C566.196 1.79536 565.344 2.61923 565.344 3.61355C565.344 4.60787 566.196 5.43173 567.233 5.43173Z" fill="#2A2B2E"/>
<path d="M574.088 30.9999H590.409V28.6135H577.568V28.4289L589.955 11.2698V9.18173H574.628V11.5681H586.702V11.7528L574.088 28.9971V30.9999Z" fill="#516261"/>
<path d="M574.088 30.9999H590.409V28.6135H577.568V28.4289L589.955 11.2698V9.18173H574.628V11.5681H586.702V11.7528L574.088 28.9971V30.9999Z" fill="#325542"/>
<path d="M574.088 30.9999H590.409V28.6135H577.568V28.4289L589.955 11.2698V9.18173H574.628V11.5681H586.702V11.7528L574.088 28.9971V30.9999Z" fill="#32601D"/>
<path d="M574.088 30.9999H590.409V28.6135H577.568V28.4289L589.955 11.2698V9.18173H574.628V11.5681H586.702V11.7528L574.088 28.9971V30.9999Z" fill="#03582F"/>
<path d="M574.088 30.9999H590.409V28.6135H577.568V28.4289L589.955 11.2698V9.18173H574.628V11.5681H586.702V11.7528L574.088 28.9971V30.9999Z" fill="#2A2B2E"/>
<path d="M603.436 31.4545C609.089 31.4545 613.038 26.838 613.038 20.1903C613.038 13.4999 609.089 8.88343 603.436 8.88343C597.783 8.88343 593.834 13.4999 593.834 20.1903C593.834 26.838 597.783 31.4545 603.436 31.4545ZM603.436 29.1391C598.905 29.1391 596.376 25.0766 596.376 20.1903C596.376 15.3039 598.905 11.1846 603.436 11.1846C607.967 11.1846 610.496 15.3039 610.496 20.1903C610.496 25.0766 607.967 29.1391 603.436 29.1391Z" fill="#516261"/>
<path d="M603.436 31.4545C609.089 31.4545 613.038 26.838 613.038 20.1903C613.038 13.4999 609.089 8.88343 603.436 8.88343C597.783 8.88343 593.834 13.4999 593.834 20.1903C593.834 26.838 597.783 31.4545 603.436 31.4545ZM603.436 29.1391C598.905 29.1391 596.376 25.0766 596.376 20.1903C596.376 15.3039 598.905 11.1846 603.436 11.1846C607.967 11.1846 610.496 15.3039 610.496 20.1903C610.496 25.0766 607.967 29.1391 603.436 29.1391Z" fill="#325542"/>
<path d="M603.436 31.4545C609.089 31.4545 613.038 26.838 613.038 20.1903C613.038 13.4999 609.089 8.88343 603.436 8.88343C597.783 8.88343 593.834 13.4999 593.834 20.1903C593.834 26.838 597.783 31.4545 603.436 31.4545ZM603.436 29.1391C598.905 29.1391 596.376 25.0766 596.376 20.1903C596.376 15.3039 598.905 11.1846 603.436 11.1846C607.967 11.1846 610.496 15.3039 610.496 20.1903C610.496 25.0766 607.967 29.1391 603.436 29.1391Z" fill="#32601D"/>
<path d="M603.436 31.4545C609.089 31.4545 613.038 26.838 613.038 20.1903C613.038 13.4999 609.089 8.88343 603.436 8.88343C597.783 8.88343 593.834 13.4999 593.834 20.1903C593.834 26.838 597.783 31.4545 603.436 31.4545ZM603.436 29.1391C598.905 29.1391 596.376 25.0766 596.376 20.1903C596.376 15.3039 598.905 11.1846 603.436 11.1846C607.967 11.1846 610.496 15.3039 610.496 20.1903C610.496 25.0766 607.967 29.1391 603.436 29.1391Z" fill="#03582F"/>
<path d="M603.436 31.4545C609.089 31.4545 613.038 26.838 613.038 20.1903C613.038 13.4999 609.089 8.88343 603.436 8.88343C597.783 8.88343 593.834 13.4999 593.834 20.1903C593.834 26.838 597.783 31.4545 603.436 31.4545ZM603.436 29.1391C598.905 29.1391 596.376 25.0766 596.376 20.1903C596.376 15.3039 598.905 11.1846 603.436 11.1846C607.967 11.1846 610.496 15.3039 610.496 20.1903C610.496 25.0766 607.967 29.1391 603.436 29.1391Z" fill="#2A2B2E"/>
<path d="M620.717 17.3635C620.717 13.5567 623.217 11.213 626.655 11.213C630.007 11.213 632.166 13.4573 632.166 17.0226V30.9999H634.694V16.8664C634.694 11.6959 631.697 8.89764 627.294 8.89764C624.098 8.89764 621.896 10.3749 620.873 12.605H620.646V9.18173H618.189V30.9999H620.717V17.3635Z" fill="#516261"/>
<path d="M620.717 17.3635C620.717 13.5567 623.217 11.213 626.655 11.213C630.007 11.213 632.166 13.4573 632.166 17.0226V30.9999H634.694V16.8664C634.694 11.6959 631.697 8.89764 627.294 8.89764C624.098 8.89764 621.896 10.3749 620.873 12.605H620.646V9.18173H618.189V30.9999H620.717V17.3635Z" fill="#325542"/>
<path d="M620.717 17.3635C620.717 13.5567 623.217 11.213 626.655 11.213C630.007 11.213 632.166 13.4573 632.166 17.0226V30.9999H634.694V16.8664C634.694 11.6959 631.697 8.89764 627.294 8.89764C624.098 8.89764 621.896 10.3749 620.873 12.605H620.646V9.18173H618.189V30.9999H620.717V17.3635Z" fill="#32601D"/>
<path d="M620.717 17.3635C620.717 13.5567 623.217 11.213 626.655 11.213C630.007 11.213 632.166 13.4573 632.166 17.0226V30.9999H634.694V16.8664C634.694 11.6959 631.697 8.89764 627.294 8.89764C624.098 8.89764 621.896 10.3749 620.873 12.605H620.646V9.18173H618.189V30.9999H620.717V17.3635Z" fill="#03582F"/>
<path d="M620.717 17.3635C620.717 13.5567 623.217 11.213 626.655 11.213C630.007 11.213 632.166 13.4573 632.166 17.0226V30.9999H634.694V16.8664C634.694 11.6959 631.697 8.89764 627.294 8.89764C624.098 8.89764 621.896 10.3749 620.873 12.605H620.646V9.18173H618.189V30.9999H620.717V17.3635Z" fill="#2A2B2E"/>
<path d="M649.547 9.18173H644.93V3.95446H642.387V9.18173H639.135V11.3834H642.387V25.9005C642.387 29.4658 645.2 31.3266 647.998 31.3266C649.049 31.3266 649.76 31.1278 650.243 30.9431L649.703 28.6562C649.348 28.7556 648.893 28.855 648.225 28.855C646.507 28.855 644.93 28.0454 644.93 25.3039V11.3834H649.547V9.18173Z" fill="#516261"/>
<path d="M649.547 9.18173H644.93V3.95446H642.387V9.18173H639.135V11.3834H642.387V25.9005C642.387 29.4658 645.2 31.3266 647.998 31.3266C649.049 31.3266 649.76 31.1278 650.243 30.9431L649.703 28.6562C649.348 28.7556 648.893 28.855 648.225 28.855C646.507 28.855 644.93 28.0454 644.93 25.3039V11.3834H649.547V9.18173Z" fill="#325542"/>
<path d="M649.547 9.18173H644.93V3.95446H642.387V9.18173H639.135V11.3834H642.387V25.9005C642.387 29.4658 645.2 31.3266 647.998 31.3266C649.049 31.3266 649.76 31.1278 650.243 30.9431L649.703 28.6562C649.348 28.7556 648.893 28.855 648.225 28.855C646.507 28.855 644.93 28.0454 644.93 25.3039V11.3834H649.547V9.18173Z" fill="#32601D"/>
<path d="M649.547 9.18173H644.93V3.95446H642.387V9.18173H639.135V11.3834H642.387V25.9005C642.387 29.4658 645.2 31.3266 647.998 31.3266C649.049 31.3266 649.76 31.1278 650.243 30.9431L649.703 28.6562C649.348 28.7556 648.893 28.855 648.225 28.855C646.507 28.855 644.93 28.0454 644.93 25.3039V11.3834H649.547V9.18173Z" fill="#03582F"/>
<path d="M649.547 9.18173H644.93V3.95446H642.387V9.18173H639.135V11.3834H642.387V25.9005C642.387 29.4658 645.2 31.3266 647.998 31.3266C649.049 31.3266 649.76 31.1278 650.243 30.9431L649.703 28.6562C649.348 28.7556 648.893 28.855 648.225 28.855C646.507 28.855 644.93 28.0454 644.93 25.3039V11.3834H649.547V9.18173Z" fill="#2A2B2E"/>
<path d="M660.982 31.4971C664.619 31.4971 666.835 29.48 667.744 27.5482H667.9V30.9999H670.428V16.1846C670.428 10.3323 666.025 8.88343 662.687 8.88343C659.349 8.88343 655.911 10.2045 654.434 13.7698L656.835 14.6363C657.63 12.7613 659.605 11.1562 662.758 11.1562C666.068 11.1562 667.9 12.9743 667.9 15.9573V16.4687C667.9 18.1164 665.855 18.1448 662.19 18.5993C657.261 19.2101 653.809 20.588 653.809 24.9062C653.809 29.1107 657.019 31.4971 660.982 31.4971ZM661.323 29.1817C658.468 29.1817 656.338 27.6618 656.338 25.0198C656.338 22.3778 658.497 21.2698 662.19 20.8153C663.98 20.6022 667.161 20.2045 667.9 19.48V22.6334C667.9 26.213 665.357 29.1817 661.323 29.1817Z" fill="#516261"/>
<path d="M660.982 31.4971C664.619 31.4971 666.835 29.48 667.744 27.5482H667.9V30.9999H670.428V16.1846C670.428 10.3323 666.025 8.88343 662.687 8.88343C659.349 8.88343 655.911 10.2045 654.434 13.7698L656.835 14.6363C657.63 12.7613 659.605 11.1562 662.758 11.1562C666.068 11.1562 667.9 12.9743 667.9 15.9573V16.4687C667.9 18.1164 665.855 18.1448 662.19 18.5993C657.261 19.2101 653.809 20.588 653.809 24.9062C653.809 29.1107 657.019 31.4971 660.982 31.4971ZM661.323 29.1817C658.468 29.1817 656.338 27.6618 656.338 25.0198C656.338 22.3778 658.497 21.2698 662.19 20.8153C663.98 20.6022 667.161 20.2045 667.9 19.48V22.6334C667.9 26.213 665.357 29.1817 661.323 29.1817Z" fill="#325542"/>
<path d="M660.982 31.4971C664.619 31.4971 666.835 29.48 667.744 27.5482H667.9V30.9999H670.428V16.1846C670.428 10.3323 666.025 8.88343 662.687 8.88343C659.349 8.88343 655.911 10.2045 654.434 13.7698L656.835 14.6363C657.63 12.7613 659.605 11.1562 662.758 11.1562C666.068 11.1562 667.9 12.9743 667.9 15.9573V16.4687C667.9 18.1164 665.855 18.1448 662.19 18.5993C657.261 19.2101 653.809 20.588 653.809 24.9062C653.809 29.1107 657.019 31.4971 660.982 31.4971ZM661.323 29.1817C658.468 29.1817 656.338 27.6618 656.338 25.0198C656.338 22.3778 658.497 21.2698 662.19 20.8153C663.98 20.6022 667.161 20.2045 667.9 19.48V22.6334C667.9 26.213 665.357 29.1817 661.323 29.1817Z" fill="#32601D"/>
<path d="M660.982 31.4971C664.619 31.4971 666.835 29.48 667.744 27.5482H667.9V30.9999H670.428V16.1846C670.428 10.3323 666.025 8.88343 662.687 8.88343C659.349 8.88343 655.911 10.2045 654.434 13.7698L656.835 14.6363C657.63 12.7613 659.605 11.1562 662.758 11.1562C666.068 11.1562 667.9 12.9743 667.9 15.9573V16.4687C667.9 18.1164 665.855 18.1448 662.19 18.5993C657.261 19.2101 653.809 20.588 653.809 24.9062C653.809 29.1107 657.019 31.4971 660.982 31.4971ZM661.323 29.1817C658.468 29.1817 656.338 27.6618 656.338 25.0198C656.338 22.3778 658.497 21.2698 662.19 20.8153C663.98 20.6022 667.161 20.2045 667.9 19.48V22.6334C667.9 26.213 665.357 29.1817 661.323 29.1817Z" fill="#03582F"/>
<path d="M660.982 31.4971C664.619 31.4971 666.835 29.48 667.744 27.5482H667.9V30.9999H670.428V16.1846C670.428 10.3323 666.025 8.88343 662.687 8.88343C659.349 8.88343 655.911 10.2045 654.434 13.7698L656.835 14.6363C657.63 12.7613 659.605 11.1562 662.758 11.1562C666.068 11.1562 667.9 12.9743 667.9 15.9573V16.4687C667.9 18.1164 665.855 18.1448 662.19 18.5993C657.261 19.2101 653.809 20.588 653.809 24.9062C653.809 29.1107 657.019 31.4971 660.982 31.4971ZM661.323 29.1817C658.468 29.1817 656.338 27.6618 656.338 25.0198C656.338 22.3778 658.497 21.2698 662.19 20.8153C663.98 20.6022 667.161 20.2045 667.9 19.48V22.6334C667.9 26.213 665.357 29.1817 661.323 29.1817Z" fill="#2A2B2E"/>
<path d="M679.283 1.909H676.754V30.9999H679.283V1.909Z" fill="#516261"/>
<path d="M679.283 1.909H676.754V30.9999H679.283V1.909Z" fill="#325542"/>
<path d="M679.283 1.909H676.754V30.9999H679.283V1.909Z" fill="#32601D"/>
<path d="M679.283 1.909H676.754V30.9999H679.283V1.909Z" fill="#03582F"/>
<path d="M679.283 1.909H676.754V30.9999H679.283V1.909Z" fill="#2A2B2E"/>
<path d="M705.4 9.18173H700.571V6.51127C700.571 4.22434 701.807 2.94593 704.008 2.94593C704.846 2.94593 705.358 3.13059 705.741 3.25843L706.48 1.04252C705.969 0.829457 705.116 0.55957 703.781 0.55957C700.812 0.55957 698.028 2.46298 698.028 5.98571V9.18173H694.676V11.3834H698.028V30.9999H700.557L700.571 11.3834H705.4V9.18173Z" fill="#516261"/>
<path d="M705.4 9.18173H700.571V6.51127C700.571 4.22434 701.807 2.94593 704.008 2.94593C704.846 2.94593 705.358 3.13059 705.741 3.25843L706.48 1.04252C705.969 0.829457 705.116 0.55957 703.781 0.55957C700.812 0.55957 698.028 2.46298 698.028 5.98571V9.18173H694.676V11.3834H698.028V30.9999H700.557L700.571 11.3834H705.4V9.18173Z" fill="#325542"/>
<path d="M705.4 9.18173H700.571V6.51127C700.571 4.22434 701.807 2.94593 704.008 2.94593C704.846 2.94593 705.358 3.13059 705.741 3.25843L706.48 1.04252C705.969 0.829457 705.116 0.55957 703.781 0.55957C700.812 0.55957 698.028 2.46298 698.028 5.98571V9.18173H694.676V11.3834H698.028V30.9999H700.557L700.571 11.3834H705.4V9.18173Z" fill="#32601D"/>
<path d="M705.4 9.18173H700.571V6.51127C700.571 4.22434 701.807 2.94593 704.008 2.94593C704.846 2.94593 705.358 3.13059 705.741 3.25843L706.48 1.04252C705.969 0.829457 705.116 0.55957 703.781 0.55957C700.812 0.55957 698.028 2.46298 698.028 5.98571V9.18173H694.676V11.3834H698.028V30.9999H700.557L700.571 11.3834H705.4V9.18173Z" fill="#03582F"/>
<path d="M705.4 9.18173H700.571V6.51127C700.571 4.22434 701.807 2.94593 704.008 2.94593C704.846 2.94593 705.358 3.13059 705.741 3.25843L706.48 1.04252C705.969 0.829457 705.116 0.55957 703.781 0.55957C700.812 0.55957 698.028 2.46298 698.028 5.98571V9.18173H694.676V11.3834H698.028V30.9999H700.557L700.571 11.3834H705.4V9.18173Z" fill="#2A2B2E"/>
<path d="M710.075 30.9999H712.618V9.18173H710.075V30.9999ZM711.368 5.43173C712.404 5.43173 713.271 4.60787 713.271 3.61355C713.271 2.61923 712.404 1.79536 711.368 1.79536C710.331 1.79536 709.478 2.61923 709.478 3.61355C709.478 4.60787 710.331 5.43173 711.368 5.43173Z" fill="#516261"/>
<path d="M710.075 30.9999H712.618V9.18173H710.075V30.9999ZM711.368 5.43173C712.404 5.43173 713.271 4.60787 713.271 3.61355C713.271 2.61923 712.404 1.79536 711.368 1.79536C710.331 1.79536 709.478 2.61923 709.478 3.61355C709.478 4.60787 710.331 5.43173 711.368 5.43173Z" fill="#325542"/>
<path d="M710.075 30.9999H712.618V9.18173H710.075V30.9999ZM711.368 5.43173C712.404 5.43173 713.271 4.60787 713.271 3.61355C713.271 2.61923 712.404 1.79536 711.368 1.79536C710.331 1.79536 709.478 2.61923 709.478 3.61355C709.478 4.60787 710.331 5.43173 711.368 5.43173Z" fill="#32601D"/>
<path d="M710.075 30.9999H712.618V9.18173H710.075V30.9999ZM711.368 5.43173C712.404 5.43173 713.271 4.60787 713.271 3.61355C713.271 2.61923 712.404 1.79536 711.368 1.79536C710.331 1.79536 709.478 2.61923 709.478 3.61355C709.478 4.60787 710.331 5.43173 711.368 5.43173Z" fill="#03582F"/>
<path d="M710.075 30.9999H712.618V9.18173H710.075V30.9999ZM711.368 5.43173C712.404 5.43173 713.271 4.60787 713.271 3.61355C713.271 2.61923 712.404 1.79536 711.368 1.79536C710.331 1.79536 709.478 2.61923 709.478 3.61355C709.478 4.60787 710.331 5.43173 711.368 5.43173Z" fill="#2A2B2E"/>
<path d="M721.433 1.909H718.904V30.9999H721.433V1.909Z" fill="#516261"/>
<path d="M721.433 1.909H718.904V30.9999H721.433V1.909Z" fill="#325542"/>
<path d="M721.433 1.909H718.904V30.9999H721.433V1.909Z" fill="#32601D"/>
<path d="M721.433 1.909H718.904V30.9999H721.433V1.909Z" fill="#03582F"/>
<path d="M721.433 1.909H718.904V30.9999H721.433V1.909Z" fill="#2A2B2E"/>
<path d="M736.317 9.18173H731.7V3.95446H729.158V9.18173H725.905V11.3834H729.158V25.9005C729.158 29.4658 731.97 31.3266 734.768 31.3266C735.82 31.3266 736.53 31.1278 737.013 30.9431L736.473 28.6562C736.118 28.7556 735.663 28.855 734.996 28.855C733.277 28.855 731.7 28.0454 731.7 25.3039V11.3834H736.317V9.18173Z" fill="#516261"/>
<path d="M736.317 9.18173H731.7V3.95446H729.158V9.18173H725.905V11.3834H729.158V25.9005C729.158 29.4658 731.97 31.3266 734.768 31.3266C735.82 31.3266 736.53 31.1278 737.013 30.9431L736.473 28.6562C736.118 28.7556 735.663 28.855 734.996 28.855C733.277 28.855 731.7 28.0454 731.7 25.3039V11.3834H736.317V9.18173Z" fill="#325542"/>
<path d="M736.317 9.18173H731.7V3.95446H729.158V9.18173H725.905V11.3834H729.158V25.9005C729.158 29.4658 731.97 31.3266 734.768 31.3266C735.82 31.3266 736.53 31.1278 737.013 30.9431L736.473 28.6562C736.118 28.7556 735.663 28.855 734.996 28.855C733.277 28.855 731.7 28.0454 731.7 25.3039V11.3834H736.317V9.18173Z" fill="#32601D"/>
<path d="M736.317 9.18173H731.7V3.95446H729.158V9.18173H725.905V11.3834H729.158V25.9005C729.158 29.4658 731.97 31.3266 734.768 31.3266C735.82 31.3266 736.53 31.1278 737.013 30.9431L736.473 28.6562C736.118 28.7556 735.663 28.855 734.996 28.855C733.277 28.855 731.7 28.0454 731.7 25.3039V11.3834H736.317V9.18173Z" fill="#03582F"/>
<path d="M736.317 9.18173H731.7V3.95446H729.158V9.18173H725.905V11.3834H729.158V25.9005C729.158 29.4658 731.97 31.3266 734.768 31.3266C735.82 31.3266 736.53 31.1278 737.013 30.9431L736.473 28.6562C736.118 28.7556 735.663 28.855 734.996 28.855C733.277 28.855 731.7 28.0454 731.7 25.3039V11.3834H736.317V9.18173Z" fill="#2A2B2E"/>
<path d="M750.246 31.4545C754.621 31.4545 757.561 29.0823 758.555 26.3408L756.155 25.5596C755.317 27.5198 753.342 29.1391 750.246 29.1391C745.785 29.1391 742.959 25.8863 742.845 20.8437H759.095V19.5937C759.095 12.3067 754.592 8.88343 749.862 8.88343C744.209 8.88343 740.302 13.6135 740.302 20.2187C740.302 26.838 744.138 31.4545 750.246 31.4545ZM742.859 18.6135C743.129 14.551 745.871 11.1846 749.862 11.1846C753.768 11.1846 756.51 14.409 756.51 18.6135H742.859Z" fill="#516261"/>
<path d="M750.246 31.4545C754.621 31.4545 757.561 29.0823 758.555 26.3408L756.155 25.5596C755.317 27.5198 753.342 29.1391 750.246 29.1391C745.785 29.1391 742.959 25.8863 742.845 20.8437H759.095V19.5937C759.095 12.3067 754.592 8.88343 749.862 8.88343C744.209 8.88343 740.302 13.6135 740.302 20.2187C740.302 26.838 744.138 31.4545 750.246 31.4545ZM742.859 18.6135C743.129 14.551 745.871 11.1846 749.862 11.1846C753.768 11.1846 756.51 14.409 756.51 18.6135H742.859Z" fill="#325542"/>
<path d="M750.246 31.4545C754.621 31.4545 757.561 29.0823 758.555 26.3408L756.155 25.5596C755.317 27.5198 753.342 29.1391 750.246 29.1391C745.785 29.1391 742.959 25.8863 742.845 20.8437H759.095V19.5937C759.095 12.3067 754.592 8.88343 749.862 8.88343C744.209 8.88343 740.302 13.6135 740.302 20.2187C740.302 26.838 744.138 31.4545 750.246 31.4545ZM742.859 18.6135C743.129 14.551 745.871 11.1846 749.862 11.1846C753.768 11.1846 756.51 14.409 756.51 18.6135H742.859Z" fill="#32601D"/>
<path d="M750.246 31.4545C754.621 31.4545 757.561 29.0823 758.555 26.3408L756.155 25.5596C755.317 27.5198 753.342 29.1391 750.246 29.1391C745.785 29.1391 742.959 25.8863 742.845 20.8437H759.095V19.5937C759.095 12.3067 754.592 8.88343 749.862 8.88343C744.209 8.88343 740.302 13.6135 740.302 20.2187C740.302 26.838 744.138 31.4545 750.246 31.4545ZM742.859 18.6135C743.129 14.551 745.871 11.1846 749.862 11.1846C753.768 11.1846 756.51 14.409 756.51 18.6135H742.859Z" fill="#03582F"/>
<path d="M750.246 31.4545C754.621 31.4545 757.561 29.0823 758.555 26.3408L756.155 25.5596C755.317 27.5198 753.342 29.1391 750.246 29.1391C745.785 29.1391 742.959 25.8863 742.845 20.8437H759.095V19.5937C759.095 12.3067 754.592 8.88343 749.862 8.88343C744.209 8.88343 740.302 13.6135 740.302 20.2187C740.302 26.838 744.138 31.4545 750.246 31.4545ZM742.859 18.6135C743.129 14.551 745.871 11.1846 749.862 11.1846C753.768 11.1846 756.51 14.409 756.51 18.6135H742.859Z" fill="#2A2B2E"/>
<path d="M764.267 30.9999H766.795V16.909C766.795 13.6704 769.281 11.3266 772.69 11.3266C773.358 11.3266 773.983 11.4403 774.21 11.4687V8.89764C773.869 8.88344 773.287 8.85502 772.875 8.85502C770.133 8.85502 767.789 10.3323 766.909 12.534H766.724V9.18173H764.267V30.9999Z" fill="#516261"/>
<path d="M764.267 30.9999H766.795V16.909C766.795 13.6704 769.281 11.3266 772.69 11.3266C773.358 11.3266 773.983 11.4403 774.21 11.4687V8.89764C773.869 8.88344 773.287 8.85502 772.875 8.85502C770.133 8.85502 767.789 10.3323 766.909 12.534H766.724V9.18173H764.267V30.9999Z" fill="#325542"/>
<path d="M764.267 30.9999H766.795V16.909C766.795 13.6704 769.281 11.3266 772.69 11.3266C773.358 11.3266 773.983 11.4403 774.21 11.4687V8.89764C773.869 8.88344 773.287 8.85502 772.875 8.85502C770.133 8.85502 767.789 10.3323 766.909 12.534H766.724V9.18173H764.267V30.9999Z" fill="#32601D"/>
<path d="M764.267 30.9999H766.795V16.909C766.795 13.6704 769.281 11.3266 772.69 11.3266C773.358 11.3266 773.983 11.4403 774.21 11.4687V8.89764C773.869 8.88344 773.287 8.85502 772.875 8.85502C770.133 8.85502 767.789 10.3323 766.909 12.534H766.724V9.18173H764.267V30.9999Z" fill="#03582F"/>
<path d="M764.267 30.9999H766.795V16.909C766.795 13.6704 769.281 11.3266 772.69 11.3266C773.358 11.3266 773.983 11.4403 774.21 11.4687V8.89764C773.869 8.88344 773.287 8.85502 772.875 8.85502C770.133 8.85502 767.789 10.3323 766.909 12.534H766.724V9.18173H764.267V30.9999Z" fill="#2A2B2E"/>
<path d="M792.784 13.9687C791.718 10.8153 789.389 8.88343 785.397 8.88343C780.994 8.88343 777.798 11.3976 777.798 14.9914C777.798 17.9175 779.573 19.9062 783.366 20.8153L786.931 21.6675C789.332 22.2357 790.483 23.4715 790.483 25.2187C790.483 27.4914 788.309 29.1817 784.957 29.1817C781.974 29.1817 780.113 27.8323 779.502 25.2471L777.073 25.8437C777.841 29.48 780.724 31.4545 785 31.4545C789.801 31.4545 793.096 28.8124 793.096 25.105C793.096 22.1931 791.264 20.2471 787.613 19.3522L784.318 18.5425C781.605 17.8607 780.341 16.767 780.341 14.8778C780.341 12.6618 782.457 11.1135 785.397 11.1135C788.338 11.1135 789.787 12.6618 790.468 14.6221L792.784 13.9687Z" fill="#516261"/>
<path d="M792.784 13.9687C791.718 10.8153 789.389 8.88343 785.397 8.88343C780.994 8.88343 777.798 11.3976 777.798 14.9914C777.798 17.9175 779.573 19.9062 783.366 20.8153L786.931 21.6675C789.332 22.2357 790.483 23.4715 790.483 25.2187C790.483 27.4914 788.309 29.1817 784.957 29.1817C781.974 29.1817 780.113 27.8323 779.502 25.2471L777.073 25.8437C777.841 29.48 780.724 31.4545 785 31.4545C789.801 31.4545 793.096 28.8124 793.096 25.105C793.096 22.1931 791.264 20.2471 787.613 19.3522L784.318 18.5425C781.605 17.8607 780.341 16.767 780.341 14.8778C780.341 12.6618 782.457 11.1135 785.397 11.1135C788.338 11.1135 789.787 12.6618 790.468 14.6221L792.784 13.9687Z" fill="#325542"/>
<path d="M792.784 13.9687C791.718 10.8153 789.389 8.88343 785.397 8.88343C780.994 8.88343 777.798 11.3976 777.798 14.9914C777.798 17.9175 779.573 19.9062 783.366 20.8153L786.931 21.6675C789.332 22.2357 790.483 23.4715 790.483 25.2187C790.483 27.4914 788.309 29.1817 784.957 29.1817C781.974 29.1817 780.113 27.8323 779.502 25.2471L777.073 25.8437C777.841 29.48 780.724 31.4545 785 31.4545C789.801 31.4545 793.096 28.8124 793.096 25.105C793.096 22.1931 791.264 20.2471 787.613 19.3522L784.318 18.5425C781.605 17.8607 780.341 16.767 780.341 14.8778C780.341 12.6618 782.457 11.1135 785.397 11.1135C788.338 11.1135 789.787 12.6618 790.468 14.6221L792.784 13.9687Z" fill="#32601D"/>
<path d="M792.784 13.9687C791.718 10.8153 789.389 8.88343 785.397 8.88343C780.994 8.88343 777.798 11.3976 777.798 14.9914C777.798 17.9175 779.573 19.9062 783.366 20.8153L786.931 21.6675C789.332 22.2357 790.483 23.4715 790.483 25.2187C790.483 27.4914 788.309 29.1817 784.957 29.1817C781.974 29.1817 780.113 27.8323 779.502 25.2471L777.073 25.8437C777.841 29.48 780.724 31.4545 785 31.4545C789.801 31.4545 793.096 28.8124 793.096 25.105C793.096 22.1931 791.264 20.2471 787.613 19.3522L784.318 18.5425C781.605 17.8607 780.341 16.767 780.341 14.8778C780.341 12.6618 782.457 11.1135 785.397 11.1135C788.338 11.1135 789.787 12.6618 790.468 14.6221L792.784 13.9687Z" fill="#03582F"/>
<path d="M792.784 13.9687C791.718 10.8153 789.389 8.88343 785.397 8.88343C780.994 8.88343 777.798 11.3976 777.798 14.9914C777.798 17.9175 779.573 19.9062 783.366 20.8153L786.931 21.6675C789.332 22.2357 790.483 23.4715 790.483 25.2187C790.483 27.4914 788.309 29.1817 784.957 29.1817C781.974 29.1817 780.113 27.8323 779.502 25.2471L777.073 25.8437C777.841 29.48 780.724 31.4545 785 31.4545C789.801 31.4545 793.096 28.8124 793.096 25.105C793.096 22.1931 791.264 20.2471 787.613 19.3522L784.318 18.5425C781.605 17.8607 780.341 16.767 780.341 14.8778C780.341 12.6618 782.457 11.1135 785.397 11.1135C788.338 11.1135 789.787 12.6618 790.468 14.6221L792.784 13.9687Z" fill="#2A2B2E"/>
<path d="M800.249 31.213C801.386 31.213 802.295 30.2897 802.295 29.1675C802.295 28.0312 801.386 27.1221 800.249 27.1221C799.127 27.1221 798.204 28.0312 798.204 29.1675C798.204 30.2897 799.127 31.213 800.249 31.213Z" fill="#516261"/>
<path d="M800.249 31.213C801.386 31.213 802.295 30.2897 802.295 29.1675C802.295 28.0312 801.386 27.1221 800.249 27.1221C799.127 27.1221 798.204 28.0312 798.204 29.1675C798.204 30.2897 799.127 31.213 800.249 31.213Z" fill="#325542"/>
<path d="M800.249 31.213C801.386 31.213 802.295 30.2897 802.295 29.1675C802.295 28.0312 801.386 27.1221 800.249 27.1221C799.127 27.1221 798.204 28.0312 798.204 29.1675C798.204 30.2897 799.127 31.213 800.249 31.213Z" fill="#32601D"/>
<path d="M800.249 31.213C801.386 31.213 802.295 30.2897 802.295 29.1675C802.295 28.0312 801.386 27.1221 800.249 27.1221C799.127 27.1221 798.204 28.0312 798.204 29.1675C798.204 30.2897 799.127 31.213 800.249 31.213Z" fill="#03582F"/>
<path d="M800.249 31.213C801.386 31.213 802.295 30.2897 802.295 29.1675C802.295 28.0312 801.386 27.1221 800.249 27.1221C799.127 27.1221 798.204 28.0312 798.204 29.1675C798.204 30.2897 799.127 31.213 800.249 31.213Z" fill="#2A2B2E"/>
</svg>
