<svg width="212" height="54" viewBox="0 0 212 54" fill="none" xmlns="http://www.w3.org/2000/svg">
<path d="M4.97363 17C9.84863 17 12.5986 13.9688 12.5986 8.96875C12.5986 4 9.84863 1 5.19238 1H0.0361328V17H4.97363ZM1.97363 15.2813V2.71875H5.06738C8.81738 2.71875 10.7236 5.09375 10.7236 8.96875C10.7236 12.875 8.81738 15.2813 4.84863 15.2813H1.97363Z" fill="#482475"/>
<path d="M4.97363 17C9.84863 17 12.5986 13.9688 12.5986 8.96875C12.5986 4 9.84863 1 5.19238 1H0.0361328V17H4.97363ZM1.97363 15.2813V2.71875H5.06738C8.81738 2.71875 10.7236 5.09375 10.7236 8.96875C10.7236 12.875 8.81738 15.2813 4.84863 15.2813H1.97363Z" fill="#1C3C52"/>
<path d="M20.6321 17.25C23.0696 17.25 24.8508 16.0313 25.4133 14.2188L23.6321 13.7188C23.1633 14.9688 22.0774 15.5938 20.6321 15.5938C18.468 15.5938 16.9758 14.1953 16.8899 11.625H25.6008V10.8438C25.6008 6.375 22.9446 4.84375 20.4446 4.84375C17.1946 4.84375 15.0383 7.40625 15.0383 11.0938C15.0383 14.7813 17.1633 17.25 20.6321 17.25ZM16.8899 10.0313C17.0149 8.16406 18.3352 6.5 20.4446 6.5C22.4446 6.5 23.7258 8 23.7258 10.0313H16.8899Z" fill="#482475"/>
<path d="M20.6321 17.25C23.0696 17.25 24.8508 16.0313 25.4133 14.2188L23.6321 13.7188C23.1633 14.9688 22.0774 15.5938 20.6321 15.5938C18.468 15.5938 16.9758 14.1953 16.8899 11.625H25.6008V10.8438C25.6008 6.375 22.9446 4.84375 20.4446 4.84375C17.1946 4.84375 15.0383 7.40625 15.0383 11.0938C15.0383 14.7813 17.1633 17.25 20.6321 17.25ZM16.8899 10.0313C17.0149 8.16406 18.3352 6.5 20.4446 6.5C22.4446 6.5 23.7258 8 23.7258 10.0313H16.8899Z" fill="#1C3C52"/>
<path d="M36.9077 7.6875C36.3296 5.98438 35.0327 4.84375 32.6577 4.84375C30.1265 4.84375 28.2515 6.28125 28.2515 8.3125C28.2515 9.96875 29.2358 11.0781 31.439 11.5938L33.439 12.0625C34.6499 12.3438 35.2202 12.9219 35.2202 13.75C35.2202 14.7813 34.1265 15.625 32.4077 15.625C30.8999 15.625 29.9546 14.9766 29.6265 13.6875L27.8765 14.125C28.3062 16.1641 29.9858 17.25 32.439 17.25C35.228 17.25 37.1265 15.7266 37.1265 13.6563C37.1265 11.9844 36.0796 10.9297 33.939 10.4063L32.1577 9.96875C30.7358 9.61719 30.0952 9.14063 30.0952 8.21875C30.0952 7.1875 31.189 6.4375 32.6577 6.4375C34.2671 6.4375 34.9312 7.32813 35.2515 8.15625L36.9077 7.6875Z" fill="#482475"/>
<path d="M36.9077 7.6875C36.3296 5.98438 35.0327 4.84375 32.6577 4.84375C30.1265 4.84375 28.2515 6.28125 28.2515 8.3125C28.2515 9.96875 29.2358 11.0781 31.439 11.5938L33.439 12.0625C34.6499 12.3438 35.2202 12.9219 35.2202 13.75C35.2202 14.7813 34.1265 15.625 32.4077 15.625C30.8999 15.625 29.9546 14.9766 29.6265 13.6875L27.8765 14.125C28.3062 16.1641 29.9858 17.25 32.439 17.25C35.228 17.25 37.1265 15.7266 37.1265 13.6563C37.1265 11.9844 36.0796 10.9297 33.939 10.4063L32.1577 9.96875C30.7358 9.61719 30.0952 9.14063 30.0952 8.21875C30.0952 7.1875 31.189 6.4375 32.6577 6.4375C34.2671 6.4375 34.9312 7.32813 35.2515 8.15625L36.9077 7.6875Z" fill="#1C3C52"/>
<path d="M39.9041 17H41.7478V5H39.9041V17ZM40.8416 3C41.5603 3 42.1541 2.4375 42.1541 1.75C42.1541 1.0625 41.5603 0.500001 40.8416 0.500001C40.1228 0.500001 39.5291 1.0625 39.5291 1.75C39.5291 2.4375 40.1228 3 40.8416 3Z" fill="#482475"/>
<path d="M39.9041 17H41.7478V5H39.9041V17ZM40.8416 3C41.5603 3 42.1541 2.4375 42.1541 1.75C42.1541 1.0625 41.5603 0.500001 40.8416 0.500001C40.1228 0.500001 39.5291 1.0625 39.5291 1.75C39.5291 2.4375 40.1228 3 40.8416 3Z" fill="#1C3C52"/>
<path d="M49.9707 21.75C52.8457 21.75 55.1582 20.4375 55.1582 17.3438V5H53.377V6.90625H53.1895C52.7832 6.28125 52.0332 4.84375 49.6895 4.84375C46.6582 4.84375 44.5645 7.25 44.5645 10.9375C44.5645 14.6875 46.752 16.8125 49.6582 16.8125C52.002 16.8125 52.752 15.4375 53.1582 14.7813H53.3145V17.2188C53.3145 19.2188 51.9082 20.125 49.9707 20.125C47.791 20.125 47.0254 18.9766 46.5332 18.3125L45.0645 19.3438C45.8145 20.6016 47.291 21.75 49.9707 21.75ZM49.9082 15.1563C47.5957 15.1563 46.4082 13.4063 46.4082 10.9063C46.4082 8.46875 47.5645 6.5 49.9082 6.5C52.1582 6.5 53.3457 8.3125 53.3457 10.9063C53.3457 13.5625 52.127 15.1563 49.9082 15.1563Z" fill="#482475"/>
<path d="M49.9707 21.75C52.8457 21.75 55.1582 20.4375 55.1582 17.3438V5H53.377V6.90625H53.1895C52.7832 6.28125 52.0332 4.84375 49.6895 4.84375C46.6582 4.84375 44.5645 7.25 44.5645 10.9375C44.5645 14.6875 46.752 16.8125 49.6582 16.8125C52.002 16.8125 52.752 15.4375 53.1582 14.7813H53.3145V17.2188C53.3145 19.2188 51.9082 20.125 49.9707 20.125C47.791 20.125 47.0254 18.9766 46.5332 18.3125L45.0645 19.3438C45.8145 20.6016 47.291 21.75 49.9707 21.75ZM49.9082 15.1563C47.5957 15.1563 46.4082 13.4063 46.4082 10.9063C46.4082 8.46875 47.5645 6.5 49.9082 6.5C52.1582 6.5 53.3457 8.3125 53.3457 10.9063C53.3457 13.5625 52.127 15.1563 49.9082 15.1563Z" fill="#1C3C52"/>
<path d="M60.3792 9.78125C60.3792 7.6875 61.676 6.5 63.4417 6.5C65.1526 6.5 66.1917 7.61719 66.1917 9.5V17H68.0354V9.375C68.0354 6.3125 66.4026 4.84375 63.9729 4.84375C62.1604 4.84375 61.0354 5.65625 60.4729 6.875H60.3167V5H58.5354V17H60.3792V9.78125Z" fill="#482475"/>
<path d="M60.3792 9.78125C60.3792 7.6875 61.676 6.5 63.4417 6.5C65.1526 6.5 66.1917 7.61719 66.1917 9.5V17H68.0354V9.375C68.0354 6.3125 66.4026 4.84375 63.9729 4.84375C62.1604 4.84375 61.0354 5.65625 60.4729 6.875H60.3167V5H58.5354V17H60.3792V9.78125Z" fill="#1C3C52"/>
<path d="M71.4068 17H73.2505V5H71.4068V17ZM72.3443 3C73.063 3 73.6568 2.4375 73.6568 1.75C73.6568 1.0625 73.063 0.500001 72.3443 0.500001C71.6255 0.500001 71.0318 1.0625 71.0318 1.75C71.0318 2.4375 71.6255 3 72.3443 3Z" fill="#482475"/>
<path d="M71.4068 17H73.2505V5H71.4068V17ZM72.3443 3C73.063 3 73.6568 2.4375 73.6568 1.75C73.6568 1.0625 73.063 0.500001 72.3443 0.500001C71.6255 0.500001 71.0318 1.0625 71.0318 1.75C71.0318 2.4375 71.6255 3 72.3443 3Z" fill="#1C3C52"/>
<path d="M78.4734 9.78125C78.4734 7.6875 79.7703 6.5 81.5359 6.5C83.2468 6.5 84.2859 7.61719 84.2859 9.5V17H86.1297V9.375C86.1297 6.3125 84.4968 4.84375 82.0672 4.84375C80.2547 4.84375 79.1297 5.65625 78.5672 6.875H78.4109V5H76.6297V17H78.4734V9.78125Z" fill="#482475"/>
<path d="M78.4734 9.78125C78.4734 7.6875 79.7703 6.5 81.5359 6.5C83.2468 6.5 84.2859 7.61719 84.2859 9.5V17H86.1297V9.375C86.1297 6.3125 84.4968 4.84375 82.0672 4.84375C80.2547 4.84375 79.1297 5.65625 78.5672 6.875H78.4109V5H76.6297V17H78.4734V9.78125Z" fill="#1C3C52"/>
<path d="M94.3447 21.75C97.2197 21.75 99.5322 20.4375 99.5322 17.3438V5H97.751V6.90625H97.5635C97.1572 6.28125 96.4072 4.84375 94.0635 4.84375C91.0322 4.84375 88.9385 7.25 88.9385 10.9375C88.9385 14.6875 91.126 16.8125 94.0322 16.8125C96.376 16.8125 97.126 15.4375 97.5322 14.7813H97.6885V17.2188C97.6885 19.2188 96.2822 20.125 94.3447 20.125C92.1651 20.125 91.3994 18.9766 90.9072 18.3125L89.4385 19.3438C90.1885 20.6016 91.6651 21.75 94.3447 21.75ZM94.2822 15.1563C91.9697 15.1563 90.7822 13.4063 90.7822 10.9063C90.7822 8.46875 91.9385 6.5 94.2822 6.5C96.5322 6.5 97.7197 8.3125 97.7197 10.9063C97.7197 13.5625 96.501 15.1563 94.2822 15.1563Z" fill="#482475"/>
<path d="M94.3447 21.75C97.2197 21.75 99.5322 20.4375 99.5322 17.3438V5H97.751V6.90625H97.5635C97.1572 6.28125 96.4072 4.84375 94.0635 4.84375C91.0322 4.84375 88.9385 7.25 88.9385 10.9375C88.9385 14.6875 91.126 16.8125 94.0322 16.8125C96.376 16.8125 97.126 15.4375 97.5322 14.7813H97.6885V17.2188C97.6885 19.2188 96.2822 20.125 94.3447 20.125C92.1651 20.125 91.3994 18.9766 90.9072 18.3125L89.4385 19.3438C90.1885 20.6016 91.6651 21.75 94.3447 21.75ZM94.2822 15.1563C91.9697 15.1563 90.7822 13.4063 90.7822 10.9063C90.7822 8.46875 91.9385 6.5 94.2822 6.5C96.5322 6.5 97.7197 8.3125 97.7197 10.9063C97.7197 13.5625 96.501 15.1563 94.2822 15.1563Z" fill="#1C3C52"/>
<path d="M112.63 17.2812C114.724 17.2812 115.818 16.1563 116.193 15.375H116.287V17H118.13V9.09375C118.13 5.28125 115.224 4.84375 113.693 4.84375C111.88 4.84375 109.818 5.46875 108.88 7.65625L110.63 8.28125C111.037 7.40625 111.998 6.46875 113.755 6.46875C115.451 6.46875 116.287 7.36719 116.287 8.90625V8.96875C116.287 9.85938 115.38 9.78125 113.193 10.0625C110.966 10.3516 108.537 10.8438 108.537 13.5938C108.537 15.9375 110.349 17.2812 112.63 17.2812ZM112.912 15.625C111.443 15.625 110.38 14.9688 110.38 13.6875C110.38 12.2813 111.662 11.8438 113.099 11.6563C113.88 11.5625 115.974 11.3438 116.287 10.9688V12.6563C116.287 14.1563 115.099 15.625 112.912 15.625Z" fill="#482475"/>
<path d="M112.63 17.2812C114.724 17.2812 115.818 16.1563 116.193 15.375H116.287V17H118.13V9.09375C118.13 5.28125 115.224 4.84375 113.693 4.84375C111.88 4.84375 109.818 5.46875 108.88 7.65625L110.63 8.28125C111.037 7.40625 111.998 6.46875 113.755 6.46875C115.451 6.46875 116.287 7.36719 116.287 8.90625V8.96875C116.287 9.85938 115.38 9.78125 113.193 10.0625C110.966 10.3516 108.537 10.8438 108.537 13.5938C108.537 15.9375 110.349 17.2812 112.63 17.2812ZM112.912 15.625C111.443 15.625 110.38 14.9688 110.38 13.6875C110.38 12.2813 111.662 11.8438 113.099 11.6563C113.88 11.5625 115.974 11.3438 116.287 10.9688V12.6563C116.287 14.1563 115.099 15.625 112.912 15.625Z" fill="#1C3C52"/>
<path d="M127.688 21.5H129.531V15.1563H129.688C130.094 15.8125 130.875 17.25 133.188 17.25C136.188 17.25 138.281 14.8438 138.281 11.0313C138.281 7.25 136.188 4.84375 133.156 4.84375C130.813 4.84375 130.094 6.28125 129.688 6.90625H129.469V5H127.688V21.5ZM129.5 11C129.5 8.3125 130.688 6.5 132.938 6.5C135.281 6.5 136.438 8.46875 136.438 11C136.438 13.5625 135.25 15.5938 132.938 15.5938C130.719 15.5938 129.5 13.7188 129.5 11Z" fill="#482475"/>
<path d="M127.688 21.5H129.531V15.1563H129.688C130.094 15.8125 130.875 17.25 133.188 17.25C136.188 17.25 138.281 14.8438 138.281 11.0313C138.281 7.25 136.188 4.84375 133.156 4.84375C130.813 4.84375 130.094 6.28125 129.688 6.90625H129.469V5H127.688V21.5ZM129.5 11C129.5 8.3125 130.688 6.5 132.938 6.5C135.281 6.5 136.438 8.46875 136.438 11C136.438 13.5625 135.25 15.5938 132.938 15.5938C130.719 15.5938 129.5 13.7188 129.5 11Z" fill="#1C3C52"/>
<path d="M142.94 1H141.096V17H142.94V1Z" fill="#482475"/>
<path d="M142.94 1H141.096V17H142.94V1Z" fill="#1C3C52"/>
<path d="M149.85 17.2812C151.944 17.2812 153.038 16.1563 153.413 15.375H153.506V17H155.35V9.09375C155.35 5.28125 152.444 4.84375 150.913 4.84375C149.1 4.84375 147.038 5.46875 146.1 7.65625L147.85 8.28125C148.256 7.40625 149.217 6.46875 150.975 6.46875C152.67 6.46875 153.506 7.36719 153.506 8.90625V8.96875C153.506 9.85938 152.6 9.78125 150.413 10.0625C148.186 10.3516 145.756 10.8438 145.756 13.5938C145.756 15.9375 147.569 17.2812 149.85 17.2812ZM150.131 15.625C148.663 15.625 147.6 14.9688 147.6 13.6875C147.6 12.2813 148.881 11.8438 150.319 11.6563C151.1 11.5625 153.194 11.3438 153.506 10.9688V12.6563C153.506 14.1563 152.319 15.625 150.131 15.625Z" fill="#482475"/>
<path d="M149.85 17.2812C151.944 17.2812 153.038 16.1563 153.413 15.375H153.506V17H155.35V9.09375C155.35 5.28125 152.444 4.84375 150.913 4.84375C149.1 4.84375 147.038 5.46875 146.1 7.65625L147.85 8.28125C148.256 7.40625 149.217 6.46875 150.975 6.46875C152.67 6.46875 153.506 7.36719 153.506 8.90625V8.96875C153.506 9.85938 152.6 9.78125 150.413 10.0625C148.186 10.3516 145.756 10.8438 145.756 13.5938C145.756 15.9375 147.569 17.2812 149.85 17.2812ZM150.131 15.625C148.663 15.625 147.6 14.9688 147.6 13.6875C147.6 12.2813 148.881 11.8438 150.319 11.6563C151.1 11.5625 153.194 11.3438 153.506 10.9688V12.6563C153.506 14.1563 152.319 15.625 150.131 15.625Z" fill="#1C3C52"/>
<path d="M163.936 5H161.374V2.125H159.53V5H157.718V6.5625H159.53V14.0625C159.53 16.1563 161.218 17.1562 162.78 17.1562C163.468 17.1562 163.905 17.0312 164.155 16.9375L163.78 15.2813C163.624 15.3125 163.374 15.375 162.968 15.375C162.155 15.375 161.374 15.125 161.374 13.5625V6.5625H163.936V5Z" fill="#482475"/>
<path d="M163.936 5H161.374V2.125H159.53V5H157.718V6.5625H159.53V14.0625C159.53 16.1563 161.218 17.1562 162.78 17.1562C163.468 17.1562 163.905 17.0312 164.155 16.9375L163.78 15.2813C163.624 15.3125 163.374 15.375 162.968 15.375C162.155 15.375 161.374 15.125 161.374 13.5625V6.5625H163.936V5Z" fill="#1C3C52"/>
<path d="M172.056 5H169.368V3.78125C169.368 2.59375 169.868 1.96875 171.087 1.96875C171.618 1.96875 171.931 2.09375 172.118 2.15625L172.649 0.5625C172.368 0.4375 171.806 0.25 170.899 0.25C169.181 0.25 167.524 1.28125 167.524 3.34375V5H165.587V6.5625H167.524V17H169.368V6.5625H172.056V5Z" fill="#482475"/>
<path d="M172.056 5H169.368V3.78125C169.368 2.59375 169.868 1.96875 171.087 1.96875C171.618 1.96875 171.931 2.09375 172.118 2.15625L172.649 0.5625C172.368 0.4375 171.806 0.25 170.899 0.25C169.181 0.25 167.524 1.28125 167.524 3.34375V5H165.587V6.5625H167.524V17H169.368V6.5625H172.056V5Z" fill="#1C3C52"/>
<path d="M179.023 17.25C182.273 17.25 184.46 14.7813 184.46 11.0625C184.46 7.3125 182.273 4.84375 179.023 4.84375C175.773 4.84375 173.585 7.3125 173.585 11.0625C173.585 14.7813 175.773 17.25 179.023 17.25ZM179.023 15.5938C176.554 15.5938 175.429 13.4688 175.429 11.0625C175.429 8.65625 176.554 6.5 179.023 6.5C181.492 6.5 182.617 8.65625 182.617 11.0625C182.617 13.4688 181.492 15.5938 179.023 15.5938Z" fill="#482475"/>
<path d="M179.023 17.25C182.273 17.25 184.46 14.7813 184.46 11.0625C184.46 7.3125 182.273 4.84375 179.023 4.84375C175.773 4.84375 173.585 7.3125 173.585 11.0625C173.585 14.7813 175.773 17.25 179.023 17.25ZM179.023 15.5938C176.554 15.5938 175.429 13.4688 175.429 11.0625C175.429 8.65625 176.554 6.5 179.023 6.5C181.492 6.5 182.617 8.65625 182.617 11.0625C182.617 13.4688 181.492 15.5938 179.023 15.5938Z" fill="#1C3C52"/>
<path d="M187.277 17H189.121V9.40625C189.121 7.78125 190.402 6.59375 192.152 6.59375C192.644 6.59375 193.152 6.6875 193.277 6.71875V4.84375C193.066 4.82813 192.582 4.8125 192.308 4.8125C190.871 4.8125 189.621 5.625 189.183 6.8125H189.058V5H187.277V17Z" fill="#482475"/>
<path d="M187.277 17H189.121V9.40625C189.121 7.78125 190.402 6.59375 192.152 6.59375C192.644 6.59375 193.152 6.6875 193.277 6.71875V4.84375C193.066 4.82813 192.582 4.8125 192.308 4.8125C190.871 4.8125 189.621 5.625 189.183 6.8125H189.058V5H187.277V17Z" fill="#1C3C52"/>
<path d="M195.465 17H197.308V9.5C197.308 7.74219 198.59 6.5 200.027 6.5C201.426 6.5 202.402 7.41406 202.402 8.78125V17H204.277V9.1875C204.277 7.64063 205.246 6.5 206.933 6.5C208.246 6.5 209.371 7.19531 209.371 8.96875V17H211.215V8.96875C211.215 6.14844 209.699 4.84375 207.558 4.84375C205.84 4.84375 204.582 5.63281 203.965 6.875H203.84C203.246 5.59375 202.199 4.84375 200.621 4.84375C199.058 4.84375 197.902 5.59375 197.402 6.875H197.246V5H195.465V17Z" fill="#482475"/>
<path d="M195.465 17H197.308V9.5C197.308 7.74219 198.59 6.5 200.027 6.5C201.426 6.5 202.402 7.41406 202.402 8.78125V17H204.277V9.1875C204.277 7.64063 205.246 6.5 206.933 6.5C208.246 6.5 209.371 7.19531 209.371 8.96875V17H211.215V8.96875C211.215 6.14844 209.699 4.84375 207.558 4.84375C205.84 4.84375 204.582 5.63281 203.965 6.875H203.84C203.246 5.59375 202.199 4.84375 200.621 4.84375C199.058 4.84375 197.902 5.59375 197.402 6.875H197.246V5H195.465V17Z" fill="#1C3C52"/>
<path d="M43.6387 41H40.9512V39.7812C40.9512 38.5938 41.4512 37.9688 42.6699 37.9688C43.2012 37.9688 43.5137 38.0938 43.7012 38.1562L44.2324 36.5625C43.9512 36.4375 43.3887 36.25 42.4824 36.25C40.7637 36.25 39.1074 37.2812 39.1074 39.3438V41H37.1699V42.5625H39.1074V53H40.9512V42.5625H43.6387V41Z" fill="#482475"/>
<path d="M43.6387 41H40.9512V39.7812C40.9512 38.5938 41.4512 37.9688 42.6699 37.9688C43.2012 37.9688 43.5137 38.0938 43.7012 38.1562L44.2324 36.5625C43.9512 36.4375 43.3887 36.25 42.4824 36.25C40.7637 36.25 39.1074 37.2812 39.1074 39.3438V41H37.1699V42.5625H39.1074V53H40.9512V42.5625H43.6387V41Z" fill="#1C3C52"/>
<path d="M46.2249 53H48.0686V45.4062C48.0686 43.7812 49.3499 42.5938 51.0999 42.5938C51.5921 42.5938 52.0999 42.6875 52.2249 42.7188V40.8438C52.0139 40.8281 51.5296 40.8125 51.2561 40.8125C49.8186 40.8125 48.5686 41.625 48.1311 42.8125H48.0061V41H46.2249V53Z" fill="#482475"/>
<path d="M46.2249 53H48.0686V45.4062C48.0686 43.7812 49.3499 42.5938 51.0999 42.5938C51.5921 42.5938 52.0999 42.6875 52.2249 42.7188V40.8438C52.0139 40.8281 51.5296 40.8125 51.2561 40.8125C49.8186 40.8125 48.5686 41.625 48.1311 42.8125H48.0061V41H46.2249V53Z" fill="#1C3C52"/>
<path d="M58.9224 53.25C62.1724 53.25 64.3599 50.7812 64.3599 47.0625C64.3599 43.3125 62.1724 40.8438 58.9224 40.8438C55.6724 40.8438 53.4849 43.3125 53.4849 47.0625C53.4849 50.7812 55.6724 53.25 58.9224 53.25ZM58.9224 51.5938C56.4536 51.5938 55.3286 49.4688 55.3286 47.0625C55.3286 44.6562 56.4536 42.5 58.9224 42.5C61.3911 42.5 62.5161 44.6562 62.5161 47.0625C62.5161 49.4688 61.3911 51.5938 58.9224 51.5938Z" fill="#482475"/>
<path d="M58.9224 53.25C62.1724 53.25 64.3599 50.7812 64.3599 47.0625C64.3599 43.3125 62.1724 40.8438 58.9224 40.8438C55.6724 40.8438 53.4849 43.3125 53.4849 47.0625C53.4849 50.7812 55.6724 53.25 58.9224 53.25ZM58.9224 51.5938C56.4536 51.5938 55.3286 49.4688 55.3286 47.0625C55.3286 44.6562 56.4536 42.5 58.9224 42.5C61.3911 42.5 62.5161 44.6562 62.5161 47.0625C62.5161 49.4688 61.3911 51.5938 58.9224 51.5938Z" fill="#1C3C52"/>
<path d="M67.1765 53H69.0203V45.5C69.0203 43.7422 70.3015 42.5 71.739 42.5C73.1375 42.5 74.114 43.4141 74.114 44.7812V53H75.989V45.1875C75.989 43.6406 76.9578 42.5 78.6453 42.5C79.9578 42.5 81.0828 43.1953 81.0828 44.9688V53H82.9265V44.9688C82.9265 42.1484 81.4109 40.8438 79.2703 40.8438C77.5515 40.8438 76.2937 41.6328 75.6765 42.875H75.5515C74.9578 41.5938 73.9109 40.8438 72.3328 40.8438C70.7703 40.8438 69.614 41.5938 69.114 42.875H68.9578V41H67.1765V53Z" fill="#482475"/>
<path d="M67.1765 53H69.0203V45.5C69.0203 43.7422 70.3015 42.5 71.739 42.5C73.1375 42.5 74.114 43.4141 74.114 44.7812V53H75.989V45.1875C75.989 43.6406 76.9578 42.5 78.6453 42.5C79.9578 42.5 81.0828 43.1953 81.0828 44.9688V53H82.9265V44.9688C82.9265 42.1484 81.4109 40.8438 79.2703 40.8438C77.5515 40.8438 76.2937 41.6328 75.6765 42.875H75.5515C74.9578 41.5938 73.9109 40.8438 72.3328 40.8438C70.7703 40.8438 69.614 41.5938 69.114 42.875H68.9578V41H67.1765V53Z" fill="#1C3C52"/>
<path d="M100.99 43.6875C100.411 41.9844 99.1145 40.8438 96.7395 40.8438C94.2083 40.8438 92.3333 42.2812 92.3333 44.3125C92.3333 45.9688 93.3177 47.0781 95.5208 47.5938L97.5208 48.0625C98.7317 48.3438 99.302 48.9219 99.302 49.75C99.302 50.7812 98.2083 51.625 96.4895 51.625C94.9817 51.625 94.0364 50.9766 93.7083 49.6875L91.9583 50.125C92.388 52.1641 94.0677 53.25 96.5208 53.25C99.3098 53.25 101.208 51.7266 101.208 49.6562C101.208 47.9844 100.161 46.9297 98.0208 46.4062L96.2395 45.9688C94.8177 45.6172 94.177 45.1406 94.177 44.2188C94.177 43.1875 95.2708 42.4375 96.7395 42.4375C98.3489 42.4375 99.013 43.3281 99.3333 44.1562L100.99 43.6875Z" fill="#482475"/>
<path d="M100.99 43.6875C100.411 41.9844 99.1145 40.8438 96.7395 40.8438C94.2083 40.8438 92.3333 42.2812 92.3333 44.3125C92.3333 45.9688 93.3177 47.0781 95.5208 47.5938L97.5208 48.0625C98.7317 48.3438 99.302 48.9219 99.302 49.75C99.302 50.7812 98.2083 51.625 96.4895 51.625C94.9817 51.625 94.0364 50.9766 93.7083 49.6875L91.9583 50.125C92.388 52.1641 94.0677 53.25 96.5208 53.25C99.3098 53.25 101.208 51.7266 101.208 49.6562C101.208 47.9844 100.161 46.9297 98.0208 46.4062L96.2395 45.9688C94.8177 45.6172 94.177 45.1406 94.177 44.2188C94.177 43.1875 95.2708 42.4375 96.7395 42.4375C98.3489 42.4375 99.013 43.3281 99.3333 44.1562L100.99 43.6875Z" fill="#1C3C52"/>
<path d="M108.861 53.25C111.517 53.25 113.267 51.625 113.58 49.5H111.736C111.392 50.8125 110.298 51.5938 108.861 51.5938C106.673 51.5938 105.267 49.7812 105.267 47C105.267 44.2812 106.705 42.5 108.861 42.5C110.486 42.5 111.455 43.5 111.736 44.5938H113.58C113.267 42.3438 111.361 40.8438 108.83 40.8438C105.58 40.8438 103.423 43.4062 103.423 47.0625C103.423 50.6562 105.486 53.25 108.861 53.25Z" fill="#482475"/>
<path d="M108.861 53.25C111.517 53.25 113.267 51.625 113.58 49.5H111.736C111.392 50.8125 110.298 51.5938 108.861 51.5938C106.673 51.5938 105.267 49.7812 105.267 47C105.267 44.2812 106.705 42.5 108.861 42.5C110.486 42.5 111.455 43.5 111.736 44.5938H113.58C113.267 42.3438 111.361 40.8438 108.83 40.8438C105.58 40.8438 103.423 43.4062 103.423 47.0625C103.423 50.6562 105.486 53.25 108.861 53.25Z" fill="#1C3C52"/>
<path d="M116.277 53H118.121V45.4062C118.121 43.7812 119.402 42.5938 121.152 42.5938C121.644 42.5938 122.152 42.6875 122.277 42.7188V40.8438C122.066 40.8281 121.582 40.8125 121.308 40.8125C119.871 40.8125 118.621 41.625 118.183 42.8125H118.058V41H116.277V53Z" fill="#482475"/>
<path d="M116.277 53H118.121V45.4062C118.121 43.7812 119.402 42.5938 121.152 42.5938C121.644 42.5938 122.152 42.6875 122.277 42.7188V40.8438C122.066 40.8281 121.582 40.8125 121.308 40.8125C119.871 40.8125 118.621 41.625 118.183 42.8125H118.058V41H116.277V53Z" fill="#1C3C52"/>
<path d="M127.996 53.2812C130.09 53.2812 131.184 52.1562 131.559 51.375H131.652V53H133.496V45.0938C133.496 41.2812 130.59 40.8438 129.059 40.8438C127.246 40.8438 125.184 41.4688 124.246 43.6562L125.996 44.2812C126.402 43.4062 127.363 42.4688 129.121 42.4688C130.816 42.4688 131.652 43.3672 131.652 44.9062V44.9688C131.652 45.8594 130.746 45.7812 128.559 46.0625C126.332 46.3516 123.902 46.8438 123.902 49.5938C123.902 51.9375 125.715 53.2812 127.996 53.2812ZM128.277 51.625C126.809 51.625 125.746 50.9688 125.746 49.6875C125.746 48.2812 127.027 47.8438 128.465 47.6562C129.246 47.5625 131.34 47.3438 131.652 46.9688V48.6562C131.652 50.1562 130.465 51.625 128.277 51.625Z" fill="#482475"/>
<path d="M127.996 53.2812C130.09 53.2812 131.184 52.1562 131.559 51.375H131.652V53H133.496V45.0938C133.496 41.2812 130.59 40.8438 129.059 40.8438C127.246 40.8438 125.184 41.4688 124.246 43.6562L125.996 44.2812C126.402 43.4062 127.363 42.4688 129.121 42.4688C130.816 42.4688 131.652 43.3672 131.652 44.9062V44.9688C131.652 45.8594 130.746 45.7812 128.559 46.0625C126.332 46.3516 123.902 46.8438 123.902 49.5938C123.902 51.9375 125.715 53.2812 127.996 53.2812ZM128.277 51.625C126.809 51.625 125.746 50.9688 125.746 49.6875C125.746 48.2812 127.027 47.8438 128.465 47.6562C129.246 47.5625 131.34 47.3438 131.652 46.9688V48.6562C131.652 50.1562 130.465 51.625 128.277 51.625Z" fill="#1C3C52"/>
<path d="M142.082 41H139.52V38.125H137.676V41H135.864V42.5625H137.676V50.0625C137.676 52.1562 139.364 53.1562 140.926 53.1562C141.614 53.1562 142.051 53.0312 142.301 52.9375L141.926 51.2812C141.77 51.3125 141.52 51.375 141.114 51.375C140.301 51.375 139.52 51.125 139.52 49.5625V42.5625H142.082V41Z" fill="#482475"/>
<path d="M142.082 41H139.52V38.125H137.676V41H135.864V42.5625H137.676V50.0625C137.676 52.1562 139.364 53.1562 140.926 53.1562C141.614 53.1562 142.051 53.0312 142.301 52.9375L141.926 51.2812C141.77 51.3125 141.52 51.375 141.114 51.375C140.301 51.375 139.52 51.125 139.52 49.5625V42.5625H142.082V41Z" fill="#1C3C52"/>
<path d="M149.604 53.25C152.26 53.25 154.01 51.625 154.323 49.5H152.479C152.135 50.8125 151.042 51.5938 149.604 51.5938C147.417 51.5938 146.01 49.7812 146.01 47C146.01 44.2812 147.448 42.5 149.604 42.5C151.229 42.5 152.198 43.5 152.479 44.5938H154.323C154.01 42.3438 152.104 40.8438 149.573 40.8438C146.323 40.8438 144.167 43.4062 144.167 47.0625C144.167 50.6562 146.229 53.25 149.604 53.25Z" fill="#482475"/>
<path d="M149.604 53.25C152.26 53.25 154.01 51.625 154.323 49.5H152.479C152.135 50.8125 151.042 51.5938 149.604 51.5938C147.417 51.5938 146.01 49.7812 146.01 47C146.01 44.2812 147.448 42.5 149.604 42.5C151.229 42.5 152.198 43.5 152.479 44.5938H154.323C154.01 42.3438 152.104 40.8438 149.573 40.8438C146.323 40.8438 144.167 43.4062 144.167 47.0625C144.167 50.6562 146.229 53.25 149.604 53.25Z" fill="#1C3C52"/>
<path d="M158.864 45.7812C158.864 43.6875 160.2 42.5 162.02 42.5C163.755 42.5 164.802 43.5938 164.802 45.5V53H166.645V45.375C166.645 42.2891 165.005 40.8438 162.552 40.8438C160.661 40.8438 159.583 41.6328 159.02 42.875H158.864V37H157.02V53H158.864V45.7812Z" fill="#482475"/>
<path d="M158.864 45.7812C158.864 43.6875 160.2 42.5 162.02 42.5C163.755 42.5 164.802 43.5938 164.802 45.5V53H166.645V45.375C166.645 42.2891 165.005 40.8438 162.552 40.8438C160.661 40.8438 159.583 41.6328 159.02 42.875H158.864V37H157.02V53H158.864V45.7812Z" fill="#1C3C52"/>
<path d="M171.364 53.125C172.138 53.125 172.771 52.4922 172.771 51.7188C172.771 50.9453 172.138 50.3125 171.364 50.3125C170.591 50.3125 169.958 50.9453 169.958 51.7188C169.958 52.4922 170.591 53.125 171.364 53.125Z" fill="#482475"/>
<path d="M171.364 53.125C172.138 53.125 172.771 52.4922 172.771 51.7188C172.771 50.9453 172.138 50.3125 171.364 50.3125C170.591 50.3125 169.958 50.9453 169.958 51.7188C169.958 52.4922 170.591 53.125 171.364 53.125Z" fill="#1C3C52"/>
</svg>
