<svg width="717" height="45" viewBox="0 0 717 45" fill="none" xmlns="http://www.w3.org/2000/svg">
<path d="M26.8282 1.54545H22.8424V27.8778H22.5157L4.22026 1.54545H0.299805V35H4.35094V8.73295H4.67765L22.9078 35H26.8282V1.54545Z" fill="#482475"/>
<path d="M26.8282 1.54545H22.8424V27.8778H22.5157L4.22026 1.54545H0.299805V35H4.35094V8.73295H4.67765L22.9078 35H26.8282V1.54545Z" fill="#2D53A5"/>
<path d="M44.4717 35.5227C49.5683 35.5227 53.2928 32.9744 54.4689 29.1847L50.7445 28.1392C49.7643 30.7528 47.4937 32.0597 44.4717 32.0597C39.9469 32.0597 36.8268 29.1357 36.6472 23.7614H54.8609V22.1278C54.8609 12.7841 49.307 9.58239 44.0797 9.58239C37.2842 9.58239 32.7757 14.9403 32.7757 22.6506C32.7757 30.3608 37.2189 35.5227 44.4717 35.5227ZM36.6472 20.429C36.9085 16.5249 39.6692 13.0455 44.0797 13.0455C48.2615 13.0455 50.9405 16.1818 50.9405 20.429H36.6472Z" fill="#482475"/>
<path d="M44.4717 35.5227C49.5683 35.5227 53.2928 32.9744 54.4689 29.1847L50.7445 28.1392C49.7643 30.7528 47.4937 32.0597 44.4717 32.0597C39.9469 32.0597 36.8268 29.1357 36.6472 23.7614H54.8609V22.1278C54.8609 12.7841 49.307 9.58239 44.0797 9.58239C37.2842 9.58239 32.7757 14.9403 32.7757 22.6506C32.7757 30.3608 37.2189 35.5227 44.4717 35.5227ZM36.6472 20.429C36.9085 16.5249 39.6692 13.0455 44.0797 13.0455C48.2615 13.0455 50.9405 16.1818 50.9405 20.429H36.6472Z" fill="#2D53A5"/>
<path d="M65.9499 35H69.7397L75.2283 15.7244H75.6204L81.109 35H84.8988L92.5437 9.90909H88.4926L83.0693 29.054H82.8079L77.5153 9.90909H73.3988L68.0408 29.1193H67.7795L62.3562 9.90909H58.3051L65.9499 35Z" fill="#482475"/>
<path d="M65.9499 35H69.7397L75.2283 15.7244H75.6204L81.109 35H84.8988L92.5437 9.90909H88.4926L83.0693 29.054H82.8079L77.5153 9.90909H73.3988L68.0408 29.1193H67.7795L62.3562 9.90909H58.3051L65.9499 35Z" fill="#2D53A5"/>
<path d="M119.851 35.5227C125.405 35.5227 129.064 32.125 129.717 27.6818H125.862C125.144 30.4261 122.857 32.0597 119.851 32.0597C115.277 32.0597 112.337 28.2699 112.337 22.4545C112.337 16.7699 115.342 13.0455 119.851 13.0455C123.249 13.0455 125.274 15.1364 125.862 17.4233H129.717C129.064 12.7187 125.078 9.58239 119.786 9.58239C112.99 9.58239 108.482 14.9403 108.482 22.5852C108.482 30.0994 112.794 35.5227 119.851 35.5227Z" fill="#482475"/>
<path d="M119.851 35.5227C125.405 35.5227 129.064 32.125 129.717 27.6818H125.862C125.144 30.4261 122.857 32.0597 119.851 32.0597C115.277 32.0597 112.337 28.2699 112.337 22.4545C112.337 16.7699 115.342 13.0455 119.851 13.0455C123.249 13.0455 125.274 15.1364 125.862 17.4233H129.717C129.064 12.7187 125.078 9.58239 119.786 9.58239C112.99 9.58239 108.482 14.9403 108.482 22.5852C108.482 30.0994 112.794 35.5227 119.851 35.5227Z" fill="#2D53A5"/>
<path d="M138.748 19.9062C138.748 15.5284 141.542 13.0455 145.348 13.0455C148.974 13.0455 151.163 15.3324 151.163 19.3182V35H155.018V19.0568C155.018 12.6044 151.588 9.58239 146.458 9.58239C142.505 9.58239 140.251 11.2322 139.075 13.8295H138.748V1.54545H134.893V35H138.748V19.9062Z" fill="#482475"/>
<path d="M138.748 19.9062C138.748 15.5284 141.542 13.0455 145.348 13.0455C148.974 13.0455 151.163 15.3324 151.163 19.3182V35H155.018V19.0568C155.018 12.6044 151.588 9.58239 146.458 9.58239C142.505 9.58239 140.251 11.2322 139.075 13.8295H138.748V1.54545H134.893V35H138.748V19.9062Z" fill="#2D53A5"/>
<path d="M172.131 35.5227C177.227 35.5227 180.952 32.9744 182.128 29.1847L178.403 28.1392C177.423 30.7528 175.153 32.0597 172.131 32.0597C167.606 32.0597 164.486 29.1357 164.306 23.7614H182.52V22.1278C182.52 12.7841 176.966 9.58239 171.739 9.58239C164.943 9.58239 160.435 14.9403 160.435 22.6506C160.435 30.3608 164.878 35.5227 172.131 35.5227ZM164.306 20.429C164.568 16.5249 167.328 13.0455 171.739 13.0455C175.921 13.0455 178.599 16.1818 178.599 20.429H164.306Z" fill="#482475"/>
<path d="M172.131 35.5227C177.227 35.5227 180.952 32.9744 182.128 29.1847L178.403 28.1392C177.423 30.7528 175.153 32.0597 172.131 32.0597C167.606 32.0597 164.486 29.1357 164.306 23.7614H182.52V22.1278C182.52 12.7841 176.966 9.58239 171.739 9.58239C164.943 9.58239 160.435 14.9403 160.435 22.6506C160.435 30.3608 164.878 35.5227 172.131 35.5227ZM164.306 20.429C164.568 16.5249 167.328 13.0455 171.739 13.0455C175.921 13.0455 178.599 16.1818 178.599 20.429H164.306Z" fill="#2D53A5"/>
<path d="M198.117 35.5227C203.671 35.5227 207.331 32.125 207.984 27.6818H204.129C203.41 30.4261 201.123 32.0597 198.117 32.0597C193.544 32.0597 190.603 28.2699 190.603 22.4545C190.603 16.7699 193.609 13.0455 198.117 13.0455C201.515 13.0455 203.541 15.1364 204.129 17.4233H207.984C207.331 12.7187 203.345 9.58239 198.052 9.58239C191.257 9.58239 186.748 14.9403 186.748 22.5852C186.748 30.0994 191.061 35.5227 198.117 35.5227Z" fill="#482475"/>
<path d="M198.117 35.5227C203.671 35.5227 207.331 32.125 207.984 27.6818H204.129C203.41 30.4261 201.123 32.0597 198.117 32.0597C193.544 32.0597 190.603 28.2699 190.603 22.4545C190.603 16.7699 193.609 13.0455 198.117 13.0455C201.515 13.0455 203.541 15.1364 204.129 17.4233H207.984C207.331 12.7187 203.345 9.58239 198.052 9.58239C191.257 9.58239 186.748 14.9403 186.748 22.5852C186.748 30.0994 191.061 35.5227 198.117 35.5227Z" fill="#2D53A5"/>
<path d="M213.16 35H217.015V25.6072L219.71 23.108L229.103 35H234.003L222.618 20.625L233.219 9.90909H228.449L217.472 21.0824H217.015V1.54545H213.16V35Z" fill="#482475"/>
<path d="M213.16 35H217.015V25.6072L219.71 23.108L229.103 35H234.003L222.618 20.625L233.219 9.90909H228.449L217.472 21.0824H217.015V1.54545H213.16V35Z" fill="#2D53A5"/>
<path d="M246.881 35.5227C253.676 35.5227 258.25 30.3608 258.25 22.5852C258.25 14.7443 253.676 9.58239 246.881 9.58239C240.086 9.58239 235.512 14.7443 235.512 22.5852C235.512 30.3608 240.086 35.5227 246.881 35.5227ZM246.881 32.0597C241.719 32.0597 239.367 27.6165 239.367 22.5852C239.367 17.554 241.719 13.0455 246.881 13.0455C252.043 13.0455 254.395 17.554 254.395 22.5852C254.395 27.6165 252.043 32.0597 246.881 32.0597Z" fill="#482475"/>
<path d="M246.881 35.5227C253.676 35.5227 258.25 30.3608 258.25 22.5852C258.25 14.7443 253.676 9.58239 246.881 9.58239C240.086 9.58239 235.512 14.7443 235.512 22.5852C235.512 30.3608 240.086 35.5227 246.881 35.5227ZM246.881 32.0597C241.719 32.0597 239.367 27.6165 239.367 22.5852C239.367 17.554 241.719 13.0455 246.881 13.0455C252.043 13.0455 254.395 17.554 254.395 22.5852C254.395 27.6165 252.043 32.0597 246.881 32.0597Z" fill="#2D53A5"/>
<path d="M279.488 24.7415C279.488 29.446 275.894 31.6023 273.019 31.6023C269.817 31.6023 267.53 29.25 267.53 25.5909V9.90909H263.675V25.8523C263.675 32.2557 267.073 35.3267 271.777 35.3267C275.567 35.3267 278.05 33.3011 279.226 30.7528H279.488V35H283.343V9.90909H279.488V24.7415Z" fill="#482475"/>
<path d="M279.488 24.7415C279.488 29.446 275.894 31.6023 273.019 31.6023C269.817 31.6023 267.53 29.25 267.53 25.5909V9.90909H263.675V25.8523C263.675 32.2557 267.073 35.3267 271.777 35.3267C275.567 35.3267 278.05 33.3011 279.226 30.7528H279.488V35H283.343V9.90909H279.488V24.7415Z" fill="#2D53A5"/>
<path d="M300.856 9.90909H295.498V3.89773H291.642V9.90909H287.853V13.1761H291.642V28.858C291.642 33.2358 295.171 35.3267 298.438 35.3267C299.875 35.3267 300.79 35.0653 301.313 34.8693L300.529 31.4062C300.202 31.4716 299.679 31.6023 298.83 31.6023C297.131 31.6023 295.498 31.0795 295.498 27.8125V13.1761H300.856V9.90909Z" fill="#482475"/>
<path d="M300.856 9.90909H295.498V3.89773H291.642V9.90909H287.853V13.1761H291.642V28.858C291.642 33.2358 295.171 35.3267 298.438 35.3267C299.875 35.3267 300.79 35.0653 301.313 34.8693L300.529 31.4062C300.202 31.4716 299.679 31.6023 298.83 31.6023C297.131 31.6023 295.498 31.0795 295.498 27.8125V13.1761H300.856V9.90909Z" fill="#2D53A5"/>
<path d="M328.146 35.4574C331.217 35.4574 334.648 34.3793 336.82 32.1577L339.189 35H343.828L339.205 29.3643C340.463 27.7472 341.868 25.0355 341.868 20.3636H338.144C338.144 22.6506 337.621 24.6761 336.755 26.3587L329.486 17.4886L331.936 15.6591C334.681 13.6335 336.379 11.4119 336.379 8.21023C336.379 4.48579 333.308 1.21875 328.277 1.21875C323.377 1.21875 320.175 4.28977 320.175 8.79829C320.175 11.7713 321.792 14.0582 324.095 16.8352C320.191 19.5469 317.496 22.0625 317.496 26.1136C317.496 31.5369 321.547 35.4574 328.146 35.4574ZM334.517 29.3643C332.671 31.0959 330.335 32.0597 328.016 32.0597C324.03 32.0597 321.416 29.25 321.416 26.1136C321.416 25.1989 322.266 22.8466 325.271 20.625L326.513 19.7102L334.517 29.3643ZM327.117 14.6136C325.484 12.6207 324.095 10.7259 324.095 8.86364C324.095 6.77273 325.86 4.55114 328.408 4.55114C330.825 4.55114 332.459 6.51136 332.459 8.21023C332.459 10.4972 331.218 11.7386 329.323 12.9801L327.117 14.6136Z" fill="#482475"/>
<path d="M328.146 35.4574C331.217 35.4574 334.648 34.3793 336.82 32.1577L339.189 35H343.828L339.205 29.3643C340.463 27.7472 341.868 25.0355 341.868 20.3636H338.144C338.144 22.6506 337.621 24.6761 336.755 26.3587L329.486 17.4886L331.936 15.6591C334.681 13.6335 336.379 11.4119 336.379 8.21023C336.379 4.48579 333.308 1.21875 328.277 1.21875C323.377 1.21875 320.175 4.28977 320.175 8.79829C320.175 11.7713 321.792 14.0582 324.095 16.8352C320.191 19.5469 317.496 22.0625 317.496 26.1136C317.496 31.5369 321.547 35.4574 328.146 35.4574ZM334.517 29.3643C332.671 31.0959 330.335 32.0597 328.016 32.0597C324.03 32.0597 321.416 29.25 321.416 26.1136C321.416 25.1989 322.266 22.8466 325.271 20.625L326.513 19.7102L334.517 29.3643ZM327.117 14.6136C325.484 12.6207 324.095 10.7259 324.095 8.86364C324.095 6.77273 325.86 4.55114 328.408 4.55114C330.825 4.55114 332.459 6.51136 332.459 8.21023C332.459 10.4972 331.218 11.7386 329.323 12.9801L327.117 14.6136Z" fill="#2D53A5"/>
<path d="M369.588 35.5227C374.423 35.5227 376.057 32.517 376.906 31.1449H377.363V35H381.088V1.54545H377.233V13.8949H376.906C376.057 12.5881 374.554 9.58239 369.653 9.58239C363.315 9.58239 358.937 14.6136 358.937 22.5199C358.937 30.4915 363.315 35.5227 369.588 35.5227ZM370.111 32.0597C365.275 32.0597 362.792 27.8125 362.792 22.4545C362.792 17.1619 365.21 13.0455 370.111 13.0455C374.815 13.0455 377.298 16.8352 377.298 22.4545C377.298 28.1392 374.75 32.0597 370.111 32.0597Z" fill="#482475"/>
<path d="M369.588 35.5227C374.423 35.5227 376.057 32.517 376.906 31.1449H377.363V35H381.088V1.54545H377.233V13.8949H376.906C376.057 12.5881 374.554 9.58239 369.653 9.58239C363.315 9.58239 358.937 14.6136 358.937 22.5199C358.937 30.4915 363.315 35.5227 369.588 35.5227ZM370.111 32.0597C365.275 32.0597 362.792 27.8125 362.792 22.4545C362.792 17.1619 365.21 13.0455 370.111 13.0455C374.815 13.0455 377.298 16.8352 377.298 22.4545C377.298 28.1392 374.75 32.0597 370.111 32.0597Z" fill="#2D53A5"/>
<path d="M398.744 35.5227C403.84 35.5227 407.565 32.9744 408.741 29.1847L405.016 28.1392C404.036 30.7528 401.766 32.0597 398.744 32.0597C394.219 32.0597 391.099 29.1357 390.919 23.7614H409.133V22.1278C409.133 12.7841 403.579 9.58239 398.352 9.58239C391.556 9.58239 387.048 14.9403 387.048 22.6506C387.048 30.3608 391.491 35.5227 398.744 35.5227ZM390.919 20.429C391.18 16.5249 393.941 13.0455 398.352 13.0455C402.533 13.0455 405.212 16.1818 405.212 20.429H390.919Z" fill="#482475"/>
<path d="M398.744 35.5227C403.84 35.5227 407.565 32.9744 408.741 29.1847L405.016 28.1392C404.036 30.7528 401.766 32.0597 398.744 32.0597C394.219 32.0597 391.099 29.1357 390.919 23.7614H409.133V22.1278C409.133 12.7841 403.579 9.58239 398.352 9.58239C391.556 9.58239 387.048 14.9403 387.048 22.6506C387.048 30.3608 391.491 35.5227 398.744 35.5227ZM390.919 20.429C391.18 16.5249 393.941 13.0455 398.352 13.0455C402.533 13.0455 405.212 16.1818 405.212 20.429H390.919Z" fill="#2D53A5"/>
<path d="M432.31 15.5284C431.101 11.9673 428.389 9.58239 423.423 9.58239C418.131 9.58239 414.21 12.5881 414.21 16.8352C414.21 20.2983 416.269 22.6179 420.875 23.696L425.057 24.6761C427.589 25.2642 428.781 26.473 428.781 28.2045C428.781 30.3608 426.495 32.125 422.901 32.125C419.748 32.125 417.771 30.7692 417.085 28.0739L413.426 28.9886C414.325 33.2521 417.837 35.5227 422.966 35.5227C428.798 35.5227 432.767 32.3374 432.767 28.0085C432.767 24.5128 430.578 22.3075 426.102 21.2131L422.378 20.2983C419.405 19.5632 418.066 18.5668 418.066 16.6392C418.066 14.483 420.352 12.9148 423.423 12.9148C426.789 12.9148 428.177 14.777 428.847 16.5085L432.31 15.5284Z" fill="#482475"/>
<path d="M432.31 15.5284C431.101 11.9673 428.389 9.58239 423.423 9.58239C418.131 9.58239 414.21 12.5881 414.21 16.8352C414.21 20.2983 416.269 22.6179 420.875 23.696L425.057 24.6761C427.589 25.2642 428.781 26.473 428.781 28.2045C428.781 30.3608 426.495 32.125 422.901 32.125C419.748 32.125 417.771 30.7692 417.085 28.0739L413.426 28.9886C414.325 33.2521 417.837 35.5227 422.966 35.5227C428.798 35.5227 432.767 32.3374 432.767 28.0085C432.767 24.5128 430.578 22.3075 426.102 21.2131L422.378 20.2983C419.405 19.5632 418.066 18.5668 418.066 16.6392C418.066 14.483 420.352 12.9148 423.423 12.9148C426.789 12.9148 428.177 14.777 428.847 16.5085L432.31 15.5284Z" fill="#2D53A5"/>
<path d="M438.11 35H441.965V9.90909H438.11V35ZM440.071 5.72727C441.573 5.72727 442.815 4.55114 442.815 3.11364C442.815 1.67614 441.573 0.5 440.071 0.5C438.568 0.5 437.326 1.67614 437.326 3.11364C437.326 4.55114 438.568 5.72727 440.071 5.72727Z" fill="#482475"/>
<path d="M438.11 35H441.965V9.90909H438.11V35ZM440.071 5.72727C441.573 5.72727 442.815 4.55114 442.815 3.11364C442.815 1.67614 441.573 0.5 440.071 0.5C438.568 0.5 437.326 1.67614 437.326 3.11364C437.326 4.55114 438.568 5.72727 440.071 5.72727Z" fill="#2D53A5"/>
<path d="M458.694 44.9318C464.706 44.9318 469.541 42.1875 469.541 35.7188V9.90909H465.816V13.8949H465.424C464.575 12.5881 463.007 9.58239 458.106 9.58239C451.768 9.58239 447.39 14.6136 447.39 22.3239C447.39 30.1648 451.964 34.608 458.041 34.608C462.941 34.608 464.51 31.733 465.359 30.3608H465.686V35.4574C465.686 39.6392 462.745 41.5341 458.694 41.5341C454.137 41.5341 452.536 39.1328 451.507 37.7443L448.436 39.9006C450.004 42.5305 453.091 44.9318 458.694 44.9318ZM458.564 31.1449C453.728 31.1449 451.245 27.4858 451.245 22.2585C451.245 17.1619 453.663 13.0455 458.564 13.0455C463.268 13.0455 465.751 16.8352 465.751 22.2585C465.751 27.8125 463.203 31.1449 458.564 31.1449Z" fill="#482475"/>
<path d="M458.694 44.9318C464.706 44.9318 469.541 42.1875 469.541 35.7188V9.90909H465.816V13.8949H465.424C464.575 12.5881 463.007 9.58239 458.106 9.58239C451.768 9.58239 447.39 14.6136 447.39 22.3239C447.39 30.1648 451.964 34.608 458.041 34.608C462.941 34.608 464.51 31.733 465.359 30.3608H465.686V35.4574C465.686 39.6392 462.745 41.5341 458.694 41.5341C454.137 41.5341 452.536 39.1328 451.507 37.7443L448.436 39.9006C450.004 42.5305 453.091 44.9318 458.694 44.9318ZM458.564 31.1449C453.728 31.1449 451.245 27.4858 451.245 22.2585C451.245 17.1619 453.663 13.0455 458.564 13.0455C463.268 13.0455 465.751 16.8352 465.751 22.2585C465.751 27.8125 463.203 31.1449 458.564 31.1449Z" fill="#2D53A5"/>
<path d="M479.993 19.9062C479.993 15.5284 482.704 13.0455 486.396 13.0455C489.974 13.0455 492.146 15.3814 492.146 19.3182V35H496.001V19.0568C496.001 12.6534 492.587 9.58239 487.507 9.58239C483.717 9.58239 481.365 11.2813 480.189 13.8295H479.862V9.90909H476.138V35H479.993V19.9062Z" fill="#482475"/>
<path d="M479.993 19.9062C479.993 15.5284 482.704 13.0455 486.396 13.0455C489.974 13.0455 492.146 15.3814 492.146 19.3182V35H496.001V19.0568C496.001 12.6534 492.587 9.58239 487.507 9.58239C483.717 9.58239 481.365 11.2813 480.189 13.8295H479.862V9.90909H476.138V35H479.993V19.9062Z" fill="#2D53A5"/>
<path d="M518.919 1.54545H515.063V35H518.919V1.54545Z" fill="#482475"/>
<path d="M518.919 1.54545H515.063V35H518.919V1.54545Z" fill="#2D53A5"/>
<path d="M532.903 35.5881C537.281 35.5881 539.568 33.2358 540.352 31.6023H540.548V35H544.403V18.4688C544.403 10.4972 538.326 9.58239 535.124 9.58239C531.335 9.58239 527.022 10.8892 525.062 15.4631L528.721 16.7699C529.57 14.9403 531.58 12.9801 535.255 12.9801C538.8 12.9801 540.548 14.8587 540.548 18.0767V18.2074C540.548 20.0696 538.653 19.9063 534.079 20.4943C529.423 21.0987 524.343 22.1278 524.343 27.8778C524.343 32.7784 528.133 35.5881 532.903 35.5881ZM533.491 32.125C530.42 32.125 528.198 30.7528 528.198 28.0739C528.198 25.1335 530.877 24.2188 533.883 23.8267C535.516 23.6307 539.894 23.1733 540.548 22.3892V25.9176C540.548 29.054 538.065 32.125 533.491 32.125Z" fill="#482475"/>
<path d="M532.903 35.5881C537.281 35.5881 539.568 33.2358 540.352 31.6023H540.548V35H544.403V18.4688C544.403 10.4972 538.326 9.58239 535.124 9.58239C531.335 9.58239 527.022 10.8892 525.062 15.4631L528.721 16.7699C529.57 14.9403 531.58 12.9801 535.255 12.9801C538.8 12.9801 540.548 14.8587 540.548 18.0767V18.2074C540.548 20.0696 538.653 19.9063 534.079 20.4943C529.423 21.0987 524.343 22.1278 524.343 27.8778C524.343 32.7784 528.133 35.5881 532.903 35.5881ZM533.491 32.125C530.42 32.125 528.198 30.7528 528.198 28.0739C528.198 25.1335 530.877 24.2188 533.883 23.8267C535.516 23.6307 539.894 23.1733 540.548 22.3892V25.9176C540.548 29.054 538.065 32.125 533.491 32.125Z" fill="#2D53A5"/>
<path d="M554.834 19.9062C554.834 15.5284 557.546 13.0455 561.238 13.0455C564.815 13.0455 566.988 15.3814 566.988 19.3182V35H570.843V19.0568C570.843 12.6534 567.429 9.58239 562.349 9.58239C558.559 9.58239 556.207 11.2813 555.03 13.8295H554.704V9.90909H550.979V35H554.834V19.9062Z" fill="#482475"/>
<path d="M554.834 19.9062C554.834 15.5284 557.546 13.0455 561.238 13.0455C564.815 13.0455 566.988 15.3814 566.988 19.3182V35H570.843V19.0568C570.843 12.6534 567.429 9.58239 562.349 9.58239C558.559 9.58239 556.207 11.2813 555.03 13.8295H554.704V9.90909H550.979V35H554.834V19.9062Z" fill="#2D53A5"/>
<path d="M587.555 44.9318C593.567 44.9318 598.402 42.1875 598.402 35.7188V9.90909H594.677V13.8949H594.285C593.436 12.5881 591.868 9.58239 586.967 9.58239C580.629 9.58239 576.251 14.6136 576.251 22.3239C576.251 30.1648 580.825 34.608 586.902 34.608C591.803 34.608 593.371 31.733 594.22 30.3608H594.547V35.4574C594.547 39.6392 591.607 41.5341 587.555 41.5341C582.998 41.5341 581.397 39.1328 580.368 37.7443L577.297 39.9006C578.865 42.5305 581.952 44.9318 587.555 44.9318ZM587.425 31.1449C582.589 31.1449 580.107 27.4858 580.107 22.2585C580.107 17.1619 582.524 13.0455 587.425 13.0455C592.129 13.0455 594.612 16.8352 594.612 22.2585C594.612 27.8125 592.064 31.1449 587.425 31.1449Z" fill="#482475"/>
<path d="M587.555 44.9318C593.567 44.9318 598.402 42.1875 598.402 35.7188V9.90909H594.677V13.8949H594.285C593.436 12.5881 591.868 9.58239 586.967 9.58239C580.629 9.58239 576.251 14.6136 576.251 22.3239C576.251 30.1648 580.825 34.608 586.902 34.608C591.803 34.608 593.371 31.733 594.22 30.3608H594.547V35.4574C594.547 39.6392 591.607 41.5341 587.555 41.5341C582.998 41.5341 581.397 39.1328 580.368 37.7443L577.297 39.9006C578.865 42.5305 581.952 44.9318 587.555 44.9318ZM587.425 31.1449C582.589 31.1449 580.107 27.4858 580.107 22.2585C580.107 17.1619 582.524 13.0455 587.425 13.0455C592.129 13.0455 594.612 16.8352 594.612 22.2585C594.612 27.8125 592.064 31.1449 587.425 31.1449Z" fill="#2D53A5"/>
<path d="M620.811 24.7415C620.811 29.446 617.217 31.6023 614.342 31.6023C611.141 31.6023 608.854 29.25 608.854 25.5909V9.90909H604.999V25.8523C604.999 32.2557 608.396 35.3267 613.101 35.3267C616.891 35.3267 619.374 33.3011 620.55 30.7528H620.811V35H624.666V9.90909H620.811V24.7415Z" fill="#482475"/>
<path d="M620.811 24.7415C620.811 29.446 617.217 31.6023 614.342 31.6023C611.141 31.6023 608.854 29.25 608.854 25.5909V9.90909H604.999V25.8523C604.999 32.2557 608.396 35.3267 613.101 35.3267C616.891 35.3267 619.374 33.3011 620.55 30.7528H620.811V35H624.666V9.90909H620.811V24.7415Z" fill="#2D53A5"/>
<path d="M638.651 35.5881C643.029 35.5881 645.315 33.2358 646.1 31.6023H646.296V35H650.151V18.4688C650.151 10.4972 644.074 9.58239 640.872 9.58239C637.083 9.58239 632.77 10.8892 630.81 15.4631L634.469 16.7699C635.318 14.9403 637.328 12.9801 641.003 12.9801C644.548 12.9801 646.296 14.8587 646.296 18.0767V18.2074C646.296 20.0696 644.401 19.9063 639.827 20.4943C635.171 21.0987 630.091 22.1278 630.091 27.8778C630.091 32.7784 633.881 35.5881 638.651 35.5881ZM639.239 32.125C636.168 32.125 633.946 30.7528 633.946 28.0739C633.946 25.1335 636.625 24.2188 639.631 23.8267C641.264 23.6307 645.642 23.1733 646.296 22.3892V25.9176C646.296 29.054 643.813 32.125 639.239 32.125Z" fill="#482475"/>
<path d="M638.651 35.5881C643.029 35.5881 645.315 33.2358 646.1 31.6023H646.296V35H650.151V18.4688C650.151 10.4972 644.074 9.58239 640.872 9.58239C637.083 9.58239 632.77 10.8892 630.81 15.4631L634.469 16.7699C635.318 14.9403 637.328 12.9801 641.003 12.9801C644.548 12.9801 646.296 14.8587 646.296 18.0767V18.2074C646.296 20.0696 644.401 19.9063 639.827 20.4943C635.171 21.0987 630.091 22.1278 630.091 27.8778C630.091 32.7784 633.881 35.5881 638.651 35.5881ZM639.239 32.125C636.168 32.125 633.946 30.7528 633.946 28.0739C633.946 25.1335 636.625 24.2188 639.631 23.8267C641.264 23.6307 645.642 23.1733 646.296 22.3892V25.9176C646.296 29.054 643.813 32.125 639.239 32.125Z" fill="#2D53A5"/>
<path d="M666.855 44.9318C672.866 44.9318 677.702 42.1875 677.702 35.7188V9.90909H673.977V13.8949H673.585C672.736 12.5881 671.168 9.58239 666.267 9.58239C659.929 9.58239 655.551 14.6136 655.551 22.3239C655.551 30.1648 660.125 34.608 666.202 34.608C671.102 34.608 672.67 31.733 673.52 30.3608H673.846V35.4574C673.846 39.6392 670.906 41.5341 666.855 41.5341C662.297 41.5341 660.697 39.1328 659.668 37.7443L656.596 39.9006C658.165 42.5305 661.252 44.9318 666.855 44.9318ZM666.724 31.1449C661.889 31.1449 659.406 27.4858 659.406 22.2585C659.406 17.1619 661.824 13.0455 666.724 13.0455C671.429 13.0455 673.912 16.8352 673.912 22.2585C673.912 27.8125 671.364 31.1449 666.724 31.1449Z" fill="#482475"/>
<path d="M666.855 44.9318C672.866 44.9318 677.702 42.1875 677.702 35.7188V9.90909H673.977V13.8949H673.585C672.736 12.5881 671.168 9.58239 666.267 9.58239C659.929 9.58239 655.551 14.6136 655.551 22.3239C655.551 30.1648 660.125 34.608 666.202 34.608C671.102 34.608 672.67 31.733 673.52 30.3608H673.846V35.4574C673.846 39.6392 670.906 41.5341 666.855 41.5341C662.297 41.5341 660.697 39.1328 659.668 37.7443L656.596 39.9006C658.165 42.5305 661.252 44.9318 666.855 44.9318ZM666.724 31.1449C661.889 31.1449 659.406 27.4858 659.406 22.2585C659.406 17.1619 661.824 13.0455 666.724 13.0455C671.429 13.0455 673.912 16.8352 673.912 22.2585C673.912 27.8125 671.364 31.1449 666.724 31.1449Z" fill="#2D53A5"/>
<path d="M694.818 35.5227C699.915 35.5227 703.639 32.9744 704.815 29.1847L701.091 28.1392C700.111 30.7528 697.84 32.0597 694.818 32.0597C690.293 32.0597 687.173 29.1357 686.994 23.7614H705.207V22.1278C705.207 12.7841 699.654 9.58239 694.426 9.58239C687.631 9.58239 683.122 14.9403 683.122 22.6506C683.122 30.3608 687.565 35.5227 694.818 35.5227ZM686.994 20.429C687.255 16.5249 690.016 13.0455 694.426 13.0455C698.608 13.0455 701.287 16.1818 701.287 20.429H686.994Z" fill="#482475"/>
<path d="M694.818 35.5227C699.915 35.5227 703.639 32.9744 704.815 29.1847L701.091 28.1392C700.111 30.7528 697.84 32.0597 694.818 32.0597C690.293 32.0597 687.173 29.1357 686.994 23.7614H705.207V22.1278C705.207 12.7841 699.654 9.58239 694.426 9.58239C687.631 9.58239 683.122 14.9403 683.122 22.6506C683.122 30.3608 687.565 35.5227 694.818 35.5227ZM686.994 20.429C687.255 16.5249 690.016 13.0455 694.426 13.0455C698.608 13.0455 701.287 16.1818 701.287 20.429H686.994Z" fill="#2D53A5"/>
<path d="M713.422 35.2614C715.039 35.2614 716.362 33.9382 716.362 32.321C716.362 30.7038 715.039 29.3807 713.422 29.3807C711.804 29.3807 710.481 30.7038 710.481 32.321C710.481 33.9382 711.804 35.2614 713.422 35.2614Z" fill="#482475"/>
<path d="M713.422 35.2614C715.039 35.2614 716.362 33.9382 716.362 32.321C716.362 30.7038 715.039 29.3807 713.422 29.3807C711.804 29.3807 710.481 30.7038 710.481 32.321C710.481 33.9382 711.804 35.2614 713.422 35.2614Z" fill="#2D53A5"/>
</svg>
