<svg width="191" height="32" viewBox="0 0 191 32" fill="none" xmlns="http://www.w3.org/2000/svg">
<path d="M17.5635 10.2755H23.4584C23.3731 5.09082 19.1118 1.51127 12.6345 1.51127C6.25666 1.51127 1.58336 5.034 1.61177 10.3181C1.59757 14.6079 4.62314 17.0653 9.53791 18.2442L12.7055 19.0397C15.8731 19.8067 17.6345 20.7158 17.6487 22.676C17.6345 24.8067 15.6175 26.2556 12.4925 26.2556C9.29643 26.2556 6.9953 24.7783 6.79643 21.8664H0.844727C1.00098 28.159 5.50382 31.4118 12.5635 31.4118C19.6658 31.4118 23.8419 28.017 23.8561 22.6903C23.8419 17.8465 20.1913 15.2755 15.1345 14.1391L12.5209 13.5141C9.99245 12.9317 7.87598 11.9942 7.91859 9.90616C7.91859 8.03116 9.58052 6.65332 12.5919 6.65332C15.5322 6.65332 17.3362 7.98855 17.5635 10.2755Z" fill="#482475"/>
<path d="M17.5635 10.2755H23.4584C23.3731 5.09082 19.1118 1.51127 12.6345 1.51127C6.25666 1.51127 1.58336 5.034 1.61177 10.3181C1.59757 14.6079 4.62314 17.0653 9.53791 18.2442L12.7055 19.0397C15.8731 19.8067 17.6345 20.7158 17.6487 22.676C17.6345 24.8067 15.6175 26.2556 12.4925 26.2556C9.29643 26.2556 6.9953 24.7783 6.79643 21.8664H0.844727C1.00098 28.159 5.50382 31.4118 12.5635 31.4118C19.6658 31.4118 23.8419 28.017 23.8561 22.6903C23.8419 17.8465 20.1913 15.2755 15.1345 14.1391L12.5209 13.5141C9.99245 12.9317 7.87598 11.9942 7.91859 9.90616C7.91859 8.03116 9.58052 6.65332 12.5919 6.65332C15.5322 6.65332 17.3362 7.98855 17.5635 10.2755Z" fill="#2D53A5"/>
<path d="M27.8835 30.9999H33.9347V17.9033C33.9347 15.4885 35.4688 13.8834 37.4858 13.8834C39.4744 13.8834 40.8097 15.2471 40.8097 17.392V30.9999H46.6761V17.676C46.6761 15.4175 47.9688 13.8834 50.1705 13.8834C52.1023 13.8834 53.5511 15.0908 53.5511 17.5198V30.9999H59.5881V16.3266C59.5881 11.5965 56.7756 8.89764 52.7131 8.89764C49.5171 8.89764 47.0313 10.5312 46.1364 13.0312H45.9091C45.2131 10.5028 42.983 8.89764 39.9858 8.89764C37.0455 8.89764 34.8153 10.4601 33.9063 13.0312H33.6506V9.18173H27.8835V30.9999Z" fill="#482475"/>
<path d="M27.8835 30.9999H33.9347V17.9033C33.9347 15.4885 35.4688 13.8834 37.4858 13.8834C39.4744 13.8834 40.8097 15.2471 40.8097 17.392V30.9999H46.6761V17.676C46.6761 15.4175 47.9688 13.8834 50.1705 13.8834C52.1023 13.8834 53.5511 15.0908 53.5511 17.5198V30.9999H59.5881V16.3266C59.5881 11.5965 56.7756 8.89764 52.7131 8.89764C49.5171 8.89764 47.0313 10.5312 46.1364 13.0312H45.9091C45.2131 10.5028 42.983 8.89764 39.9858 8.89764C37.0455 8.89764 34.8153 10.4601 33.9063 13.0312H33.6506V9.18173H27.8835V30.9999Z" fill="#2D53A5"/>
<path d="M70.5935 31.4118C73.8179 31.4118 75.906 30.0056 76.9713 27.9743H77.1418V30.9999H82.8804V16.284C82.8804 11.0851 78.477 8.89764 73.6191 8.89764C68.3918 8.89764 64.9543 11.3976 64.1162 15.3749L69.7128 15.8295C70.1247 14.3806 71.4174 13.3153 73.5907 13.3153C75.6503 13.3153 76.8293 14.3522 76.8293 16.142V16.2272C76.8293 17.6334 75.3378 17.8181 71.5452 18.1874C67.227 18.5851 63.3492 20.034 63.3492 24.9062C63.3492 29.2243 66.4316 31.4118 70.5935 31.4118ZM72.3264 27.2357C70.4657 27.2357 69.1304 26.3692 69.1304 24.7073C69.1304 23.0028 70.5367 22.1647 72.6674 21.8664C73.9884 21.6817 76.1475 21.3692 76.8719 20.8863V23.2016C76.8719 25.4886 74.9827 27.2357 72.3264 27.2357Z" fill="#482475"/>
<path d="M70.5935 31.4118C73.8179 31.4118 75.906 30.0056 76.9713 27.9743H77.1418V30.9999H82.8804V16.284C82.8804 11.0851 78.477 8.89764 73.6191 8.89764C68.3918 8.89764 64.9543 11.3976 64.1162 15.3749L69.7128 15.8295C70.1247 14.3806 71.4174 13.3153 73.5907 13.3153C75.6503 13.3153 76.8293 14.3522 76.8293 16.142V16.2272C76.8293 17.6334 75.3378 17.8181 71.5452 18.1874C67.227 18.5851 63.3492 20.034 63.3492 24.9062C63.3492 29.2243 66.4316 31.4118 70.5935 31.4118ZM72.3264 27.2357C70.4657 27.2357 69.1304 26.3692 69.1304 24.7073C69.1304 23.0028 70.5367 22.1647 72.6674 21.8664C73.9884 21.6817 76.1475 21.3692 76.8719 20.8863V23.2016C76.8719 25.4886 74.9827 27.2357 72.3264 27.2357Z" fill="#2D53A5"/>
<path d="M87.579 30.9999H93.6302V18.6562C93.6302 15.9715 95.5904 14.1249 98.2608 14.1249C99.0989 14.1249 100.249 14.267 100.818 14.4516V9.0823C100.278 8.95446 99.525 8.86923 98.9143 8.86923C96.4711 8.86923 94.4682 10.2897 93.6728 12.9885H93.4455V9.18173H87.579V30.9999Z" fill="#482475"/>
<path d="M87.579 30.9999H93.6302V18.6562C93.6302 15.9715 95.5904 14.1249 98.2608 14.1249C99.0989 14.1249 100.249 14.267 100.818 14.4516V9.0823C100.278 8.95446 99.525 8.86923 98.9143 8.86923C96.4711 8.86923 94.4682 10.2897 93.6728 12.9885H93.4455V9.18173H87.579V30.9999Z" fill="#2D53A5"/>
<path d="M116.649 9.18173H112.544V3.95446H106.493V9.18173H103.51V13.7272H106.493V25.0908C106.464 29.3664 109.376 31.4829 113.766 31.2982C115.328 31.2414 116.436 30.9289 117.047 30.73L116.095 26.2272C115.797 26.284 115.158 26.426 114.589 26.426C113.382 26.426 112.544 25.9715 112.544 24.2954V13.7272H116.649V9.18173Z" fill="#482475"/>
<path d="M116.649 9.18173H112.544V3.95446H106.493V9.18173H103.51V13.7272H106.493V25.0908C106.464 29.3664 109.376 31.4829 113.766 31.2982C115.328 31.2414 116.436 30.9289 117.047 30.73L116.095 26.2272C115.797 26.284 115.158 26.426 114.589 26.426C113.382 26.426 112.544 25.9715 112.544 24.2954V13.7272H116.649V9.18173Z" fill="#2D53A5"/>
<path d="M120.595 30.9999H126.646V18.6562C126.646 15.9715 128.606 14.1249 131.277 14.1249C132.115 14.1249 133.265 14.267 133.833 14.4516V9.0823C133.294 8.95446 132.541 8.86923 131.93 8.86923C129.487 8.86923 127.484 10.2897 126.689 12.9885H126.461V9.18173H120.595V30.9999Z" fill="#482475"/>
<path d="M120.595 30.9999H126.646V18.6562C126.646 15.9715 128.606 14.1249 131.277 14.1249C132.115 14.1249 133.265 14.267 133.833 14.4516V9.0823C133.294 8.95446 132.541 8.86923 131.93 8.86923C129.487 8.86923 127.484 10.2897 126.689 12.9885H126.461V9.18173H120.595V30.9999Z" fill="#2D53A5"/>
<path d="M136.966 30.9999H143.017V9.18173H136.966V30.9999ZM140.006 6.36923C141.81 6.36923 143.287 4.99139 143.287 3.30105C143.287 1.62491 141.81 0.24707 140.006 0.24707C138.216 0.24707 136.739 1.62491 136.739 3.30105C136.739 4.99139 138.216 6.36923 140.006 6.36923Z" fill="#482475"/>
<path d="M136.966 30.9999H143.017V9.18173H136.966V30.9999ZM140.006 6.36923C141.81 6.36923 143.287 4.99139 143.287 3.30105C143.287 1.62491 141.81 0.24707 140.006 0.24707C138.216 0.24707 136.739 1.62491 136.739 3.30105C136.739 4.99139 138.216 6.36923 140.006 6.36923Z" fill="#2D53A5"/>
<path d="M147.868 30.9999H153.92V24.0681L155.553 22.2073L161.505 30.9999H168.593L160.084 18.6278L168.181 9.18173H161.235L154.246 17.463H153.92V1.909H147.868V30.9999Z" fill="#482475"/>
<path d="M147.868 30.9999H153.92V24.0681L155.553 22.2073L161.505 30.9999H168.593L160.084 18.6278L168.181 9.18173H161.235L154.246 17.463H153.92V1.909H147.868V30.9999Z" fill="#2D53A5"/>
<path d="M180.198 31.426C185.596 31.426 189.233 28.7982 190.085 24.7499L184.488 24.3806C183.877 26.0425 182.315 26.909 180.298 26.909C177.272 26.909 175.355 24.9062 175.355 21.6533V21.6391H190.213V19.9772C190.213 12.5624 185.724 8.89764 179.957 8.89764C173.537 8.89764 169.375 13.4573 169.375 20.1903C169.375 27.1079 173.48 31.426 180.198 31.426ZM175.355 17.8891C175.483 15.4033 177.372 13.4147 180.056 13.4147C182.684 13.4147 184.502 15.2897 184.517 17.8891H175.355Z" fill="#482475"/>
<path d="M180.198 31.426C185.596 31.426 189.233 28.7982 190.085 24.7499L184.488 24.3806C183.877 26.0425 182.315 26.909 180.298 26.909C177.272 26.909 175.355 24.9062 175.355 21.6533V21.6391H190.213V19.9772C190.213 12.5624 185.724 8.89764 179.957 8.89764C173.537 8.89764 169.375 13.4573 169.375 20.1903C169.375 27.1079 173.48 31.426 180.198 31.426ZM175.355 17.8891C175.483 15.4033 177.372 13.4147 180.056 13.4147C182.684 13.4147 184.502 15.2897 184.517 17.8891H175.355Z" fill="#2D53A5"/>
</svg>
