<svg width="387" height="63" viewBox="0 0 387 63" fill="none" xmlns="http://www.w3.org/2000/svg">
<path d="M33.1494 21.2612H46.6153C46.5017 10.3806 37.8369 3.02259 24.3142 3.02259C11.0187 3.02259 1.44487 10.2669 1.5301 21.0908C1.50169 29.926 7.69487 34.8976 17.7517 37.1987L23.8312 38.6192C30.2233 40.0965 33.0926 41.8294 33.1494 45.0965C33.0926 48.6476 29.7687 51.1192 24.1153 51.1192C17.8937 51.1192 13.8028 48.2215 13.4903 42.6249H0.0244141C0.194869 56.2328 9.6551 62.7385 24.2858 62.7385C38.7744 62.7385 47.354 56.176 47.4108 45.1249C47.354 35.8351 41.0756 30.1533 29.5983 27.6249L24.5983 26.4885C19.3142 25.3521 15.9619 23.5908 16.0756 20.1249C16.104 16.9431 18.8312 14.6419 24.2858 14.6419C29.7687 14.6419 32.7801 17.1135 33.1494 21.2612Z" fill="#2D53A5"/>
<path d="M54.5131 61.9999H68.4051V36.176C68.4051 31.8578 70.9335 29.1021 74.5699 29.1021C78.1778 29.1021 80.5642 31.6306 80.5642 35.6646V61.9999H93.9165V35.9487C93.9165 31.7726 96.2176 29.1021 100.053 29.1021C103.576 29.1021 106.076 31.4601 106.076 35.8067V61.9999H119.968V32.6249C119.968 23.3919 114.286 17.7953 106.047 17.7953C99.5983 17.7953 94.513 21.176 92.8937 26.3749H92.4392C91.2744 21.1476 86.5869 17.7953 80.5358 17.7953C74.5699 17.7953 70.0244 21.0624 68.2062 26.3749H67.7233V18.3635H54.5131V61.9999Z" fill="#2D53A5"/>
<path d="M140.877 62.7385C146.956 62.7385 151.161 60.3806 153.547 55.9203H153.888V61.9999H166.956V32.3408C166.956 23.1078 158.746 17.7953 147.638 17.7953C135.905 17.7953 129.257 23.7044 128.149 31.659L140.962 32.1135C141.559 29.3294 143.86 27.6249 147.524 27.6249C150.934 27.6249 153.093 29.2726 153.093 32.1987V32.3408C153.093 35.0112 150.195 35.5794 142.752 36.2328C133.916 36.9715 126.53 40.2385 126.53 49.8976C126.53 58.534 132.524 62.7385 140.877 62.7385ZM145.166 53.6476C141.956 53.6476 139.684 52.1135 139.684 49.2158C139.684 46.4033 141.899 44.6987 145.848 44.1021C148.433 43.7328 151.615 43.1646 153.178 42.3408V46.4885C153.178 50.7499 149.598 53.6476 145.166 53.6476Z" fill="#2D53A5"/>
<path d="M175.451 61.9999H189.343V38.3067C189.343 33.1078 193.036 29.6135 198.007 29.6135C199.655 29.6135 202.127 29.8976 203.462 30.3521V18.2783C202.297 17.9658 200.848 17.7669 199.57 17.7669C194.797 17.7669 190.99 20.551 189.399 26.3181H188.945V18.3635H175.451V61.9999Z" fill="#2D53A5"/>
<path d="M235.706 18.3635H227.837V7.90896H213.945V18.3635H208.178V28.5908H213.945V49.8124C213.86 58.6476 219.598 63.0794 229.399 62.6249C232.752 62.4544 235.166 61.7726 236.502 61.3749L234.399 51.3465C233.803 51.4885 232.411 51.7726 231.36 51.7726C229.115 51.7726 227.837 50.8635 227.837 48.2783V28.5908H235.706V18.3635Z" fill="#2D53A5"/>
<path d="M242.794 61.9999H256.686V38.3067C256.686 33.1078 260.38 29.6135 265.351 29.6135C266.999 29.6135 269.47 29.8976 270.806 30.3521V18.2783C269.641 17.9658 268.192 17.7669 266.914 17.7669C262.141 17.7669 258.334 20.551 256.743 26.3181H256.289V18.3635H242.794V61.9999Z" fill="#2D53A5"/>
<path d="M276.466 61.9999H290.358V18.3635H276.466V61.9999ZM283.426 13.2783C287.375 13.2783 290.557 10.2953 290.557 6.63055C290.557 2.96578 287.375 0.0112305 283.426 0.0112305C279.506 0.0112305 276.296 2.96578 276.296 6.63055C276.296 10.2953 279.506 13.2783 283.426 13.2783Z" fill="#2D53A5"/>
<path d="M299.201 61.9999H313.093V48.9033L315.905 45.4942L326.303 61.9999H342.354L326.246 37.3692L341.729 18.3635H325.99L313.718 33.9885H313.093V3.81805H299.201V61.9999Z" fill="#2D53A5"/>
<path d="M365.301 62.8237C376.75 62.8237 384.279 57.284 385.87 48.7044L373.114 48.3351C372.034 51.2328 369.193 52.7953 365.557 52.7953C360.216 52.7953 356.921 49.2442 356.921 43.9033V43.534H386.012V40.068C386.012 25.693 377.262 17.7953 364.875 17.7953C351.693 17.7953 343.228 26.8294 343.228 40.3521C343.228 54.3294 351.58 62.8237 365.301 62.8237ZM356.921 35.4658C357.12 31.1192 360.557 27.8237 365.159 27.8237C369.733 27.8237 373.029 31.0056 373.086 35.4658H356.921Z" fill="#2D53A5"/>
</svg>
