<svg width="12" height="148" viewBox="0 0 12 148" fill="none" xmlns="http://www.w3.org/2000/svg">
<path d="M0 147.372C0 147.614 0.196347 147.811 0.438553 147.811H3.5233C6.30784 147.811 8.34225 146.091 8.34225 142.274V78.789C8.34225 76.712 9.30832 74.7473 11.2973 74.7473V73.0632C9.30832 73.0632 8.34225 71.0985 8.34225 69.0215V5.53633C8.34225 1.71914 6.30784 0 3.5233 0H0.438555C0.196348 0 0 0.196347 0 0.438554V0.438554C0 0.680761 0.196348 0.877109 0.438554 0.877109H3.5233C5.62591 0.877109 7.44438 2.84184 7.44438 5.53633V69.0215C7.44438 71.3792 8.12631 73.1194 10.0016 73.9053C8.12631 74.6911 7.44438 76.4313 7.44438 78.789V142.274C7.44438 144.913 5.62591 146.933 3.5233 146.933H0.438553C0.196347 146.933 0 147.13 0 147.372V147.372Z" fill="black"/>
</svg>
