<svg width="517" height="53" viewBox="0 0 517 53" fill="none" xmlns="http://www.w3.org/2000/svg">
<path d="M29.7979 16.3538H41.5805C41.4811 6.83323 33.8994 0.39502 22.067 0.39502C10.4335 0.39502 2.05637 6.7338 2.13095 16.2047C2.10609 23.9355 7.52512 28.2856 16.3248 30.2991L21.6444 31.542C27.2375 32.8347 29.7481 34.351 29.7979 37.2096C29.7481 40.3169 26.8398 42.4795 21.893 42.4795C16.4491 42.4795 12.8696 39.944 12.5961 35.047H0.813477C0.962624 46.954 9.24032 52.6464 22.0422 52.6464C34.7197 52.6464 42.2268 46.9043 42.2765 37.2345C42.2268 29.106 36.7332 24.1344 26.6906 21.922L22.3156 20.9277C17.692 19.9334 14.7588 18.3922 14.8582 15.3595C14.8831 12.5754 17.2694 10.5619 22.0422 10.5619C26.8398 10.5619 29.4747 12.7246 29.7979 16.3538Z" fill="#2A2B2E"/>
<path d="M66.3391 52.721C76.3568 52.721 82.9442 47.8737 84.3362 40.3666L73.175 40.0435C72.2304 42.579 69.7446 43.9462 66.5628 43.9462C61.8895 43.9462 59.0059 40.8389 59.0059 36.1656V35.8425H84.4605V32.8098C84.4605 20.2317 76.8042 13.3212 65.9662 13.3212C54.4321 13.3212 47.0244 21.226 47.0244 33.0584C47.0244 45.2885 54.3327 52.721 66.3391 52.721ZM59.0059 28.7828C59.18 24.9795 62.1878 22.096 66.2148 22.096C70.2169 22.096 73.1004 24.8801 73.1501 28.7828H59.0059Z" fill="#2A2B2E"/>
<path d="M108.492 52.721C119.231 52.721 125.892 46.4817 126.216 37.0356H114.856C114.408 41.0875 111.972 43.2999 108.641 43.2999C104.366 43.2999 101.581 39.6954 101.581 32.9092C101.581 26.1727 104.39 22.5683 108.641 22.5683C112.121 22.5683 114.383 24.9298 114.856 28.8325H126.216C125.942 19.4362 119.081 13.3212 108.467 13.3212C96.4607 13.3212 89.2021 21.3254 89.2021 33.0335C89.2021 44.6919 96.411 52.721 108.492 52.721Z" fill="#2A2B2E"/>
<path d="M132.436 52.0001H144.592V31.2686C144.592 26.7196 147.823 23.6621 152.174 23.6621C153.615 23.6621 155.778 23.9106 156.946 24.3084V13.7437C155.927 13.4703 154.659 13.2963 153.541 13.2963C149.365 13.2963 146.034 15.7324 144.642 20.7785H144.244V13.8183H132.436V52.0001Z" fill="#2A2B2E"/>
<path d="M177.765 52.721C187.783 52.721 194.37 47.8737 195.762 40.3666L184.601 40.0435C183.656 42.579 181.17 43.9462 177.989 43.9462C173.315 43.9462 170.432 40.8389 170.432 36.1656V35.8425H195.886V32.8098C195.886 20.2317 188.23 13.3212 177.392 13.3212C165.858 13.3212 158.45 21.226 158.45 33.0584C158.45 45.2885 165.758 52.721 177.765 52.721ZM170.432 28.7828C170.606 24.9795 173.614 22.096 177.641 22.096C181.643 22.096 184.526 24.8801 184.576 28.7828H170.432Z" fill="#2A2B2E"/>
<path d="M223.646 13.8183H216.761V4.67059H204.605V13.8183H199.559V22.7672H204.605V41.3361C204.531 49.0669 209.552 52.9447 218.128 52.547C221.061 52.3979 223.174 51.8013 224.342 51.4533L222.503 42.6784C221.981 42.8027 220.763 43.0513 219.843 43.0513C217.879 43.0513 216.761 42.2558 216.761 39.9937V22.7672H223.646V13.8183Z" fill="#2A2B2E"/>
<path d="M278.297 17.721H290.75C289.508 7.57897 280.459 0.39502 268.677 0.39502C255.079 0.39502 244.341 9.96533 244.341 26.6202C244.341 42.7281 254.234 52.6962 268.826 52.6962C281.926 52.6962 291.297 44.5676 291.297 30.8957V24.1592H269.348V33.1329H279.44C279.316 38.5023 275.587 41.9078 268.925 41.9078C261.294 41.9078 256.894 36.265 256.894 26.471C256.894 16.7516 261.542 11.1834 268.925 11.1834C273.847 11.1834 277.203 13.5946 278.297 17.721Z" fill="#2A2B2E"/>
<path d="M310.705 1.09104H298.55V52.0001H310.705V1.09104Z" fill="#2A2B2E"/>
<path d="M329.206 52.6464C334.525 52.6464 338.204 50.5832 340.292 46.6805H340.591V52.0001H352.025V26.0484C352.025 17.9696 344.841 13.3212 335.122 13.3212C324.856 13.3212 319.039 18.4916 318.069 25.4518L329.28 25.8496C329.802 23.4135 331.816 21.922 335.022 21.922C338.005 21.922 339.895 23.3638 339.895 25.9241V26.0484C339.895 28.3851 337.359 28.8822 330.846 29.454C323.116 30.1003 316.652 32.9589 316.652 41.4107C316.652 48.9675 321.897 52.6464 329.206 52.6464ZM332.959 44.6919C330.15 44.6919 328.162 43.3496 328.162 40.8141C328.162 38.3531 330.101 36.8616 333.556 36.3396C335.818 36.0165 338.602 35.5193 339.969 34.7984V38.4277C339.969 42.1564 336.837 44.6919 332.959 44.6919Z" fill="#2A2B2E"/>
<path d="M392.792 25.4767C392.146 17.9199 385.956 13.3212 375.616 13.3212C365.275 13.3212 358.687 17.8204 358.737 25.4767C358.687 31.3432 362.441 35.1216 370.072 36.5385L376.734 37.8062C379.891 38.4277 381.333 39.422 381.383 41.1124C381.333 43.0264 379.195 44.2942 376.088 44.2942C372.633 44.2942 370.296 42.8027 369.774 40.0186L357.767 40.3169C358.638 47.8737 365.125 52.721 376.038 52.721C386.255 52.721 393.687 47.6251 393.737 39.77C393.687 34.2018 390.008 30.8957 382.402 29.4291L375.044 28.0371C371.812 27.3908 370.768 26.2473 370.793 24.7807C370.768 22.8418 373.03 21.6486 375.839 21.6486C379.046 21.6486 381.283 23.3638 381.631 25.775L392.792 25.4767Z" fill="#2A2B2E"/>
<path d="M433.056 25.4767C432.41 17.9199 426.22 13.3212 415.879 13.3212C405.538 13.3212 398.951 17.8204 399.001 25.4767C398.951 31.3432 402.704 35.1216 410.336 36.5385L416.998 37.8062C420.155 38.4277 421.597 39.422 421.646 41.1124C421.597 43.0264 419.459 44.2942 416.351 44.2942C412.896 44.2942 410.56 42.8027 410.038 40.0186L398.031 40.3169C398.901 47.8737 405.389 52.721 416.302 52.721C426.518 52.721 433.951 47.6251 434.001 39.77C433.951 34.2018 430.272 30.8957 422.665 29.4291L415.307 28.0371C412.076 27.3908 411.032 26.2473 411.057 24.7807C411.032 22.8418 413.294 21.6486 416.103 21.6486C419.31 21.6486 421.547 23.3638 421.895 25.775L433.056 25.4767Z" fill="#2A2B2E"/>
<path d="M457.833 52.721C467.851 52.721 474.438 47.8737 475.83 40.3666L464.669 40.0435C463.725 42.579 461.239 43.9462 458.057 43.9462C453.384 43.9462 450.5 40.8389 450.5 36.1656V35.8425H475.955V32.8098C475.955 20.2317 468.298 13.3212 457.46 13.3212C445.926 13.3212 438.519 21.226 438.519 33.0584C438.519 45.2885 445.827 52.721 457.833 52.721ZM450.5 28.7828C450.674 24.9795 453.682 22.096 457.709 22.096C461.711 22.096 464.595 24.8801 464.644 28.7828H450.5Z" fill="#2A2B2E"/>
<path d="M515.497 25.4767C514.851 17.9199 508.661 13.3212 498.321 13.3212C487.98 13.3212 481.392 17.8204 481.442 25.4767C481.392 31.3432 485.146 35.1216 492.777 36.5385L499.439 37.8062C502.596 38.4277 504.038 39.422 504.088 41.1124C504.038 43.0264 501.9 44.2942 498.793 44.2942C495.338 44.2942 493.001 42.8027 492.479 40.0186L480.473 40.3169C481.343 47.8737 487.831 52.721 498.743 52.721C508.96 52.721 516.392 47.6251 516.442 39.77C516.392 34.2018 512.713 30.8957 505.107 29.4291L497.749 28.0371C494.517 27.3908 493.473 26.2473 493.498 24.7807C493.473 22.8418 495.735 21.6486 498.544 21.6486C501.751 21.6486 503.988 23.3638 504.336 25.775L515.497 25.4767Z" fill="#2A2B2E"/>
</svg>
