<svg width="253" height="50" viewBox="0 0 253 50" fill="none" xmlns="http://www.w3.org/2000/svg">
<path d="M12.3587 5C11.8189 2.01705 9.43253 0.255681 6.50639 0.255681C2.7848 0.255681 0.0859375 3.125 0.0859375 7.72727C0.0859375 12.3295 2.7848 15.1989 6.50639 15.1989C9.43253 15.1989 11.8189 13.4375 12.3587 10.4545H10.5973C10.1712 12.4716 8.43821 13.5511 6.50639 13.5511C3.86435 13.5511 1.79049 11.5057 1.79049 7.72727C1.79049 3.94886 3.86435 1.90341 6.50639 1.90341C8.43821 1.90341 10.1712 2.98295 10.5973 5H12.3587Z" fill="#482475"/>
<path d="M12.3587 5C11.8189 2.01705 9.43253 0.255681 6.50639 0.255681C2.7848 0.255681 0.0859375 3.125 0.0859375 7.72727C0.0859375 12.3295 2.7848 15.1989 6.50639 15.1989C9.43253 15.1989 11.8189 13.4375 12.3587 10.4545H10.5973C10.1712 12.4716 8.43821 13.5511 6.50639 13.5511C3.86435 13.5511 1.79049 11.5057 1.79049 7.72727C1.79049 3.94886 3.86435 1.90341 6.50639 1.90341C8.43821 1.90341 10.1712 2.98295 10.5973 5H12.3587Z" fill="#2A2B2E"/>
<path d="M18.1879 15.2557C20.0913 15.2557 21.0856 14.233 21.4265 13.5227H21.5117V15H23.1879V7.8125C23.1879 4.34659 20.5458 3.94886 19.1538 3.94886C17.506 3.94886 15.631 4.51704 14.7788 6.50568L16.3697 7.07386C16.739 6.27841 17.6126 5.42614 19.2106 5.42614C20.7518 5.42614 21.5117 6.2429 21.5117 7.64204V7.69886C21.5117 8.50852 20.6879 8.4375 18.6992 8.69318C16.6751 8.95597 14.4663 9.40341 14.4663 11.9034C14.4663 14.0341 16.114 15.2557 18.1879 15.2557ZM18.4435 13.75C17.1083 13.75 16.1424 13.1534 16.1424 11.9886C16.1424 10.7102 17.3072 10.3125 18.614 10.142C19.3242 10.0568 21.2276 9.85795 21.5117 9.51704V11.0511C21.5117 12.4148 20.4322 13.75 18.4435 13.75Z" fill="#482475"/>
<path d="M18.1879 15.2557C20.0913 15.2557 21.0856 14.233 21.4265 13.5227H21.5117V15H23.1879V7.8125C23.1879 4.34659 20.5458 3.94886 19.1538 3.94886C17.506 3.94886 15.631 4.51704 14.7788 6.50568L16.3697 7.07386C16.739 6.27841 17.6126 5.42614 19.2106 5.42614C20.7518 5.42614 21.5117 6.2429 21.5117 7.64204V7.69886C21.5117 8.50852 20.6879 8.4375 18.6992 8.69318C16.6751 8.95597 14.4663 9.40341 14.4663 11.9034C14.4663 14.0341 16.114 15.2557 18.1879 15.2557ZM18.4435 13.75C17.1083 13.75 16.1424 13.1534 16.1424 11.9886C16.1424 10.7102 17.3072 10.3125 18.614 10.142C19.3242 10.0568 21.2276 9.85795 21.5117 9.51704V11.0511C21.5117 12.4148 20.4322 13.75 18.4435 13.75Z" fill="#2A2B2E"/>
<path d="M30.9915 4.09091H28.6619V1.47727H26.9858V4.09091H25.3381V5.51136H26.9858V12.3295C26.9858 14.233 28.5199 15.142 29.9403 15.142C30.5653 15.142 30.9631 15.0284 31.1903 14.9432L30.8494 13.4375C30.7074 13.4659 30.4801 13.5227 30.1108 13.5227C29.3722 13.5227 28.6619 13.2955 28.6619 11.875V5.51136H30.9915V4.09091Z" fill="#482475"/>
<path d="M30.9915 4.09091H28.6619V1.47727H26.9858V4.09091H25.3381V5.51136H26.9858V12.3295C26.9858 14.233 28.5199 15.142 29.9403 15.142C30.5653 15.142 30.9631 15.0284 31.1903 14.9432L30.8494 13.4375C30.7074 13.4659 30.4801 13.5227 30.1108 13.5227C29.3722 13.5227 28.6619 13.2955 28.6619 11.875V5.51136H30.9915V4.09091Z" fill="#2A2B2E"/>
<path d="M37.9695 15.2273C40.1854 15.2273 41.8047 14.1193 42.3161 12.4716L40.6967 12.017C40.2706 13.1534 39.2834 13.7216 37.9695 13.7216C36.0021 13.7216 34.6456 12.4503 34.5675 10.1136H42.4865V9.40341C42.4865 5.34091 40.0717 3.94886 37.799 3.94886C34.8445 3.94886 32.8842 6.27841 32.8842 9.63068C32.8842 12.983 34.8161 15.2273 37.9695 15.2273ZM34.5675 8.66477C34.6811 6.96733 35.8814 5.45455 37.799 5.45455C39.6172 5.45455 40.782 6.81818 40.782 8.66477H34.5675Z" fill="#482475"/>
<path d="M37.9695 15.2273C40.1854 15.2273 41.8047 14.1193 42.3161 12.4716L40.6967 12.017C40.2706 13.1534 39.2834 13.7216 37.9695 13.7216C36.0021 13.7216 34.6456 12.4503 34.5675 10.1136H42.4865V9.40341C42.4865 5.34091 40.0717 3.94886 37.799 3.94886C34.8445 3.94886 32.8842 6.27841 32.8842 9.63068C32.8842 12.983 34.8161 15.2273 37.9695 15.2273ZM34.5675 8.66477C34.6811 6.96733 35.8814 5.45455 37.799 5.45455C39.6172 5.45455 40.782 6.81818 40.782 8.66477H34.5675Z" fill="#2A2B2E"/>
<path d="M49.4396 19.3182C52.0533 19.3182 54.1555 18.125 54.1555 15.3125V4.09091H52.5362V5.82386H52.3658C51.9965 5.25568 51.3146 3.94886 49.1839 3.94886C46.4283 3.94886 44.5249 6.13636 44.5249 9.48864C44.5249 12.8977 46.5135 14.8295 49.1555 14.8295C51.2862 14.8295 51.968 13.5795 52.3374 12.983H52.4794V15.1989C52.4794 17.017 51.201 17.8409 49.4396 17.8409C47.4581 17.8409 46.7621 16.7969 46.3146 16.1932L44.9794 17.1307C45.6612 18.2741 47.0036 19.3182 49.4396 19.3182ZM49.3828 13.3239C47.2805 13.3239 46.201 11.733 46.201 9.46023C46.201 7.24432 47.2521 5.45455 49.3828 5.45455C51.4283 5.45455 52.5078 7.10227 52.5078 9.46023C52.5078 11.875 51.3999 13.3239 49.3828 13.3239Z" fill="#482475"/>
<path d="M49.4396 19.3182C52.0533 19.3182 54.1555 18.125 54.1555 15.3125V4.09091H52.5362V5.82386H52.3658C51.9965 5.25568 51.3146 3.94886 49.1839 3.94886C46.4283 3.94886 44.5249 6.13636 44.5249 9.48864C44.5249 12.8977 46.5135 14.8295 49.1555 14.8295C51.2862 14.8295 51.968 13.5795 52.3374 12.983H52.4794V15.1989C52.4794 17.017 51.201 17.8409 49.4396 17.8409C47.4581 17.8409 46.7621 16.7969 46.3146 16.1932L44.9794 17.1307C45.6612 18.2741 47.0036 19.3182 49.4396 19.3182ZM49.3828 13.3239C47.2805 13.3239 46.201 11.733 46.201 9.46023C46.201 7.24432 47.2521 5.45455 49.3828 5.45455C51.4283 5.45455 52.5078 7.10227 52.5078 9.46023C52.5078 11.875 51.3999 13.3239 49.3828 13.3239Z" fill="#2A2B2E"/>
<path d="M61.6555 15.2273C64.6101 15.2273 66.5987 12.983 66.5987 9.60227C66.5987 6.19318 64.6101 3.94886 61.6555 3.94886C58.701 3.94886 56.7124 6.19318 56.7124 9.60227C56.7124 12.983 58.701 15.2273 61.6555 15.2273ZM61.6555 13.7216C59.4112 13.7216 58.3885 11.7898 58.3885 9.60227C58.3885 7.41477 59.4112 5.45455 61.6555 5.45455C63.8999 5.45455 64.9226 7.41477 64.9226 9.60227C64.9226 11.7898 63.8999 13.7216 61.6555 13.7216Z" fill="#482475"/>
<path d="M61.6555 15.2273C64.6101 15.2273 66.5987 12.983 66.5987 9.60227C66.5987 6.19318 64.6101 3.94886 61.6555 3.94886C58.701 3.94886 56.7124 6.19318 56.7124 9.60227C56.7124 12.983 58.701 15.2273 61.6555 15.2273ZM61.6555 13.7216C59.4112 13.7216 58.3885 11.7898 58.3885 9.60227C58.3885 7.41477 59.4112 5.45455 61.6555 5.45455C63.8999 5.45455 64.9226 7.41477 64.9226 9.60227C64.9226 11.7898 63.8999 13.7216 61.6555 13.7216Z" fill="#2A2B2E"/>
<path d="M69.1573 15H70.8335V8.09659C70.8335 6.61932 71.9982 5.53977 73.5891 5.53977C74.0366 5.53977 74.4982 5.625 74.6119 5.65341V3.94886C74.4201 3.93466 73.9798 3.92045 73.7312 3.92045C72.4244 3.92045 71.288 4.65909 70.8903 5.73864H70.7766V4.09091H69.1573V15Z" fill="#482475"/>
<path d="M69.1573 15H70.8335V8.09659C70.8335 6.61932 71.9982 5.53977 73.5891 5.53977C74.0366 5.53977 74.4982 5.625 74.6119 5.65341V3.94886C74.4201 3.93466 73.9798 3.92045 73.7312 3.92045C72.4244 3.92045 71.288 4.65909 70.8903 5.73864H70.7766V4.09091H69.1573V15Z" fill="#2A2B2E"/>
<path d="M78.0103 19.0909C79.5231 19.0909 80.5884 18.2884 81.2205 16.5909L85.8654 4.11932L84.033 4.09091L81.0217 12.7841H80.908L77.8967 4.09091H76.0785L80.1126 15.0568L79.8001 15.9091C79.1893 17.571 78.4364 17.7273 77.2148 17.4148L76.7887 18.892C76.9592 18.9773 77.4421 19.0909 78.0103 19.0909Z" fill="#482475"/>
<path d="M78.0103 19.0909C79.5231 19.0909 80.5884 18.2884 81.2205 16.5909L85.8654 4.11932L84.033 4.09091L81.0217 12.7841H80.908L77.8967 4.09091H76.0785L80.1126 15.0568L79.8001 15.9091C79.1893 17.571 78.4364 17.7273 77.2148 17.4148L76.7887 18.892C76.9592 18.9773 77.4421 19.0909 78.0103 19.0909Z" fill="#2A2B2E"/>
<path d="M98.1399 15.2273C101.094 15.2273 103.083 12.983 103.083 9.60227C103.083 6.19318 101.094 3.94886 98.1399 3.94886C95.1854 3.94886 93.1967 6.19318 93.1967 9.60227C93.1967 12.983 95.1854 15.2273 98.1399 15.2273ZM98.1399 13.7216C95.8956 13.7216 94.8729 11.7898 94.8729 9.60227C94.8729 7.41477 95.8956 5.45455 98.1399 5.45455C100.384 5.45455 101.407 7.41477 101.407 9.60227C101.407 11.7898 100.384 13.7216 98.1399 13.7216Z" fill="#482475"/>
<path d="M98.1399 15.2273C101.094 15.2273 103.083 12.983 103.083 9.60227C103.083 6.19318 101.094 3.94886 98.1399 3.94886C95.1854 3.94886 93.1967 6.19318 93.1967 9.60227C93.1967 12.983 95.1854 15.2273 98.1399 15.2273ZM98.1399 13.7216C95.8956 13.7216 94.8729 11.7898 94.8729 9.60227C94.8729 7.41477 95.8956 5.45455 98.1399 5.45455C100.384 5.45455 101.407 7.41477 101.407 9.60227C101.407 11.7898 100.384 13.7216 98.1399 13.7216Z" fill="#2A2B2E"/>
<path d="M105.642 19.0909H107.318V13.3239H107.46C107.829 13.9205 108.539 15.2273 110.642 15.2273C113.369 15.2273 115.272 13.0398 115.272 9.57386C115.272 6.13636 113.369 3.94886 110.613 3.94886C108.483 3.94886 107.829 5.25568 107.46 5.82386H107.261V4.09091H105.642V19.0909ZM107.289 9.54545C107.289 7.10227 108.369 5.45455 110.414 5.45455C112.545 5.45455 113.596 7.24432 113.596 9.54545C113.596 11.875 112.517 13.7216 110.414 13.7216C108.397 13.7216 107.289 12.017 107.289 9.54545Z" fill="#482475"/>
<path d="M105.642 19.0909H107.318V13.3239H107.46C107.829 13.9205 108.539 15.2273 110.642 15.2273C113.369 15.2273 115.272 13.0398 115.272 9.57386C115.272 6.13636 113.369 3.94886 110.613 3.94886C108.483 3.94886 107.829 5.25568 107.46 5.82386H107.261V4.09091H105.642V19.0909ZM107.289 9.54545C107.289 7.10227 108.369 5.45455 110.414 5.45455C112.545 5.45455 113.596 7.24432 113.596 9.54545C113.596 11.875 112.517 13.7216 110.414 13.7216C108.397 13.7216 107.289 12.017 107.289 9.54545Z" fill="#2A2B2E"/>
<path d="M122.574 4.09091H120.244V1.47727H118.568V4.09091H116.92V5.51136H118.568V12.3295C118.568 14.233 120.102 15.142 121.522 15.142C122.147 15.142 122.545 15.0284 122.772 14.9432L122.431 13.4375C122.289 13.4659 122.062 13.5227 121.693 13.5227C120.954 13.5227 120.244 13.2955 120.244 11.875V5.51136H122.574V4.09091Z" fill="#482475"/>
<path d="M122.574 4.09091H120.244V1.47727H118.568V4.09091H116.92V5.51136H118.568V12.3295C118.568 14.233 120.102 15.142 121.522 15.142C122.147 15.142 122.545 15.0284 122.772 14.9432L122.431 13.4375C122.289 13.4659 122.062 13.5227 121.693 13.5227C120.954 13.5227 120.244 13.2955 120.244 11.875V5.51136H122.574V4.09091Z" fill="#2A2B2E"/>
<path d="M125.095 15H126.771V4.09091H125.095V15ZM125.947 2.27273C126.601 2.27273 127.14 1.76136 127.14 1.13636C127.14 0.511364 126.601 0 125.947 0C125.294 0 124.754 0.511364 124.754 1.13636C124.754 1.76136 125.294 2.27273 125.947 2.27273Z" fill="#482475"/>
<path d="M125.095 15H126.771V4.09091H125.095V15ZM125.947 2.27273C126.601 2.27273 127.14 1.76136 127.14 1.13636C127.14 0.511364 126.601 0 125.947 0C125.294 0 124.754 0.511364 124.754 1.13636C124.754 1.76136 125.294 2.27273 125.947 2.27273Z" fill="#2A2B2E"/>
<path d="M129.841 15H131.517V8.18182C131.517 6.58381 132.682 5.45455 133.989 5.45455C135.26 5.45455 136.148 6.28551 136.148 7.52841V15H137.852V7.89773C137.852 6.49148 138.733 5.45455 140.267 5.45455C141.46 5.45455 142.483 6.08665 142.483 7.69886V15H144.159V7.69886C144.159 5.13494 142.781 3.94886 140.835 3.94886C139.273 3.94886 138.129 4.66619 137.568 5.79545H137.455C136.915 4.63068 135.963 3.94886 134.528 3.94886C133.108 3.94886 132.057 4.63068 131.602 5.79545H131.46V4.09091H129.841V15Z" fill="#482475"/>
<path d="M129.841 15H131.517V8.18182C131.517 6.58381 132.682 5.45455 133.989 5.45455C135.26 5.45455 136.148 6.28551 136.148 7.52841V15H137.852V7.89773C137.852 6.49148 138.733 5.45455 140.267 5.45455C141.46 5.45455 142.483 6.08665 142.483 7.69886V15H144.159V7.69886C144.159 5.13494 142.781 3.94886 140.835 3.94886C139.273 3.94886 138.129 4.66619 137.568 5.79545H137.455C136.915 4.63068 135.963 3.94886 134.528 3.94886C133.108 3.94886 132.057 4.63068 131.602 5.79545H131.46V4.09091H129.841V15Z" fill="#2A2B2E"/>
<path d="M147.224 15H148.9V4.09091H147.224V15ZM148.076 2.27273C148.729 2.27273 149.269 1.76136 149.269 1.13636C149.269 0.511364 148.729 0 148.076 0C147.423 0 146.883 0.511364 146.883 1.13636C146.883 1.76136 147.423 2.27273 148.076 2.27273Z" fill="#482475"/>
<path d="M147.224 15H148.9V4.09091H147.224V15ZM148.076 2.27273C148.729 2.27273 149.269 1.76136 149.269 1.13636C149.269 0.511364 148.729 0 148.076 0C147.423 0 146.883 0.511364 146.883 1.13636C146.883 1.76136 147.423 2.27273 148.076 2.27273Z" fill="#2A2B2E"/>
<path d="M151.657 15H160.208V13.4375H153.987V13.3239L160.01 5.42614V4.09091H151.856V5.65341H157.851V5.76705L151.657 13.7216V15Z" fill="#482475"/>
<path d="M151.657 15H160.208V13.4375H153.987V13.3239L160.01 5.42614V4.09091H151.856V5.65341H157.851V5.76705L151.657 13.7216V15Z" fill="#2A2B2E"/>
<path d="M166 15.2557C167.904 15.2557 168.898 14.233 169.239 13.5227H169.324V15H171V7.8125C171 4.34659 168.358 3.94886 166.966 3.94886C165.319 3.94886 163.444 4.51704 162.591 6.50568L164.182 7.07386C164.551 6.27841 165.425 5.42614 167.023 5.42614C168.564 5.42614 169.324 6.2429 169.324 7.64204V7.69886C169.324 8.50852 168.5 8.4375 166.512 8.69318C164.488 8.95597 162.279 9.40341 162.279 11.9034C162.279 14.0341 163.927 15.2557 166 15.2557ZM166.256 13.75C164.921 13.75 163.955 13.1534 163.955 11.9886C163.955 10.7102 165.12 10.3125 166.426 10.142C167.137 10.0568 169.04 9.85795 169.324 9.51704V11.0511C169.324 12.4148 168.245 13.75 166.256 13.75Z" fill="#482475"/>
<path d="M166 15.2557C167.904 15.2557 168.898 14.233 169.239 13.5227H169.324V15H171V7.8125C171 4.34659 168.358 3.94886 166.966 3.94886C165.319 3.94886 163.444 4.51704 162.591 6.50568L164.182 7.07386C164.551 6.27841 165.425 5.42614 167.023 5.42614C168.564 5.42614 169.324 6.2429 169.324 7.64204V7.69886C169.324 8.50852 168.5 8.4375 166.512 8.69318C164.488 8.95597 162.279 9.40341 162.279 11.9034C162.279 14.0341 163.927 15.2557 166 15.2557ZM166.256 13.75C164.921 13.75 163.955 13.1534 163.955 11.9886C163.955 10.7102 165.12 10.3125 166.426 10.142C167.137 10.0568 169.04 9.85795 169.324 9.51704V11.0511C169.324 12.4148 168.245 13.75 166.256 13.75Z" fill="#2A2B2E"/>
<path d="M178.804 4.09091H176.474V1.47727H174.798V4.09091H173.151V5.51136H174.798V12.3295C174.798 14.233 176.332 15.142 177.753 15.142C178.378 15.142 178.776 15.0284 179.003 14.9432L178.662 13.4375C178.52 13.4659 178.293 13.5227 177.923 13.5227C177.185 13.5227 176.474 13.2955 176.474 11.875V5.51136H178.804V4.09091Z" fill="#482475"/>
<path d="M178.804 4.09091H176.474V1.47727H174.798V4.09091H173.151V5.51136H174.798V12.3295C174.798 14.233 176.332 15.142 177.753 15.142C178.378 15.142 178.776 15.0284 179.003 14.9432L178.662 13.4375C178.52 13.4659 178.293 13.5227 177.923 13.5227C177.185 13.5227 176.474 13.2955 176.474 11.875V5.51136H178.804V4.09091Z" fill="#2A2B2E"/>
<path d="M181.325 15H183.001V4.09091H181.325V15ZM182.178 2.27273C182.831 2.27273 183.371 1.76136 183.371 1.13636C183.371 0.511364 182.831 0 182.178 0C181.524 0 180.984 0.511364 180.984 1.13636C180.984 1.76136 181.524 2.27273 182.178 2.27273Z" fill="#482475"/>
<path d="M181.325 15H183.001V4.09091H181.325V15ZM182.178 2.27273C182.831 2.27273 183.371 1.76136 183.371 1.13636C183.371 0.511364 182.831 0 182.178 0C181.524 0 180.984 0.511364 180.984 1.13636C180.984 1.76136 181.524 2.27273 182.178 2.27273Z" fill="#2A2B2E"/>
<path d="M190.503 15.2273C193.458 15.2273 195.446 12.983 195.446 9.60227C195.446 6.19318 193.458 3.94886 190.503 3.94886C187.549 3.94886 185.56 6.19318 185.56 9.60227C185.56 12.983 187.549 15.2273 190.503 15.2273ZM190.503 13.7216C188.259 13.7216 187.236 11.7898 187.236 9.60227C187.236 7.41477 188.259 5.45455 190.503 5.45455C192.748 5.45455 193.77 7.41477 193.77 9.60227C193.77 11.7898 192.748 13.7216 190.503 13.7216Z" fill="#482475"/>
<path d="M190.503 15.2273C193.458 15.2273 195.446 12.983 195.446 9.60227C195.446 6.19318 193.458 3.94886 190.503 3.94886C187.549 3.94886 185.56 6.19318 185.56 9.60227C185.56 12.983 187.549 15.2273 190.503 15.2273ZM190.503 13.7216C188.259 13.7216 187.236 11.7898 187.236 9.60227C187.236 7.41477 188.259 5.45455 190.503 5.45455C192.748 5.45455 193.77 7.41477 193.77 9.60227C193.77 11.7898 192.748 13.7216 190.503 13.7216Z" fill="#2A2B2E"/>
<path d="M199.681 8.4375C199.681 6.53409 200.86 5.45455 202.465 5.45455C204.021 5.45455 204.965 6.47017 204.965 8.18182V15H206.641V8.06818C206.641 5.28409 205.157 3.94886 202.948 3.94886C201.3 3.94886 200.278 4.6875 199.766 5.79545H199.624V4.09091H198.005V15H199.681V8.4375Z" fill="#482475"/>
<path d="M199.681 8.4375C199.681 6.53409 200.86 5.45455 202.465 5.45455C204.021 5.45455 204.965 6.47017 204.965 8.18182V15H206.641V8.06818C206.641 5.28409 205.157 3.94886 202.948 3.94886C201.3 3.94886 200.278 4.6875 199.766 5.79545H199.624V4.09091H198.005V15H199.681V8.4375Z" fill="#2A2B2E"/>
<path d="M217.801 15H219.449L221.835 6.61932H222.005L224.392 15H226.039L229.363 4.09091H227.602L225.244 12.4148H225.13L222.829 4.09091H221.039L218.71 12.4432H218.596L216.238 4.09091H214.477L217.801 15Z" fill="#482475"/>
<path d="M217.801 15H219.449L221.835 6.61932H222.005L224.392 15H226.039L229.363 4.09091H227.602L225.244 12.4148H225.13L222.829 4.09091H221.039L218.71 12.4432H218.596L216.238 4.09091H214.477L217.801 15Z" fill="#2A2B2E"/>
<path d="M231.579 15H233.255V4.09091H231.579V15ZM232.431 2.27273C233.085 2.27273 233.625 1.76136 233.625 1.13636C233.625 0.511364 233.085 0 232.431 0C231.778 0 231.238 0.511364 231.238 1.13636C231.238 1.76136 231.778 2.27273 232.431 2.27273Z" fill="#482475"/>
<path d="M231.579 15H233.255V4.09091H231.579V15ZM232.431 2.27273C233.085 2.27273 233.625 1.76136 233.625 1.13636C233.625 0.511364 233.085 0 232.431 0C231.778 0 231.238 0.511364 231.238 1.13636C231.238 1.76136 231.778 2.27273 232.431 2.27273Z" fill="#2A2B2E"/>
<path d="M241.07 4.09091H238.74V1.47727H237.064V4.09091H235.416V5.51136H237.064V12.3295C237.064 14.233 238.598 15.142 240.018 15.142C240.643 15.142 241.041 15.0284 241.268 14.9432L240.928 13.4375C240.786 13.4659 240.558 13.5227 240.189 13.5227C239.45 13.5227 238.74 13.2955 238.74 11.875V5.51136H241.07V4.09091Z" fill="#482475"/>
<path d="M241.07 4.09091H238.74V1.47727H237.064V4.09091H235.416V5.51136H237.064V12.3295C237.064 14.233 238.598 15.142 240.018 15.142C240.643 15.142 241.041 15.0284 241.268 14.9432L240.928 13.4375C240.786 13.4659 240.558 13.5227 240.189 13.5227C239.45 13.5227 238.74 13.2955 238.74 11.875V5.51136H241.07V4.09091Z" fill="#2A2B2E"/>
<path d="M245.501 8.4375C245.501 6.53409 246.716 5.45455 248.371 5.45455C249.947 5.45455 250.899 6.44886 250.899 8.18182V15H252.575V8.06818C252.575 5.26278 251.084 3.94886 248.854 3.94886C247.135 3.94886 246.155 4.66619 245.643 5.79545H245.501V0.454545H243.825V15H245.501V8.4375Z" fill="#482475"/>
<path d="M245.501 8.4375C245.501 6.53409 246.716 5.45455 248.371 5.45455C249.947 5.45455 250.899 6.44886 250.899 8.18182V15H252.575V8.06818C252.575 5.26278 251.084 3.94886 248.854 3.94886C247.135 3.94886 246.155 4.66619 245.643 5.79545H245.501V0.454545H243.825V15H245.501V8.4375Z" fill="#2A2B2E"/>
<path d="M50.7749 42.4375C50.7749 40.5341 51.9893 39.4545 53.6442 39.4545C55.2209 39.4545 56.1726 40.4489 56.1726 42.1818V49H57.8487V42.0682C57.8487 39.2628 56.3572 37.9489 54.1271 37.9489C52.4084 37.9489 51.4283 38.6662 50.9169 39.7955H50.7749V34.4545H49.0987V49H50.7749V42.4375Z" fill="#482475"/>
<path d="M50.7749 42.4375C50.7749 40.5341 51.9893 39.4545 53.6442 39.4545C55.2209 39.4545 56.1726 40.4489 56.1726 42.1818V49H57.8487V42.0682C57.8487 39.2628 56.3572 37.9489 54.1271 37.9489C52.4084 37.9489 51.4283 38.6662 50.9169 39.7955H50.7749V34.4545H49.0987V49H50.7749V42.4375Z" fill="#2A2B2E"/>
<path d="M65.347 49.2273C68.3015 49.2273 70.2901 46.983 70.2901 43.6023C70.2901 40.1932 68.3015 37.9489 65.347 37.9489C62.3924 37.9489 60.4038 40.1932 60.4038 43.6023C60.4038 46.983 62.3924 49.2273 65.347 49.2273ZM65.347 47.7216C63.1026 47.7216 62.0799 45.7898 62.0799 43.6023C62.0799 41.4148 63.1026 39.4545 65.347 39.4545C67.5913 39.4545 68.614 41.4148 68.614 43.6023C68.614 45.7898 67.5913 47.7216 65.347 47.7216Z" fill="#482475"/>
<path d="M65.347 49.2273C68.3015 49.2273 70.2901 46.983 70.2901 43.6023C70.2901 40.1932 68.3015 37.9489 65.347 37.9489C62.3924 37.9489 60.4038 40.1932 60.4038 43.6023C60.4038 46.983 62.3924 49.2273 65.347 49.2273ZM65.347 47.7216C63.1026 47.7216 62.0799 45.7898 62.0799 43.6023C62.0799 41.4148 63.1026 39.4545 65.347 39.4545C67.5913 39.4545 68.614 41.4148 68.614 43.6023C68.614 45.7898 67.5913 47.7216 65.347 47.7216Z" fill="#2A2B2E"/>
<path d="M72.8487 49H74.5249V42.0966C74.5249 40.6193 75.6896 39.5398 77.2805 39.5398C77.728 39.5398 78.1896 39.625 78.3033 39.6534V37.9489C78.1115 37.9347 77.6712 37.9205 77.4226 37.9205C76.1158 37.9205 74.9794 38.6591 74.5817 39.7386H74.468V38.0909H72.8487V49Z" fill="#482475"/>
<path d="M72.8487 49H74.5249V42.0966C74.5249 40.6193 75.6896 39.5398 77.2805 39.5398C77.728 39.5398 78.1896 39.625 78.3033 39.6534V37.9489C78.1115 37.9347 77.6712 37.9205 77.4226 37.9205C76.1158 37.9205 74.9794 38.6591 74.5817 39.7386H74.468V38.0909H72.8487V49Z" fill="#2A2B2E"/>
<path d="M80.2901 49H81.9663V38.0909H80.2901V49ZM81.1424 36.2727C81.7958 36.2727 82.3356 35.7614 82.3356 35.1364C82.3356 34.5114 81.7958 34 81.1424 34C80.489 34 79.9492 34.5114 79.9492 35.1364C79.9492 35.7614 80.489 36.2727 81.1424 36.2727Z" fill="#482475"/>
<path d="M80.2901 49H81.9663V38.0909H80.2901V49ZM81.1424 36.2727C81.7958 36.2727 82.3356 35.7614 82.3356 35.1364C82.3356 34.5114 81.7958 34 81.1424 34C80.489 34 79.9492 34.5114 79.9492 35.1364C79.9492 35.7614 80.489 36.2727 81.1424 36.2727Z" fill="#2A2B2E"/>
<path d="M84.7237 49H93.2749V47.4375H87.0533V47.3239L93.076 39.4261V38.0909H84.9226V39.6534H90.9169V39.767L84.7237 47.7216V49Z" fill="#482475"/>
<path d="M84.7237 49H93.2749V47.4375H87.0533V47.3239L93.076 39.4261V38.0909H84.9226V39.6534H90.9169V39.767L84.7237 47.7216V49Z" fill="#2A2B2E"/>
<path d="M99.9759 49.2273C102.93 49.2273 104.919 46.983 104.919 43.6023C104.919 40.1932 102.93 37.9489 99.9759 37.9489C97.0213 37.9489 95.0327 40.1932 95.0327 43.6023C95.0327 46.983 97.0213 49.2273 99.9759 49.2273ZM99.9759 47.7216C97.7315 47.7216 96.7088 45.7898 96.7088 43.6023C96.7088 41.4148 97.7315 39.4545 99.9759 39.4545C102.22 39.4545 103.243 41.4148 103.243 43.6023C103.243 45.7898 102.22 47.7216 99.9759 47.7216Z" fill="#482475"/>
<path d="M99.9759 49.2273C102.93 49.2273 104.919 46.983 104.919 43.6023C104.919 40.1932 102.93 37.9489 99.9759 37.9489C97.0213 37.9489 95.0327 40.1932 95.0327 43.6023C95.0327 46.983 97.0213 49.2273 99.9759 49.2273ZM99.9759 47.7216C97.7315 47.7216 96.7088 45.7898 96.7088 43.6023C96.7088 41.4148 97.7315 39.4545 99.9759 39.4545C102.22 39.4545 103.243 41.4148 103.243 43.6023C103.243 45.7898 102.22 47.7216 99.9759 47.7216Z" fill="#2A2B2E"/>
<path d="M109.154 42.4375C109.154 40.5341 110.333 39.4545 111.938 39.4545C113.493 39.4545 114.438 40.4702 114.438 42.1818V49H116.114V42.0682C116.114 39.2841 114.63 37.9489 112.421 37.9489C110.773 37.9489 109.75 38.6875 109.239 39.7955H109.097V38.0909H107.478V49H109.154V42.4375Z" fill="#482475"/>
<path d="M109.154 42.4375C109.154 40.5341 110.333 39.4545 111.938 39.4545C113.493 39.4545 114.438 40.4702 114.438 42.1818V49H116.114V42.0682C116.114 39.2841 114.63 37.9489 112.421 37.9489C110.773 37.9489 109.75 38.6875 109.239 39.7955H109.097V38.0909H107.478V49H109.154V42.4375Z" fill="#2A2B2E"/>
<path d="M123.921 38.0909H121.592V35.4773H119.915V38.0909H118.268V39.5114H119.915V46.3295C119.915 48.233 121.45 49.142 122.87 49.142C123.495 49.142 123.893 49.0284 124.12 48.9432L123.779 47.4375C123.637 47.4659 123.41 47.5227 123.04 47.5227C122.302 47.5227 121.592 47.2955 121.592 45.875V39.5114H123.921V38.0909Z" fill="#482475"/>
<path d="M123.921 38.0909H121.592V35.4773H119.915V38.0909H118.268V39.5114H119.915V46.3295C119.915 48.233 121.45 49.142 122.87 49.142C123.495 49.142 123.893 49.0284 124.12 48.9432L123.779 47.4375C123.637 47.4659 123.41 47.5227 123.04 47.5227C122.302 47.5227 121.592 47.2955 121.592 45.875V39.5114H123.921V38.0909Z" fill="#2A2B2E"/>
<path d="M129.653 49.2557C131.556 49.2557 132.55 48.233 132.891 47.5227H132.977V49H134.653V41.8125C134.653 38.3466 132.011 37.9489 130.619 37.9489C128.971 37.9489 127.096 38.517 126.244 40.5057L127.835 41.0739C128.204 40.2784 129.077 39.4261 130.675 39.4261C132.217 39.4261 132.977 40.2429 132.977 41.642V41.6989C132.977 42.5085 132.153 42.4375 130.164 42.6932C128.14 42.956 125.931 43.4034 125.931 45.9034C125.931 48.0341 127.579 49.2557 129.653 49.2557ZM129.908 47.75C128.573 47.75 127.607 47.1534 127.607 45.9886C127.607 44.7102 128.772 44.3125 130.079 44.142C130.789 44.0568 132.692 43.858 132.977 43.517V45.0511C132.977 46.4148 131.897 47.75 129.908 47.75Z" fill="#482475"/>
<path d="M129.653 49.2557C131.556 49.2557 132.55 48.233 132.891 47.5227H132.977V49H134.653V41.8125C134.653 38.3466 132.011 37.9489 130.619 37.9489C128.971 37.9489 127.096 38.517 126.244 40.5057L127.835 41.0739C128.204 40.2784 129.077 39.4261 130.675 39.4261C132.217 39.4261 132.977 40.2429 132.977 41.642V41.6989C132.977 42.5085 132.153 42.4375 130.164 42.6932C128.14 42.956 125.931 43.4034 125.931 45.9034C125.931 48.0341 127.579 49.2557 129.653 49.2557ZM129.908 47.75C128.573 47.75 127.607 47.1534 127.607 45.9886C127.607 44.7102 128.772 44.3125 130.079 44.142C130.789 44.0568 132.692 43.858 132.977 43.517V45.0511C132.977 46.4148 131.897 47.75 129.908 47.75Z" fill="#2A2B2E"/>
<path d="M139.388 34.4545H137.712V49H139.388V34.4545Z" fill="#482475"/>
<path d="M139.388 34.4545H137.712V49H139.388V34.4545Z" fill="#2A2B2E"/>
<path d="M152.941 38.0909H150.498V36.983C150.498 35.9034 150.952 35.3352 152.06 35.3352C152.543 35.3352 152.827 35.4489 152.998 35.5057L153.481 34.0568C153.225 33.9432 152.714 33.7727 151.89 33.7727C150.327 33.7727 148.822 34.7102 148.822 36.5852V38.0909H147.06V39.5114H148.822V49H150.498V39.5114H152.941V38.0909Z" fill="#482475"/>
<path d="M152.941 38.0909H150.498V36.983C150.498 35.9034 150.952 35.3352 152.06 35.3352C152.543 35.3352 152.827 35.4489 152.998 35.5057L153.481 34.0568C153.225 33.9432 152.714 33.7727 151.89 33.7727C150.327 33.7727 148.822 34.7102 148.822 36.5852V38.0909H147.06V39.5114H148.822V49H150.498V39.5114H152.941V38.0909Z" fill="#2A2B2E"/>
<path d="M155.29 49H156.966V38.0909H155.29V49ZM156.142 36.2727C156.796 36.2727 157.336 35.7614 157.336 35.1364C157.336 34.5114 156.796 34 156.142 34C155.489 34 154.949 34.5114 154.949 35.1364C154.949 35.7614 155.489 36.2727 156.142 36.2727Z" fill="#482475"/>
<path d="M155.29 49H156.966V38.0909H155.29V49ZM156.142 36.2727C156.796 36.2727 157.336 35.7614 157.336 35.1364C157.336 34.5114 156.796 34 156.142 34C155.489 34 154.949 34.5114 154.949 35.1364C154.949 35.7614 155.489 36.2727 156.142 36.2727Z" fill="#2A2B2E"/>
<path d="M161.712 34.4545H160.036V49H161.712V34.4545Z" fill="#482475"/>
<path d="M161.712 34.4545H160.036V49H161.712V34.4545Z" fill="#2A2B2E"/>
<path d="M169.527 38.0909H167.197V35.4773H165.521V38.0909H163.873V39.5114H165.521V46.3295C165.521 48.233 167.055 49.142 168.476 49.142C169.101 49.142 169.498 49.0284 169.726 48.9432L169.385 47.4375C169.243 47.4659 169.015 47.5227 168.646 47.5227C167.907 47.5227 167.197 47.2955 167.197 45.875V39.5114H169.527V38.0909Z" fill="#482475"/>
<path d="M169.527 38.0909H167.197V35.4773H165.521V38.0909H163.873V39.5114H165.521V46.3295C165.521 48.233 167.055 49.142 168.476 49.142C169.101 49.142 169.498 49.0284 169.726 48.9432L169.385 47.4375C169.243 47.4659 169.015 47.5227 168.646 47.5227C167.907 47.5227 167.197 47.2955 167.197 45.875V39.5114H169.527V38.0909Z" fill="#2A2B2E"/>
<path d="M176.505 49.2273C178.721 49.2273 180.34 48.1193 180.851 46.4716L179.232 46.017C178.806 47.1534 177.819 47.7216 176.505 47.7216C174.537 47.7216 173.181 46.4503 173.103 44.1136H181.022V43.4034C181.022 39.3409 178.607 37.9489 176.334 37.9489C173.38 37.9489 171.419 40.2784 171.419 43.6307C171.419 46.983 173.351 49.2273 176.505 49.2273ZM173.103 42.6648C173.216 40.9673 174.417 39.4545 176.334 39.4545C178.152 39.4545 179.317 40.8182 179.317 42.6648H173.103Z" fill="#482475"/>
<path d="M176.505 49.2273C178.721 49.2273 180.34 48.1193 180.851 46.4716L179.232 46.017C178.806 47.1534 177.819 47.7216 176.505 47.7216C174.537 47.7216 173.181 46.4503 173.103 44.1136H181.022V43.4034C181.022 39.3409 178.607 37.9489 176.334 37.9489C173.38 37.9489 171.419 40.2784 171.419 43.6307C171.419 46.983 173.351 49.2273 176.505 49.2273ZM173.103 42.6648C173.216 40.9673 174.417 39.4545 176.334 39.4545C178.152 39.4545 179.317 40.8182 179.317 42.6648H173.103Z" fill="#2A2B2E"/>
<path d="M183.571 49H185.248V42.0966C185.248 40.6193 186.412 39.5398 188.003 39.5398C188.451 39.5398 188.912 39.625 189.026 39.6534V37.9489C188.834 37.9347 188.394 37.9205 188.145 37.9205C186.838 37.9205 185.702 38.6591 185.304 39.7386H185.191V38.0909H183.571V49Z" fill="#482475"/>
<path d="M183.571 49H185.248V42.0966C185.248 40.6193 186.412 39.5398 188.003 39.5398C188.451 39.5398 188.912 39.625 189.026 39.6534V37.9489C188.834 37.9347 188.394 37.9205 188.145 37.9205C186.838 37.9205 185.702 38.6591 185.304 39.7386H185.191V38.0909H183.571V49Z" fill="#2A2B2E"/>
<path d="M198.74 40.5341C198.214 38.9858 197.036 37.9489 194.876 37.9489C192.575 37.9489 190.871 39.2557 190.871 41.1023C190.871 42.608 191.766 43.6165 193.768 44.0852L195.587 44.5114C196.688 44.767 197.206 45.2926 197.206 46.0455C197.206 46.983 196.212 47.75 194.649 47.75C193.278 47.75 192.419 47.1605 192.121 45.9886L190.53 46.3864C190.92 48.2401 192.447 49.2273 194.678 49.2273C197.213 49.2273 198.939 47.8423 198.939 45.9602C198.939 44.4403 197.987 43.4815 196.041 43.0057L194.422 42.608C193.129 42.2884 192.547 41.8551 192.547 41.017C192.547 40.0795 193.541 39.3977 194.876 39.3977C196.339 39.3977 196.943 40.2074 197.234 40.9602L198.74 40.5341Z" fill="#482475"/>
<path d="M198.74 40.5341C198.214 38.9858 197.036 37.9489 194.876 37.9489C192.575 37.9489 190.871 39.2557 190.871 41.1023C190.871 42.608 191.766 43.6165 193.768 44.0852L195.587 44.5114C196.688 44.767 197.206 45.2926 197.206 46.0455C197.206 46.983 196.212 47.75 194.649 47.75C193.278 47.75 192.419 47.1605 192.121 45.9886L190.53 46.3864C190.92 48.2401 192.447 49.2273 194.678 49.2273C197.213 49.2273 198.939 47.8423 198.939 45.9602C198.939 44.4403 197.987 43.4815 196.041 43.0057L194.422 42.608C193.129 42.2884 192.547 41.8551 192.547 41.017C192.547 40.0795 193.541 39.3977 194.876 39.3977C196.339 39.3977 196.943 40.2074 197.234 40.9602L198.74 40.5341Z" fill="#2A2B2E"/>
<path d="M202.684 49.1136C203.387 49.1136 203.962 48.5384 203.962 47.8352C203.962 47.1321 203.387 46.5568 202.684 46.5568C201.98 46.5568 201.405 47.1321 201.405 47.8352C201.405 48.5384 201.98 49.1136 202.684 49.1136Z" fill="#482475"/>
<path d="M202.684 49.1136C203.387 49.1136 203.962 48.5384 203.962 47.8352C203.962 47.1321 203.387 46.5568 202.684 46.5568C201.98 46.5568 201.405 47.1321 201.405 47.8352C201.405 48.5384 201.98 49.1136 202.684 49.1136Z" fill="#2A2B2E"/>
</svg>
