<svg width="14" height="503" viewBox="0 0 14 503" fill="none" xmlns="http://www.w3.org/2000/svg">
<path d="M0 502.457C0 502.757 0.243321 503 0.543472 503H4.3662C7.8169 503 10.338 500.87 10.338 496.139V257.552C10.338 254.978 11.5352 252.543 14 252.543V250.457C11.5352 250.457 10.338 248.022 10.338 245.448V6.86082C10.338 2.13042 7.8169 0 4.3662 0H0.543473C0.243321 0 0 0.243321 0 0.543473C0 0.843624 0.243321 1.08695 0.543473 1.08695H4.3662C6.97183 1.08695 9.22535 3.52171 9.22535 6.86082V245.448C9.22535 248.37 10.0704 250.526 12.3944 251.5C10.0704 252.474 9.22535 254.63 9.22535 257.552V496.139C9.22535 499.409 6.97183 501.913 4.3662 501.913H0.543473C0.243321 501.913 0 502.156 0 502.457Z" fill="black"/>
</svg>
